<svg width="401" height="196" viewBox="0 0 401 196" fill="none" xmlns="http://www.w3.org/2000/svg">
<path d="M44.0487 79.2553C48.6689 83.2103 55.6204 82.671 59.5754 78.0508L79.2067 55.1175C83.1617 50.4973 82.6225 43.5458 78.0023 39.5908L55.069 19.9595C50.4488 16.0045 43.4972 16.5437 39.5422 21.1639L19.9109 44.0972C15.9559 48.7174 16.4952 55.669 21.1154 59.624L44.0487 79.2553ZM38.2368 86.0447L15.3035 66.4134C6.94698 59.2601 5.96811 46.6418 13.1214 38.2853L32.7528 15.352C39.9061 6.99552 52.5244 6.01669 60.8809 13.17L83.8141 32.8014C92.1707 39.9547 93.1495 52.5729 85.9962 60.9294L66.3648 83.8627C59.2115 92.2192 46.5933 93.1981 38.2368 86.0447Z" fill="#D8E7F9"/>
<path d="M373.442 115.18C380.738 117.297 384.936 124.929 382.818 132.225L372.306 168.441C370.189 175.737 362.557 179.935 355.261 177.817L319.045 167.306C311.749 165.188 307.551 157.556 309.669 150.26L320.181 114.044C322.298 106.748 329.93 102.55 337.226 104.668L373.442 115.18ZM376.554 104.458L340.338 93.9461C327.141 90.1157 313.289 97.7357 309.459 110.932L298.947 147.148C295.117 160.345 302.737 174.197 315.933 178.027L352.149 188.539C365.346 192.37 379.198 184.75 383.028 171.553L393.54 135.337C397.37 122.141 389.75 108.288 376.554 104.458Z" fill="#ECF5FF"/>
<path d="M266.758 57.5841L251.761 67.5811C248.74 69.5952 244.658 68.7786 242.644 65.7573L232.647 50.7606C230.633 47.7393 231.449 43.6573 234.471 41.6433L249.467 31.6463C252.489 29.6323 256.571 30.4488 258.585 33.4701L268.582 48.4669C270.596 51.4882 269.779 55.5701 266.758 57.5841Z" fill="#ECF5FF"/>
</svg>
