<svg width="332" height="358" viewBox="0 0 332 358" fill="none" xmlns="http://www.w3.org/2000/svg">
<path d="M304.867 354.15L281.118 344.039C276.333 342.002 274.106 336.472 276.143 331.687L286.254 307.938C288.291 303.153 293.821 300.926 298.606 302.963L322.355 313.074C327.14 315.111 329.367 320.641 327.33 325.426L317.219 349.175C315.182 353.96 309.652 356.187 304.867 354.15Z" fill="#ECF5FF"/>
<path d="M34.5848 129.767L20.998 138.824C18.2608 140.648 14.5626 139.909 12.7379 137.171L3.68081 123.585C1.85614 120.847 2.59592 117.149 5.33316 115.325L18.92 106.267C21.6572 104.443 25.3554 105.183 27.18 107.92L36.2372 121.507C38.0618 124.244 37.3221 127.942 34.5848 129.767Z" fill="#ECF5FF"/>
<g opacity="0.3">
<path d="M260.005 19.5639C266.364 16.4485 274.045 19.0783 277.16 25.4378L292.624 57.0042C295.74 63.3637 293.11 71.0446 286.751 74.16L255.184 89.624C248.825 92.7394 241.144 90.1096 238.028 83.7502L222.564 52.1837C219.449 45.8243 222.079 38.1433 228.438 35.0279L260.005 19.5639ZM255.427 10.2186L223.86 25.6826C212.358 31.3174 207.584 45.2595 213.219 56.7618L228.683 88.3283C234.318 99.8306 248.26 104.604 259.762 98.9693L291.329 83.5053C302.831 77.8704 307.605 63.9284 301.97 52.4261L286.506 20.8596C280.871 9.35731 266.929 4.58378 255.427 10.2186Z" fill="#147CEE"/>
<path d="M260.005 19.5639C266.364 16.4485 274.045 19.0783 277.16 25.4378L292.624 57.0042C295.74 63.3637 293.11 71.0446 286.751 74.16L255.184 89.624C248.825 92.7394 241.144 90.1096 238.028 83.7502L222.564 52.1837C219.449 45.8243 222.079 38.1433 228.438 35.0279L260.005 19.5639ZM255.427 10.2186L223.86 25.6826C212.358 31.3174 207.584 45.2595 213.219 56.7618L228.683 88.3283C234.318 99.8306 248.26 104.604 259.762 98.9693L291.329 83.5053C302.831 77.8704 307.605 63.9284 301.97 52.4261L286.506 20.8596C280.871 9.35731 266.929 4.58378 255.427 10.2186Z" fill="url(#paint0_linear)"/>
</g>
<defs>
<linearGradient id="paint0_linear" x1="239.643" y1="17.9506" x2="275.546" y2="91.2373" gradientUnits="userSpaceOnUse">
<stop offset="0.208333" stop-color="#51E2E1"/>
<stop offset="1" stop-color="white" stop-opacity="0"/>
<stop offset="1" stop-color="#51E2E1" stop-opacity="0"/>
</linearGradient>
</defs>
</svg>
