<svg width="136" height="133" viewBox="0 0 136 133" fill="none" xmlns="http://www.w3.org/2000/svg">
<path d="M134.945 92.8748C135.063 71.1298 105.053 53.3388 67.9156 53.1374C30.7781 52.9361 0.576619 70.4007 0.458674 92.1457C0.34073 113.891 30.351 131.682 67.4885 131.883C104.626 132.084 134.827 114.62 134.945 92.8748Z" fill="url(#paint0_radial)"/>
<path d="M96.4918 34.4685L67.7461 15.0751L80.6983 7.61328L109.407 24.2362L96.4918 34.4685Z" fill="#E6E1DD"/>
<path d="M121.512 80.6068L108.56 88.1055L103.468 51.5351L121.512 45.1445V80.6068Z" fill="#A39C95"/>
<path d="M121.511 45.1433L108.559 52.6421H99.9978L96.4922 31.6972L109.407 24.2354L121.511 45.1433Z" fill="#B5AFA7"/>
<path d="M67.7477 15.0742L65.792 16.2194V63.3546L67.7477 66.79L106.604 89.2494L108.56 88.1043V52.642L96.4934 31.6971L67.7477 15.0742Z" fill="#D8D1C7"/>
<path d="M94.2445 63.8732V50.8334L94.8349 50.501L101.698 46.5114V45.551L101.108 44.5167L100.259 44.0365L93.1374 48.1737L92.547 48.5062L81.8089 42.3003L69.8899 21.614L69.0781 21.1338V22.0942L80.7388 42.3003V55.377L80.1484 55.7095L76.4583 57.815L69.0781 62.1001V63.0605L69.6685 64.0948L70.5173 64.575L81.8458 58.0367L82.4362 57.7042L93.1744 63.9101L105.093 84.5964L105.905 85.0766V84.1162L94.2445 63.8732ZM92.8791 61.4721L92.2887 61.1396V61.8415L82.1041 55.9311V44.7753L82.6945 45.1077V44.4059L92.8791 50.3163V61.4721Z" fill="#B5AFA7"/>
<path d="M105.903 85.0783L105.312 85.4107L104.464 84.9305L92.5448 64.2442L81.8066 58.0383L82.3971 57.6689L93.1352 63.8748L105.091 84.5981L105.903 85.0783Z" fill="#A39C95"/>
<path d="M69.6301 64.0963L70.4788 64.5765L69.8884 64.9459L69.0396 64.4657L68.4492 63.4314V62.471L69.0396 62.1016V63.062L69.6301 64.0963Z" fill="#A39C95"/>
<path d="M80.7003 42.3372V55.377L80.1099 55.7095V42.6697L68.4492 22.4636V21.5032L69.0396 21.1338V21.1707V22.0942L80.7003 42.3372Z" fill="#A39C95"/>
<path d="M92.8793 50.3166V61.4724L92.2889 61.8049V50.6491L82.0674 44.7756L82.6947 44.4062L92.8793 50.3166Z" fill="#A39C95"/>
<path d="M113.836 43.2983L109.888 45.5886L106.124 43.4091L110.109 39.5674L113.836 43.2983Z" fill="#403531"/>
<path d="M110.109 41.1172L106.124 43.4074L103.467 38.8269L107.452 32.1777L110.109 41.1172Z" fill="#685750"/>
<path d="M107.452 36.5366L103.467 38.8269V34.5049L107.452 32.1777V36.5366Z" fill="#836E69"/>
<path d="M111.843 29.667L107.452 32.1789V36.5378L110.109 41.1183L113.836 43.2978L118.227 40.7489V36.427L115.57 31.8095L111.843 29.667Z" fill="#544540"/>
<path d="M115.977 40.3071V36.9825L113.948 33.4732L111.069 31.8479L112.066 31.2568L114.944 32.9191L116.973 36.4284V39.716L115.977 40.3071Z" fill="#403531"/>
<path d="M115.976 36.9813V40.3059L113.615 41.6727L110.737 40.0104L108.707 36.5011V33.2135L111.069 31.8467L113.947 33.472L115.976 36.9813Z" fill="#685750"/>
<path d="M107.596 24.3456L105.788 25.3799L104.275 17.5117L107.596 17.8072V24.3456Z" fill="#A39C95"/>
<path d="M107.596 17.8064L105.788 18.8407L101.95 13.7061L104.755 12.8564L107.596 17.8064Z" fill="#B5AFA7"/>
<path d="M96.3781 11.5271L81.7285 1.6642L83.5366 0.629883L104.755 12.857L102.946 13.9282L96.3781 11.5271Z" fill="#E6E1DD"/>
<path d="M84.1272 10.7866L82.3191 11.8578L80.5479 6.87093L84.1272 5.98438V10.7866Z" fill="#A39C95"/>
<path d="M82.3185 11.8604V7.50153L84.3849 6.31946L100.252 15.4805L102.319 19.0637V23.3857L105.787 25.3804V18.8421L102.946 13.9291L81.7281 1.66504L78.8867 3.29039V9.93956L82.3185 11.8604Z" fill="#D8D1C7"/>
<path d="M103.13 26.9335L101.322 27.9678L99.8457 20.0996L103.13 20.3951V26.9335Z" fill="#A39C95"/>
<path d="M103.131 20.3943L101.323 21.4286L97.4854 16.257L100.29 15.4443L103.131 20.3943Z" fill="#B5AFA7"/>
<path d="M91.9502 14.1158L77.2637 4.2529L79.0718 3.18164L100.29 15.4457L98.4816 16.5169L91.9502 14.1158Z" fill="#E6E1DD"/>
<path d="M79.6993 13.3774L77.8543 14.4486L76.083 9.46175L79.6993 8.5752V13.3774Z" fill="#A39C95"/>
<path d="M77.8536 14.4473V10.0884L79.957 8.90637L95.7874 18.0305L97.8539 21.6506V25.9726L101.323 27.9673V21.429L98.4812 16.516L77.2632 4.25195L74.4219 5.87731V12.5265L77.8536 14.4473Z" fill="#D8D1C7"/>
<path d="M98.665 29.5175L96.8569 30.5518L95.3809 22.6836L98.665 22.9791V29.5175Z" fill="#A39C95"/>
<path d="M98.6663 22.9783L96.8582 24.0126L93.0205 18.841L95.825 18.0283L98.6663 22.9783Z" fill="#B5AFA7"/>
<path d="M87.4853 16.6998L72.7988 6.83688L74.607 5.76562L95.8249 18.0296L94.0168 19.1009L87.4853 16.6998Z" fill="#E6E1DD"/>
<path d="M75.2344 15.9614L73.3894 17.0326L71.6182 12.0457L75.2344 11.1592V15.9614Z" fill="#A39C95"/>
<path d="M73.4257 17.0313V12.6724L75.4921 11.4534L91.3226 20.6145L93.389 24.2346V28.5566L96.8577 30.5513V24.013L94.0163 19.1L72.7984 6.83594L69.957 8.46129V15.1105L73.4257 17.0313Z" fill="#D8D1C7"/>
<path opacity="0.3" d="M56.4668 69.4443H35.0881L19.959 78.1917V90.5343L35.0881 99.2816H56.4385L71.5676 90.5343V78.1917L56.4668 69.4443Z" fill="#2D2D2D"/>
<path d="M71.315 87.5068V90.1395L56.3555 98.802L51.0674 92.9704L71.315 87.5068Z" fill="#393D44"/>
<path d="M56.3268 96.1693L56.355 98.802H35.1743L20.2148 87.5068L56.3268 96.1693Z" fill="#323741"/>
<path d="M35.1743 96.1693V98.802L20.2148 90.1679V87.5068L35.1743 96.1693Z" fill="#5E6471"/>
<path d="M20.2158 75.2767V87.506L35.1753 96.1685H56.356L71.3154 87.506V75.2767L56.356 66.6426H35.1753L20.2158 75.2767Z" fill="#4C565F"/>
<path d="M70.5502 26.7793V87.105L56.0432 95.4844L50.8965 32.1013L70.5502 26.7793Z" fill="#2A2D32"/>
<path d="M56.0148 35.187L56.0431 95.4844H35.4845L20.9775 26.7793L56.0148 35.187Z" fill="#3B3C3F"/>
<path d="M35.4835 35.187V95.4844L20.9482 87.105L20.9765 26.7793L35.4835 35.187Z" fill="#606060"/>
<path d="M20.9482 14.9204L20.9765 26.7817L35.4835 35.1893H56.0421L70.5491 26.7817V14.9204L56.0421 6.5127H35.4835L20.9482 14.9204Z" fill="#FBE979"/>
<path d="M55.9875 77.4566L56.0158 77.6831L35.1744 77.3717L20.9502 69.4453V72.1063L35.4855 80.514H56.0441L70.5511 72.1063V69.4453L55.9875 77.4566Z" fill="#2D2D2D"/>
<path d="M71.3134 68.0303V70.663L56.3539 79.3254L55.9863 76.4662L71.3134 68.0303Z" fill="#393D44"/>
<path d="M56.3268 76.6927L56.355 79.3254H35.1743L20.2148 68.0303L35.1743 76.353L56.3268 76.6927Z" fill="#323741"/>
<path d="M35.1743 76.6927V79.3254L20.2148 70.663V68.0303L35.1743 76.6927Z" fill="#5E6471"/>
<path d="M70.5519 55.375V67.8025L56.0449 76.1818L35.4863 76.2101L20.9511 67.8025L20.9793 55.375L20.2158 55.7996V68.029L35.1753 76.6914H56.356L71.3154 68.029V55.7996L70.5519 55.375Z" fill="#566367"/>
<path d="M30.038 55.4201L25.7186 52.9229L22.6465 54.6802V59.6979L25.7186 65.0162L30.038 67.5135L33.1101 65.733V60.7384L30.038 55.4201Z" fill="#F4EFE9"/>
<path d="M30.2004 61.4118L27.8675 56.5791L25.5576 58.7295V60.9494L26.9204 63.3079L28.8376 64.4178L30.2004 63.6316V61.4118Z" fill="#5E6471"/>
<path d="M27.0801 59.6309L26.7336 59.0529L26.2716 58.7754L25.9482 58.9835V59.5153L26.2716 60.0934L26.7336 60.3709L27.0801 60.1859V59.6309Z" fill="white"/>
<path d="M55.9875 51.441L56.0158 51.6675L35.1744 51.3561L20.9502 43.4297V46.0907L35.4855 54.4984H56.0441L70.5511 46.0907V43.4297L55.9875 51.441Z" fill="#2D2D2D"/>
<path d="M71.3134 42.0137V44.6464L56.3539 53.3088L55.9863 50.4213L71.3134 42.0137Z" fill="#393D44"/>
<path d="M56.3268 50.6761L56.355 53.3088H35.1743L20.2148 42.0137L35.1743 50.3364L56.3268 50.6761Z" fill="#323741"/>
<path d="M35.1743 50.6761V53.3088L20.2148 44.6464V42.0137L35.1743 50.6761Z" fill="#5E6471"/>
<path d="M70.5519 29.3604V41.7878L56.0449 50.1672H35.4863L20.9511 41.7878L20.9793 29.3604L20.2158 29.785V42.0143L35.1753 50.6768H56.356L71.3154 42.0143V29.785L70.5519 29.3604Z" fill="#566367"/>
<path d="M53.9505 31L33.5898 31.0566L20.9492 26.3008V29.1033L35.1734 37.3128H56.3542L70.5501 29.075V26.2441L53.9505 31Z" fill="#2D2D2D"/>
<path d="M71.315 24.4053V27.0663L56.3555 35.7004L51.0674 29.8972L71.315 24.4053Z" fill="#393D44"/>
<path d="M56.3268 33.0677L56.355 35.7004H35.1743L20.2148 24.4053L56.3268 33.0677Z" fill="#323741"/>
<path d="M35.1743 33.0677V35.7004L20.2148 27.0663V24.4053L35.1743 33.0677Z" fill="#5E6471"/>
<path d="M20.2158 12.2044V24.4055L35.1753 33.0679H56.356L71.3154 24.4338V12.2044L56.356 3.54199H35.1753L20.2158 12.2044Z" fill="#4C565F"/>
<path d="M55.3389 4.92871L68.8844 12.7702V14.8934L55.3389 7.05186V4.92871Z" fill="#5E6471"/>
<path d="M55.3371 7.05186H36.1924V4.95702L55.3371 4.92871V7.05186Z" fill="#323741"/>
<path d="M36.193 7.05285L22.6475 14.8943V12.7712L36.193 4.95801V7.05285Z" fill="#393D44"/>
<path d="M68.8832 14.8933V23.8388L55.3377 31.652H36.193L22.6475 23.8388V14.8933L36.193 7.05176H55.3377L68.8832 14.8933Z" fill="#404245"/>
<path d="M39.2173 23.584V25.5373L37.0399 26.7829L36.2764 24.4049L39.2173 23.584Z" fill="#393D44"/>
<path d="M37.0391 24.8579V26.7829H33.9284L31.751 23.584L37.0391 24.8579Z" fill="#323741"/>
<path d="M33.9284 24.8579V26.7829L31.751 25.5373V23.584L33.9284 24.8579Z" fill="#5E6471"/>
<path d="M31.751 21.8003V23.5837L33.9284 24.8576H37.0391L39.2166 23.5837V21.8003L37.0391 20.5264H33.9284L31.751 21.8003Z" fill="#525B68"/>
<path d="M7.69534 113.766L8.46782 114.732L7.69534 115.891L0.646484 111.835V109.614L5.76415 111.352L7.69534 113.766Z" fill="#EFC58B"/>
<path d="M58.0985 86.8273L7.69434 115.892V113.767L28.3581 98.8973L58.0985 84.6064V86.8273Z" fill="#C79D5C"/>
<path d="M58.0995 84.6053L7.69534 113.766L0.646484 109.614L51.0506 80.5498L58.0995 84.6053Z" fill="#F7E6BB"/>
<path d="M2.19043 110.579L52.498 81.3213L53.6567 81.9972L3.25258 111.158L2.19043 110.579Z" fill="#F7D7AC"/>
<path d="M5.85938 112.705L56.167 83.4473L56.7463 83.8335L6.34217 112.898L5.85938 112.705Z" fill="#F7D7AC"/>
<path d="M4.79785 112.027L55.0089 82.8662L55.5882 83.1559L5.28065 112.317L4.79785 112.027Z" fill="#F7D7AC"/>
<path d="M6.63281 113.091L56.8438 83.9297L57.037 84.0263L6.72938 113.187L6.63281 113.091Z" fill="#F7D7AC"/>
<path d="M5.57129 112.51L55.7823 83.2529L55.9754 83.3495L5.66784 112.607L5.57129 112.51Z" fill="#F7D7AC"/>
<path d="M3.54186 111.351L53.7529 82.0938L53.8494 82.1903L3.44531 111.255L3.54186 111.351Z" fill="#F7D7AC"/>
<path d="M4.02624 111.641L54.2373 82.3838H54.3338L3.92969 111.545L4.02624 111.641Z" fill="#F7D7AC"/>
<path d="M3.83179 111.545L53.9462 82.1904L54.1394 82.287L3.63867 111.351L3.83179 111.545Z" fill="#F7D7AC"/>
<path d="M1.51453 110.194L51.7256 80.9365H51.8221L1.41797 110.098L1.51453 110.194Z" fill="#F7D7AC"/>
<path d="M1.99891 110.482L52.2099 81.2246H52.3065L1.90234 110.386L1.99891 110.482Z" fill="#F7D7AC"/>
<path d="M1.80432 110.386L51.9188 81.0322L52.1119 81.1288L1.51465 110.193L1.80432 110.386Z" fill="#F7D7AC"/>
<path d="M4.60389 111.932L54.4287 82.4814L54.9115 82.7711L4.12109 111.642L4.60389 111.932Z" fill="#F7D7AC"/>
<path d="M0.935547 109.807L51.1466 80.6455L51.6294 80.8386L1.32178 110L0.935547 109.807Z" fill="#F7D7AC"/>
<path d="M7.21278 113.476L57.4238 84.2188L57.5204 84.3153L7.11621 113.38L7.21278 113.476Z" fill="#F7D7AC"/>
<path d="M7.01831 113.38L57.1328 84.0254L57.3259 84.122L6.8252 113.186L7.01831 113.38Z" fill="#F7D7AC"/>
<path d="M7.79042 113.766L57.6152 84.3154L58.098 84.6051L7.30762 113.476L7.79042 113.766Z" fill="#F7D7AC"/>
<path d="M7.69534 111.352L8.46782 112.318L7.69534 113.573L0.646484 109.421V107.2L5.76415 108.938L7.69534 111.352Z" fill="#EFC58B"/>
<path d="M58.0985 84.4123L7.69434 113.573V111.352L28.3581 96.4822L58.0985 82.1914V84.4123Z" fill="#C79D5C"/>
<path d="M58.0995 82.1913L7.69534 111.352L0.646484 107.2L51.0506 78.1357L58.0995 82.1913Z" fill="#F7E6BB"/>
<path d="M2.19141 108.167L52.499 78.9092L53.6577 79.6816L3.25355 108.746L2.19141 108.167Z" fill="#F7D7AC"/>
<path d="M5.86035 110.29L56.1679 81.0322L56.7473 81.4185L6.34315 110.579L5.86035 110.29Z" fill="#F7D7AC"/>
<path d="M4.79883 109.711L55.0099 80.4531L55.5892 80.7428L5.28163 109.904L4.79883 109.711Z" fill="#F7D7AC"/>
<path d="M6.63379 110.676L56.8448 81.5146L57.0379 81.6112L6.73035 110.772L6.63379 110.676Z" fill="#F7D7AC"/>
<path d="M5.57227 110.098L55.7833 80.9365L55.9764 81.0331L5.66882 110.194L5.57227 110.098Z" fill="#F7D7AC"/>
<path d="M3.54284 108.937L53.7539 79.6797L53.8504 79.7763L3.44629 108.841L3.54284 108.937Z" fill="#F7D7AC"/>
<path d="M4.02721 109.227L54.2383 79.9697L54.3348 80.0663L3.93066 109.131L4.02721 109.227Z" fill="#F7D7AC"/>
<path d="M3.83276 109.131L53.9472 79.7773L54.1404 79.9704L3.63965 108.938L3.83276 109.131Z" fill="#F7D7AC"/>
<path d="M1.51551 107.779L51.7265 78.5215H51.8231L1.41895 107.683L1.51551 107.779Z" fill="#F7D7AC"/>
<path d="M1.99989 108.068L52.2109 78.8105H52.3075L1.90332 107.972L1.99989 108.068Z" fill="#F7D7AC"/>
<path d="M1.80529 107.973L51.9198 78.6191L52.1129 78.7157L1.51562 107.78L1.80529 107.973Z" fill="#F7D7AC"/>
<path d="M4.60487 109.517L54.4296 80.0664L54.9124 80.3561L4.12207 109.227L4.60487 109.517Z" fill="#F7D7AC"/>
<path d="M0.936523 107.393L51.1475 78.2324L51.6303 78.5221L1.32276 107.587L0.936523 107.393Z" fill="#F7D7AC"/>
<path d="M7.21375 111.063L57.4248 81.8057L57.5213 81.9022L7.11719 110.967L7.21375 111.063Z" fill="#F7D7AC"/>
<path d="M7.01929 110.965L57.1338 81.6113L57.3269 81.8045L6.82617 110.772L7.01929 110.965Z" fill="#F7D7AC"/>
<path d="M7.79139 111.352L57.6162 81.9014L58.099 82.1911L7.30859 111.062L7.79139 111.352Z" fill="#F7D7AC"/>
<path d="M7.69534 108.938L8.46782 109.904L7.69534 111.159L0.646484 107.007V104.883L5.76415 106.524L7.69534 108.938Z" fill="#EFC58B"/>
<path d="M58.0985 81.9992L7.69434 111.16V108.939L28.3581 94.0691L58.0985 79.7783V81.9992Z" fill="#C79D5C"/>
<path d="M58.0995 79.7782L7.69534 108.939L0.646484 104.884L51.0506 75.7227L58.0995 79.7782Z" fill="#F7E6BB"/>
<path d="M2.19043 105.752L52.498 76.5908L53.6567 77.2667L3.25258 106.331L2.19043 105.752Z" fill="#F7D7AC"/>
<path d="M5.85938 107.877L56.167 78.6191L56.7463 79.0054L6.34217 108.166L5.85938 107.877Z" fill="#F7D7AC"/>
<path d="M4.79785 107.296L55.0089 78.0381L55.5882 78.4243L5.28065 107.489L4.79785 107.296Z" fill="#F7D7AC"/>
<path d="M6.63281 108.359L56.8438 79.1016L57.037 79.1981L6.72938 108.359H6.63281Z" fill="#F7D7AC"/>
<path d="M5.57129 107.683L55.7823 78.5215L55.9754 78.618L5.66784 107.779L5.57129 107.683Z" fill="#F7D7AC"/>
<path d="M3.54186 106.524L53.7529 77.2666L53.8494 77.3632L3.44531 106.524H3.54186Z" fill="#F7D7AC"/>
<path d="M4.02624 106.813L54.2373 77.5557L54.3338 77.6522L3.92969 106.717L4.02624 106.813Z" fill="#F7D7AC"/>
<path d="M3.83179 106.717L53.9462 77.3633L54.1394 77.5564L3.63867 106.524L3.83179 106.717Z" fill="#F7D7AC"/>
<path d="M1.51453 105.366L51.7256 76.1084L51.8221 76.205L1.41797 105.269L1.51453 105.366Z" fill="#F7D7AC"/>
<path d="M1.99891 105.654L52.2099 76.3965L52.3065 76.493L1.90234 105.557L1.99891 105.654Z" fill="#F7D7AC"/>
<path d="M1.80432 105.559L51.9188 76.2051L52.1119 76.3982L1.51465 105.366L1.80432 105.559Z" fill="#F7D7AC"/>
<path d="M4.60389 107.103L54.4287 77.6523L54.9115 77.942L4.12109 106.813L4.60389 107.103Z" fill="#F7D7AC"/>
<path d="M0.935547 104.979L51.1466 75.8184L51.6294 76.108L1.32178 105.269L0.935547 104.979Z" fill="#F7D7AC"/>
<path d="M7.21278 108.649L57.4238 79.3916L57.5204 79.4881L7.11621 108.649H7.21278Z" fill="#F7D7AC"/>
<path d="M7.01831 108.551L57.1328 79.1973L57.3259 79.3904L6.8252 108.358L7.01831 108.551Z" fill="#F7D7AC"/>
<path d="M7.79042 108.937L57.6152 79.4863L58.098 79.776L7.30762 108.647L7.79042 108.937Z" fill="#F7D7AC"/>
<path d="M7.69534 106.524L8.46782 107.586L7.69534 108.745L0.646484 104.593V102.469L5.76415 104.11L7.69534 106.524Z" fill="#EFC58B"/>
<path d="M58.0985 79.5833L7.69434 108.744V106.523L28.3581 91.6532L58.0985 77.459V79.5833Z" fill="#C79D5C"/>
<path d="M58.0995 77.4597L7.69534 106.524L0.646484 102.469L51.0506 73.3076L58.0995 77.4597Z" fill="#F7E6BB"/>
<path d="M2.19043 103.338L52.498 74.1768L53.6567 74.8527L3.25258 104.014L2.19043 103.338Z" fill="#F7D7AC"/>
<path d="M5.85938 105.462L56.167 76.3008L56.7463 76.5904L6.34217 105.751L5.85938 105.462Z" fill="#F7D7AC"/>
<path d="M4.79785 104.882L55.0089 75.624L55.5882 76.0103L5.28065 105.075L4.79785 104.882Z" fill="#F7D7AC"/>
<path d="M6.63281 105.945L56.8438 76.6875L57.037 76.7841L6.72938 105.945H6.63281Z" fill="#F7D7AC"/>
<path d="M5.57129 105.366L55.7823 76.1084L55.9754 76.205L5.66784 105.366H5.57129Z" fill="#F7D7AC"/>
<path d="M3.54186 104.109L53.7529 74.9482H53.8494L3.44531 104.109H3.54186Z" fill="#F7D7AC"/>
<path d="M4.02624 104.4L54.2373 75.2393H54.3338L3.92969 104.4H4.02624Z" fill="#F7D7AC"/>
<path d="M3.83179 104.302L53.9462 74.9482L54.1394 75.1413L3.63867 104.206L3.83179 104.302Z" fill="#F7D7AC"/>
<path d="M1.51453 102.952L51.7256 73.6943L51.8221 73.7909L1.41797 102.952H1.51453Z" fill="#F7D7AC"/>
<path d="M1.99891 103.24L52.2099 73.9824L52.3065 74.079L1.90234 103.143L1.99891 103.24Z" fill="#F7D7AC"/>
<path d="M1.80432 103.144L51.9188 73.79L52.1119 73.9832L1.51465 102.951L1.80432 103.144Z" fill="#F7D7AC"/>
<path d="M4.60389 104.69L54.4287 75.2393L54.9115 75.529L4.12109 104.4L4.60389 104.69Z" fill="#F7D7AC"/>
<path d="M0.935547 102.565L51.1466 73.4043L51.6294 73.694L1.32178 102.855L0.935547 102.565Z" fill="#F7D7AC"/>
<path d="M7.21278 106.234L57.4238 77.0732H57.5204L7.11621 106.234H7.21278Z" fill="#F7D7AC"/>
<path d="M7.01831 106.136L57.1328 76.8789L57.3259 76.9755L6.8252 106.04L7.01831 106.136Z" fill="#F7D7AC"/>
<path d="M7.79042 106.524L57.6152 77.0732L58.098 77.3629L7.30762 106.331L7.79042 106.524Z" fill="#F7D7AC"/>
<path d="M7.69534 104.111L8.46782 105.173L7.69534 106.332L0.646484 102.18V100.056L5.76415 101.697L7.69534 104.111Z" fill="#EFC58B"/>
<path d="M58.0985 77.1702L7.69434 106.331V104.11L28.3581 89.2402L58.0985 75.0459V77.1702Z" fill="#C79D5C"/>
<path d="M58.0995 75.0466L7.69534 104.111L0.646484 100.056L51.0506 70.8945L58.0995 75.0466Z" fill="#F7E6BB"/>
<path d="M2.19141 100.923L52.499 71.7617L53.6577 72.4376L3.25355 101.502L2.19141 100.923Z" fill="#F7D7AC"/>
<path d="M5.86035 103.048L56.1679 73.8867L56.7473 74.1764L6.34315 103.337L5.86035 103.048Z" fill="#F7D7AC"/>
<path d="M4.79883 102.469L55.0099 73.2109L55.5892 73.5972L5.28163 102.662L4.79883 102.469Z" fill="#F7D7AC"/>
<path d="M6.63379 103.531L56.8448 74.2734L57.0379 74.37L6.73035 103.531H6.63379Z" fill="#F7D7AC"/>
<path d="M5.57227 102.952L55.7833 73.6943L55.9764 73.7909L5.66882 102.952H5.57227Z" fill="#F7D7AC"/>
<path d="M3.54284 101.696L53.7539 72.5352H53.8504L3.44629 101.696H3.54284Z" fill="#F7D7AC"/>
<path d="M4.02721 101.985L54.2383 72.8242H54.3348L3.93066 101.985H4.02721Z" fill="#F7D7AC"/>
<path d="M3.83276 101.889L53.9472 72.5352L54.1404 72.7283L3.63965 101.793L3.83276 101.889Z" fill="#F7D7AC"/>
<path d="M1.51551 100.537L51.7265 71.2793L51.8231 71.3759L1.41895 100.44L1.51551 100.537Z" fill="#F7D7AC"/>
<path d="M1.99989 100.827L52.2109 71.5693L52.3075 71.6659L1.90332 100.73L1.99989 100.827Z" fill="#F7D7AC"/>
<path d="M1.80529 100.731L51.9198 71.377L52.1129 71.5701L1.51562 100.538L1.80529 100.731Z" fill="#F7D7AC"/>
<path d="M4.60487 102.275L54.4296 72.8242L54.9124 73.1139L4.12207 101.985L4.60487 102.275Z" fill="#F7D7AC"/>
<path d="M0.936523 100.151L51.1475 70.9902L51.6303 71.2799L1.32276 100.441L0.936523 100.151Z" fill="#F7D7AC"/>
<path d="M7.21375 103.82L57.4248 74.6592H57.5213L7.11719 103.82H7.21375Z" fill="#F7D7AC"/>
<path d="M7.01929 103.723L57.1338 74.4658L57.3269 74.5624L6.82617 103.627L7.01929 103.723Z" fill="#F7D7AC"/>
<path d="M7.79139 104.11L57.6162 74.6592L58.099 74.9489L7.30859 103.82L7.79139 104.11Z" fill="#F7D7AC"/>
<path d="M7.69534 101.696L8.46782 102.758L7.69534 103.917L0.646484 99.8615V97.6406L5.76415 99.3787L7.69534 101.696Z" fill="#EFC58B"/>
<path d="M58.0985 74.7561L7.69434 103.917V101.696L28.3581 86.8261L58.0985 72.6318V74.7561Z" fill="#C79D5C"/>
<path d="M58.0995 72.6326L7.69534 101.697L0.646484 97.6415L51.0506 68.4805L58.0995 72.6326Z" fill="#F7E6BB"/>
<path d="M2.19043 98.5097L52.498 69.3486L53.6567 70.0246L3.25258 99.1856L2.19043 98.5097Z" fill="#F7D7AC"/>
<path d="M5.85938 100.634L56.167 71.4727L56.7463 71.7623L6.34217 100.923L5.85938 100.634Z" fill="#F7D7AC"/>
<path d="M4.79785 100.053L55.0089 70.7959L55.5882 71.1822L5.28065 100.247L4.79785 100.053Z" fill="#F7D7AC"/>
<path d="M6.63281 101.117L56.8438 71.8594L57.037 71.9559L6.72938 101.117H6.63281Z" fill="#F7D7AC"/>
<path d="M5.57129 100.537L55.7823 71.2793L55.9754 71.3759L5.66784 100.537H5.57129Z" fill="#F7D7AC"/>
<path d="M3.54186 99.2821L53.7529 70.1211H53.8494L3.44531 99.2821H3.54186Z" fill="#F7D7AC"/>
<path d="M4.02624 99.5712L54.2373 70.4102H54.3338L3.92969 99.5712H4.02624Z" fill="#F7D7AC"/>
<path d="M3.83179 99.4753L53.9462 70.2178L54.1394 70.3143L3.63867 99.3788L3.83179 99.4753Z" fill="#F7D7AC"/>
<path d="M1.51453 98.1239L51.7256 68.9629H51.8221L1.41797 98.1239H1.51453Z" fill="#F7D7AC"/>
<path d="M1.99891 98.4119L52.2099 69.1543L52.3065 69.2509L1.90234 98.4119H1.99891Z" fill="#F7D7AC"/>
<path d="M1.80432 98.317L51.9188 68.9629L52.1119 69.156L1.51465 98.1239L1.80432 98.317Z" fill="#F7D7AC"/>
<path d="M4.60389 99.9574L54.4287 70.4102L54.9115 70.6999L4.12109 99.6678L4.60389 99.9574Z" fill="#F7D7AC"/>
<path d="M0.935547 97.8337L51.1466 68.5762L51.6294 68.8658L1.32178 98.0269L0.935547 97.8337Z" fill="#F7D7AC"/>
<path d="M7.21278 101.406L57.4238 72.2451H57.5204L7.11621 101.406H7.21278Z" fill="#F7D7AC"/>
<path d="M7.01831 101.31L57.1328 72.0527L57.3259 72.1493L6.8252 101.214L7.01831 101.31Z" fill="#F7D7AC"/>
<path d="M7.79042 101.792L57.6152 72.3418L58.098 72.5349L7.30762 101.503L7.79042 101.792Z" fill="#F7D7AC"/>
<path d="M7.69437 99.2821L8.46685 100.344L7.69437 101.503L0.645508 97.4474V95.2266L5.76317 96.9646L7.69437 99.2821Z" fill="#EFC58B"/>
<path d="M58.0985 72.4386L7.69434 101.503V99.2822L28.3581 84.412L58.0985 70.2178V72.4386Z" fill="#C79D5C"/>
<path d="M58.0985 70.2176L7.69437 99.2821L0.645508 95.2266L51.0496 66.1621L58.0985 70.2176Z" fill="#F7E6BB"/>
<path d="M2.18945 96.1922L52.497 66.9346L53.6558 67.6105L3.2516 96.7715L2.18945 96.1922Z" fill="#F7D7AC"/>
<path d="M5.8584 98.3162L56.166 69.0586L56.7453 69.4448L6.3412 98.5093L5.8584 98.3162Z" fill="#F7D7AC"/>
<path d="M4.79688 97.6404L55.0079 68.3828L55.5873 68.7691L5.27967 97.9301L4.79688 97.6404Z" fill="#F7D7AC"/>
<path d="M6.63184 98.7029L56.8429 69.4453L57.036 69.5419L6.7284 98.7029H6.63184Z" fill="#F7D7AC"/>
<path d="M5.57031 98.1238L55.7813 68.8662L55.9744 68.9628L5.66686 98.1238H5.57031Z" fill="#F7D7AC"/>
<path d="M3.54089 96.9646L53.7519 67.707H53.8485L3.44434 96.868L3.54089 96.9646Z" fill="#F7D7AC"/>
<path d="M4.02526 97.2547L54.2363 67.9971H54.3328L3.92871 97.1581L4.02526 97.2547Z" fill="#F7D7AC"/>
<path d="M3.83081 97.0613L53.9453 67.8037L54.1384 67.9002L3.6377 96.9647L3.83081 97.0613Z" fill="#F7D7AC"/>
<path d="M1.51453 95.7089L51.7256 66.5479H51.8221L1.41797 95.7089H1.51453Z" fill="#F7D7AC"/>
<path d="M1.99793 95.9999L52.209 66.8389H52.3055L1.90137 95.9999H1.99793Z" fill="#F7D7AC"/>
<path d="M1.80334 95.9021L51.9178 66.6445L52.1109 66.7411L1.51367 95.8056L1.80334 95.9021Z" fill="#F7D7AC"/>
<path d="M4.60292 97.5435L54.4277 68.0928L54.9105 68.2859L4.12012 97.2538L4.60292 97.5435Z" fill="#F7D7AC"/>
<path d="M0.93457 95.4197L51.1456 66.1621L51.6284 66.4518L1.3208 95.6128L0.93457 95.4197Z" fill="#F7D7AC"/>
<path d="M7.21278 99.0886L57.4238 69.8311H57.5204L7.11621 98.9921L7.21278 99.0886Z" fill="#F7D7AC"/>
<path d="M7.01734 98.9918L57.1318 69.6377L57.3249 69.7343L6.82422 98.7987L7.01734 98.9918Z" fill="#F7D7AC"/>
<path d="M7.78944 99.3784L57.6142 69.9277L58.097 70.1209L7.30664 99.0888L7.78944 99.3784Z" fill="#F7D7AC"/>
<path d="M7.69437 96.9655L8.46685 97.9311L7.69437 99.0899L0.645508 95.0343V92.8135L5.76317 94.5515L7.69437 96.9655Z" fill="#EFC58B"/>
<path d="M58.0985 70.0255L7.69434 99.09V96.9657L28.3581 82.0955L58.0985 67.8047V70.0255Z" fill="#C79D5C"/>
<path d="M58.0985 67.8045L7.69437 96.9655L0.645508 92.8135L51.0496 63.749L58.0985 67.8045Z" fill="#F7E6BB"/>
<path d="M2.18945 93.7791L52.497 64.5215L53.6558 65.1974L3.2516 94.3584L2.18945 93.7791Z" fill="#F7D7AC"/>
<path d="M5.8584 95.9031L56.166 66.6455L56.7453 67.0317L6.3412 96.0962L5.8584 95.9031Z" fill="#F7D7AC"/>
<path d="M4.79688 95.2265L55.0079 66.0654L55.5873 66.3551L5.27967 95.5161L4.79688 95.2265Z" fill="#F7D7AC"/>
<path d="M6.63184 96.2898L56.8429 67.0322L57.036 67.1288L6.7284 96.3864L6.63184 96.2898Z" fill="#F7D7AC"/>
<path d="M5.57031 95.7107L55.7813 66.4531L55.9744 66.5497L5.66686 95.7107H5.57031Z" fill="#F7D7AC"/>
<path d="M3.54089 94.5515L53.7519 65.2939H53.8485L3.44434 94.4549L3.54089 94.5515Z" fill="#F7D7AC"/>
<path d="M4.02526 94.8396L54.2363 65.582H54.3328L3.92871 94.7431L4.02526 94.8396Z" fill="#F7D7AC"/>
<path d="M3.83081 94.7438L53.9453 65.3896L54.1384 65.4862L3.6377 94.5506L3.83081 94.7438Z" fill="#F7D7AC"/>
<path d="M1.51453 93.3924L51.7256 64.1348H51.8221L1.41797 93.2958L1.51453 93.3924Z" fill="#F7D7AC"/>
<path d="M1.99793 93.5858L52.209 64.4248H52.3055L1.90137 93.5858H1.99793Z" fill="#F7D7AC"/>
<path d="M1.80334 93.489L51.9178 64.2314L52.1109 64.328L1.51367 93.3925L1.80334 93.489Z" fill="#F7D7AC"/>
<path d="M4.60292 95.1314L54.4277 65.6807L54.9105 65.9703L4.12012 94.8417L4.60292 95.1314Z" fill="#F7D7AC"/>
<path d="M0.93457 93.0067L51.1456 63.8457L51.6284 64.0388L1.3208 93.1998L0.93457 93.0067Z" fill="#F7D7AC"/>
<path d="M7.21278 96.6756L57.4238 67.418H57.5204L7.11621 96.579L7.21278 96.6756Z" fill="#F7D7AC"/>
<path d="M7.01734 96.5787L57.1318 67.2246L57.3249 67.3212L6.82422 96.3856L7.01734 96.5787Z" fill="#F7D7AC"/>
<path d="M7.78944 96.9653L57.6142 67.5146L58.097 67.8043L7.30664 96.6757L7.78944 96.9653Z" fill="#F7D7AC"/>
<path d="M15.6123 118.303L16.3848 119.269L15.6123 120.428L8.56348 116.372V114.151L13.6811 115.889L15.6123 118.303Z" fill="#EFC58B"/>
<path d="M66.0164 91.3644L15.6123 120.429V118.305L36.2761 103.434L66.0164 89.1436V91.3644Z" fill="#C79D5C"/>
<path d="M66.0165 89.1434L15.6123 118.304L8.56348 114.152L58.9676 85.0879L66.0165 89.1434Z" fill="#F7E6BB"/>
<path d="M10.1094 115.118L60.417 85.8604L61.5757 86.5363L11.1715 115.697L10.1094 115.118Z" fill="#F7D7AC"/>
<path d="M13.874 117.243L64.0851 87.9854L64.6644 88.3716L14.2603 117.436L13.874 117.243Z" fill="#F7D7AC"/>
<path d="M12.7168 116.566L62.9278 87.4053L63.6037 87.6949L13.1996 116.856L12.7168 116.566Z" fill="#F7D7AC"/>
<path d="M14.5508 117.628L64.7618 88.3701L64.9549 88.5632L14.6473 117.724L14.5508 117.628Z" fill="#F7D7AC"/>
<path d="M13.4883 117.049L63.7959 87.791L63.8924 87.8876L13.5848 117.049H13.4883Z" fill="#F7D7AC"/>
<path d="M11.4598 115.89L61.6709 86.6328H61.7674L11.3633 115.794L11.4598 115.89Z" fill="#F7D7AC"/>
<path d="M11.9423 116.179L62.1533 86.9219H62.2498L11.8457 116.083L11.9423 116.179Z" fill="#F7D7AC"/>
<path d="M11.7507 116.083L61.8652 86.7285L62.0583 86.8251L11.5576 115.89L11.7507 116.083Z" fill="#F7D7AC"/>
<path d="M9.4325 114.731L59.6435 85.4736H59.7401L9.33594 114.635L9.4325 114.731Z" fill="#F7D7AC"/>
<path d="M9.91492 115.02L60.1259 85.7627H60.2225L9.81836 114.924L9.91492 115.02Z" fill="#F7D7AC"/>
<path d="M9.7234 114.828L59.8379 85.5703L60.031 85.6669L9.53027 114.731L9.7234 114.828Z" fill="#F7D7AC"/>
<path d="M12.5228 116.469L62.3476 87.0186L62.8304 87.3082L12.04 116.18L12.5228 116.469Z" fill="#F7D7AC"/>
<path d="M8.85449 114.347L59.1621 85.1855L59.5483 85.3786L9.24074 114.54L8.85449 114.347Z" fill="#F7D7AC"/>
<path d="M15.1298 118.014L65.4373 88.7568L15.0332 117.918L15.1298 118.014Z" fill="#F7D7AC"/>
<path d="M14.9373 117.917L65.0517 88.5625L65.2448 88.659L14.7441 117.723L14.9373 117.917Z" fill="#F7D7AC"/>
<path d="M15.7094 118.304L65.5341 88.8535L66.0169 89.1432L15.2266 118.015L15.7094 118.304Z" fill="#F7D7AC"/>
<path d="M15.6123 115.891L16.3848 116.857L15.6123 118.016L8.56348 113.96V111.739L13.6811 113.477L15.6123 115.891Z" fill="#EFC58B"/>
<path d="M66.0164 88.9514L15.6123 118.016V115.891L36.2761 101.021L66.0164 86.7305V88.9514Z" fill="#C79D5C"/>
<path d="M66.0165 86.7303L15.6123 115.891L8.56348 111.739L58.9676 82.6748L66.0165 86.7303Z" fill="#F7E6BB"/>
<path d="M10.1094 112.706L60.417 83.4482L61.5757 84.1242L11.1715 113.285L10.1094 112.706Z" fill="#F7D7AC"/>
<path d="M13.874 114.83L64.0851 85.5723L64.6644 85.9585L14.2603 115.12L13.874 114.83Z" fill="#F7D7AC"/>
<path d="M12.7168 114.154L62.9278 84.9932L63.6037 85.2828L13.1996 114.444L12.7168 114.154Z" fill="#F7D7AC"/>
<path d="M14.5508 115.216L64.7618 86.0547L64.9549 86.1513L14.6473 115.312L14.5508 115.216Z" fill="#F7D7AC"/>
<path d="M13.4883 114.636L63.7959 85.3779L63.8924 85.4745L13.5848 114.732L13.4883 114.636Z" fill="#F7D7AC"/>
<path d="M11.4598 113.477L61.6709 84.2197L61.7674 84.3163L11.3633 113.381L11.4598 113.477Z" fill="#F7D7AC"/>
<path d="M11.9423 113.766L62.1533 84.5088L62.2498 84.6054L11.8457 113.67L11.9423 113.766Z" fill="#F7D7AC"/>
<path d="M11.7507 113.671L61.8652 84.3164L62.0583 84.413L11.5576 113.477L11.7507 113.671Z" fill="#F7D7AC"/>
<path d="M9.4325 112.318L59.6435 83.0605H59.7401L9.33594 112.222L9.4325 112.318Z" fill="#F7D7AC"/>
<path d="M9.91492 112.607L60.1259 83.3496H60.2225L9.81836 112.511L9.91492 112.607Z" fill="#F7D7AC"/>
<path d="M9.7234 112.511L59.8379 83.1572L60.031 83.2538L9.53027 112.318L9.7234 112.511Z" fill="#F7D7AC"/>
<path d="M12.5228 114.057L62.3476 84.6064L62.8304 84.8961L12.04 113.767L12.5228 114.057Z" fill="#F7D7AC"/>
<path d="M8.85449 111.933L59.1621 82.7725L59.5483 82.9656L9.24074 112.127L8.85449 111.933Z" fill="#F7D7AC"/>
<path d="M15.1298 115.601L65.4373 86.3438V86.4403L15.0332 115.505L15.1298 115.601Z" fill="#F7D7AC"/>
<path d="M14.9373 115.505L65.0517 86.1504L65.2448 86.3435L14.7441 115.311L14.9373 115.505Z" fill="#F7D7AC"/>
<path d="M15.7094 115.891L65.5341 86.4404L66.0169 86.7301L15.2266 115.601L15.7094 115.891Z" fill="#F7D7AC"/>
<path d="M15.6123 113.476L16.3848 114.442L15.6123 115.697L8.56348 111.545V109.421L13.6811 111.062L15.6123 113.476Z" fill="#EFC58B"/>
<path d="M66.0164 86.5373L15.6123 115.698V113.477L36.2761 98.6073L66.0164 84.3164V86.5373Z" fill="#C79D5C"/>
<path d="M66.0165 84.3162L15.6123 113.477L8.56348 109.422L58.9676 80.2607L66.0165 84.3162Z" fill="#F7E6BB"/>
<path d="M10.1094 110.291L60.417 81.0332L61.5757 81.8057L11.1715 110.87L10.1094 110.291Z" fill="#F7D7AC"/>
<path d="M13.874 112.415L64.0851 83.1572L64.6644 83.5435L14.2603 112.704L13.874 112.415Z" fill="#F7D7AC"/>
<path d="M12.7168 111.836L62.9278 82.5781L63.6037 82.8678L13.1996 112.029L12.7168 111.836Z" fill="#F7D7AC"/>
<path d="M14.5508 112.802L64.7618 83.6406L64.9549 83.7372L14.6473 112.898L14.5508 112.802Z" fill="#F7D7AC"/>
<path d="M13.4883 112.222L63.7959 83.0605L63.8924 83.1571L13.5848 112.318L13.4883 112.222Z" fill="#F7D7AC"/>
<path d="M11.4598 111.062L61.6709 81.8047L61.7674 81.9012L11.3633 110.966L11.4598 111.062Z" fill="#F7D7AC"/>
<path d="M11.9423 111.352L62.1533 82.0947L62.2498 82.1913L11.8457 111.256L11.9423 111.352Z" fill="#F7D7AC"/>
<path d="M11.7507 111.256L61.8652 81.9014L62.0583 82.0945L11.5576 111.062L11.7507 111.256Z" fill="#F7D7AC"/>
<path d="M9.4325 109.903L59.6435 80.6455L59.7401 80.7421L9.33594 109.807L9.4325 109.903Z" fill="#F7D7AC"/>
<path d="M9.91492 110.193L60.1259 80.9355L60.2225 81.0321L9.81836 110.097L9.91492 110.193Z" fill="#F7D7AC"/>
<path d="M9.7234 110.097L59.8379 80.7432L60.031 80.8397L9.53027 109.904L9.7234 110.097Z" fill="#F7D7AC"/>
<path d="M12.5228 111.642L62.3476 82.1914L62.8304 82.4811L12.04 111.352L12.5228 111.642Z" fill="#F7D7AC"/>
<path d="M8.85449 109.518L59.1621 80.3574L59.5483 80.6471L9.24074 109.712L8.85449 109.518Z" fill="#F7D7AC"/>
<path d="M15.1298 113.187L65.4373 83.9297V84.0263L15.0332 113.091L15.1298 113.187Z" fill="#F7D7AC"/>
<path d="M14.9373 113.089L65.0517 83.7354L65.2448 83.9285L14.7441 112.896L14.9373 113.089Z" fill="#F7D7AC"/>
<path d="M15.7094 113.476L65.5341 84.0254L66.0169 84.3151L15.2266 113.186L15.7094 113.476Z" fill="#F7D7AC"/>
<path d="M15.6123 111.062L16.3848 112.028L15.6123 113.283L8.56348 109.131V107.007L13.6811 108.648L15.6123 111.062Z" fill="#EFC58B"/>
<path d="M66.0164 84.1224L15.6123 113.283V111.063L36.2761 96.1923L66.0164 81.998V84.1224Z" fill="#C79D5C"/>
<path d="M66.0165 81.9987L15.6123 111.063L8.56348 107.008L58.9676 77.8467L66.0165 81.9987Z" fill="#F7E6BB"/>
<path d="M10.1094 107.876L60.417 78.7148L61.5757 79.3908L11.1715 108.455L10.1094 107.876Z" fill="#F7D7AC"/>
<path d="M13.874 110L64.0851 80.8389L64.6644 81.1285L14.2603 110.29L13.874 110Z" fill="#F7D7AC"/>
<path d="M12.7168 109.422L62.9278 80.1641L63.6037 80.5503L13.1996 109.615L12.7168 109.422Z" fill="#F7D7AC"/>
<path d="M14.5508 110.484L64.7618 81.2266L64.9549 81.3231L14.6473 110.484H14.5508Z" fill="#F7D7AC"/>
<path d="M13.4883 109.808L63.7959 80.6465L63.8924 80.743L13.5848 109.904L13.4883 109.808Z" fill="#F7D7AC"/>
<path d="M11.4598 108.648L61.6709 79.4873H61.7674L11.3633 108.648H11.4598Z" fill="#F7D7AC"/>
<path d="M11.9423 108.938L62.1533 79.6807L62.2498 79.7772L11.8457 108.938H11.9423Z" fill="#F7D7AC"/>
<path d="M11.7507 108.841L61.8652 79.4873L62.0583 79.6804L11.5576 108.648L11.7507 108.841Z" fill="#F7D7AC"/>
<path d="M9.4325 107.49L59.6435 78.2324L59.7401 78.329L9.33594 107.393L9.4325 107.49Z" fill="#F7D7AC"/>
<path d="M9.91492 107.779L60.1259 78.5215L60.2225 78.618L9.81836 107.683L9.91492 107.779Z" fill="#F7D7AC"/>
<path d="M9.7234 107.683L59.8379 78.3291L60.031 78.5222L9.53027 107.49L9.7234 107.683Z" fill="#F7D7AC"/>
<path d="M12.5228 109.229L62.3476 79.7783L62.8304 80.068L12.04 108.939L12.5228 109.229Z" fill="#F7D7AC"/>
<path d="M8.85449 107.105L59.1621 77.9443L59.5483 78.234L9.24074 107.395L8.85449 107.105Z" fill="#F7D7AC"/>
<path d="M15.1298 110.773L65.4373 81.6123L15.0332 110.773H15.1298Z" fill="#F7D7AC"/>
<path d="M14.9373 110.675L65.0517 81.3213L65.2448 81.5144L14.7441 110.579L14.9373 110.675Z" fill="#F7D7AC"/>
<path d="M15.7094 111.063L65.5341 81.6123L66.0169 81.902L15.2266 110.773L15.7094 111.063Z" fill="#F7D7AC"/>
<path d="M15.6123 108.65L16.3848 109.616L15.6123 110.871L8.56348 106.719V104.595L13.6811 106.236L15.6123 108.65Z" fill="#EFC58B"/>
<path d="M66.0164 81.7093L15.6123 110.87V108.649L36.2761 93.7792L66.0164 79.585V81.7093Z" fill="#C79D5C"/>
<path d="M66.0165 79.5847L15.6123 108.649L8.56348 104.594L58.9676 75.4326L66.0165 79.5847Z" fill="#F7E6BB"/>
<path d="M10.1094 105.462L60.417 76.3008L61.5757 76.9767L11.1715 106.041L10.1094 105.462Z" fill="#F7D7AC"/>
<path d="M13.874 107.587L64.0851 78.4258L64.6644 78.7154L14.2603 107.876L13.874 107.587Z" fill="#F7D7AC"/>
<path d="M12.7168 107.009L62.9278 77.751L63.6037 78.1372L13.1996 107.202L12.7168 107.009Z" fill="#F7D7AC"/>
<path d="M14.5508 108.07L64.7618 78.8125L64.9549 78.9091L14.6473 108.07H14.5508Z" fill="#F7D7AC"/>
<path d="M13.4883 107.394L63.7959 78.2334L63.8924 78.33L13.5848 107.491L13.4883 107.394Z" fill="#F7D7AC"/>
<path d="M11.4598 106.235L61.6709 76.9775L61.7674 77.0741L11.3633 106.235H11.4598Z" fill="#F7D7AC"/>
<path d="M11.9423 106.525L62.1533 77.2676L62.2498 77.3641L11.8457 106.525H11.9423Z" fill="#F7D7AC"/>
<path d="M11.7507 106.428L61.8652 77.0742L62.0583 77.2673L11.5576 106.235L11.7507 106.428Z" fill="#F7D7AC"/>
<path d="M9.4325 105.076L59.6435 75.8184L59.7401 75.9149L9.33594 104.979L9.4325 105.076Z" fill="#F7D7AC"/>
<path d="M9.91492 105.366L60.1259 76.1084L60.2225 76.205L9.81836 105.269L9.91492 105.366Z" fill="#F7D7AC"/>
<path d="M9.7234 105.27L59.8379 75.916L60.031 76.1091L9.53027 105.077L9.7234 105.27Z" fill="#F7D7AC"/>
<path d="M12.5228 106.815L62.3476 77.3643L62.8304 77.6539L12.04 106.525L12.5228 106.815Z" fill="#F7D7AC"/>
<path d="M8.85449 104.691L59.1621 75.5303L59.5483 75.8199L9.24074 104.981L8.85449 104.691Z" fill="#F7D7AC"/>
<path d="M15.1298 108.359L65.4373 79.1982L15.0332 108.359H15.1298Z" fill="#F7D7AC"/>
<path d="M14.9373 108.262L65.0517 78.9082L65.2448 79.1013L14.7441 108.166L14.9373 108.262Z" fill="#F7D7AC"/>
<path d="M15.7094 108.649L65.5341 79.1982L66.0169 79.4879L15.2266 108.359L15.7094 108.649Z" fill="#F7D7AC"/>
<path d="M15.6123 106.234L16.3848 107.296L15.6123 108.455L8.56348 104.4V102.179L13.6811 103.82L15.6123 106.234Z" fill="#EFC58B"/>
<path d="M66.0164 79.2942L15.6123 108.455V106.234L36.2761 91.3642L66.0164 77.1699V79.2942Z" fill="#C79D5C"/>
<path d="M66.0165 77.1706L15.6123 106.235L8.56348 102.18L58.9676 73.0186L66.0165 77.1706Z" fill="#F7E6BB"/>
<path d="M10.1094 103.048L60.417 73.8867L61.5757 74.5626L11.1715 103.724L10.1094 103.048Z" fill="#F7D7AC"/>
<path d="M13.874 105.172L64.0851 76.0107L64.6644 76.3004L14.2603 105.461L13.874 105.172Z" fill="#F7D7AC"/>
<path d="M12.7168 104.594L62.9278 75.3359L63.6037 75.7222L13.1996 104.787L12.7168 104.594Z" fill="#F7D7AC"/>
<path d="M14.5508 105.656L64.7618 76.3984L64.9549 76.495L14.6473 105.656H14.5508Z" fill="#F7D7AC"/>
<path d="M13.4883 105.076L63.7959 75.8184L63.8924 75.9149L13.5848 105.076H13.4883Z" fill="#F7D7AC"/>
<path d="M11.4598 103.82L61.6709 74.6592H61.7674L11.3633 103.82H11.4598Z" fill="#F7D7AC"/>
<path d="M11.9423 104.11L62.1533 74.9492H62.2498L11.8457 104.11H11.9423Z" fill="#F7D7AC"/>
<path d="M11.7507 104.013L61.8652 74.6592L62.0583 74.8523L11.5576 103.917L11.7507 104.013Z" fill="#F7D7AC"/>
<path d="M9.4325 102.662L59.6435 73.4043L59.7401 73.5009L9.33594 102.662H9.4325Z" fill="#F7D7AC"/>
<path d="M9.91492 102.951L60.1259 73.6934L60.2225 73.7899L9.81836 102.854L9.91492 102.951Z" fill="#F7D7AC"/>
<path d="M9.7234 102.855L59.8379 73.501L60.031 73.6941L9.53027 102.662L9.7234 102.855Z" fill="#F7D7AC"/>
<path d="M12.5228 104.4L62.3476 74.9492L62.8304 75.2389L12.04 104.11L12.5228 104.4Z" fill="#F7D7AC"/>
<path d="M8.85449 102.276L59.1621 73.1152L59.5483 73.4049L9.24074 102.566L8.85449 102.276Z" fill="#F7D7AC"/>
<path d="M15.1298 105.944L65.4373 76.7832L15.0332 105.944H15.1298Z" fill="#F7D7AC"/>
<path d="M14.9373 105.848L65.0517 76.5908L65.2448 76.6874L14.7441 105.752L14.9373 105.848Z" fill="#F7D7AC"/>
<path d="M15.7094 106.33L65.5341 76.7832L66.0169 77.0729L15.2266 106.041L15.7094 106.33Z" fill="#F7D7AC"/>
<path d="M15.6123 103.82L16.3848 104.882L15.6123 106.041L8.56348 101.986V99.7646L13.6811 101.503L15.6123 103.82Z" fill="#EFC58B"/>
<path d="M66.0164 76.9777L15.6123 106.042V103.821L36.2761 88.9511L66.0164 74.7568V76.9777Z" fill="#C79D5C"/>
<path d="M66.0165 74.7565L15.6123 103.821L8.56348 99.7655L58.9676 70.6045L66.0165 74.7565Z" fill="#F7E6BB"/>
<path d="M10.1094 100.729L60.417 71.4717L61.5757 72.1476L11.1715 101.309L10.1094 100.729Z" fill="#F7D7AC"/>
<path d="M13.874 102.853L64.0851 73.5957L64.6644 73.8854L14.2603 103.046L13.874 102.853Z" fill="#F7D7AC"/>
<path d="M12.7168 102.178L62.9278 72.9209L63.6037 73.3071L13.1996 102.468L12.7168 102.178Z" fill="#F7D7AC"/>
<path d="M14.5508 103.241L64.7618 73.9834L64.9549 74.08L14.6473 103.241H14.5508Z" fill="#F7D7AC"/>
<path d="M13.4883 102.662L63.7959 73.4043L63.8924 73.5009L13.5848 102.662H13.4883Z" fill="#F7D7AC"/>
<path d="M11.4598 101.405L61.6709 72.2441H61.7674L11.3633 101.405H11.4598Z" fill="#F7D7AC"/>
<path d="M11.9423 101.696L62.1533 72.5352H62.2498L11.8457 101.696H11.9423Z" fill="#F7D7AC"/>
<path d="M11.7507 101.599L61.8652 72.3418L62.0583 72.4384L11.5576 101.503L11.7507 101.599Z" fill="#F7D7AC"/>
<path d="M9.4325 100.247L59.6435 71.0859H59.7401L9.33594 100.247H9.4325Z" fill="#F7D7AC"/>
<path d="M9.91492 100.538L60.1259 71.377H60.2225L9.81836 100.538H9.91492Z" fill="#F7D7AC"/>
<path d="M9.7234 100.44L59.8379 71.0859L60.031 71.279L9.53027 100.344L9.7234 100.44Z" fill="#F7D7AC"/>
<path d="M12.5228 102.082L62.3476 72.6309L62.8304 72.824L12.04 101.792L12.5228 102.082Z" fill="#F7D7AC"/>
<path d="M8.85449 99.9597L59.1621 70.7021L59.5483 70.9918L9.24074 100.153L8.85449 99.9597Z" fill="#F7D7AC"/>
<path d="M15.1298 103.627L65.4373 74.3691L15.0332 103.53L15.1298 103.627Z" fill="#F7D7AC"/>
<path d="M14.9373 103.433L65.0517 74.1758L65.2448 74.2723L14.7441 103.337L14.9373 103.433Z" fill="#F7D7AC"/>
<path d="M15.7094 103.917L65.5341 74.4658L66.0169 74.6589L15.2266 103.627L15.7094 103.917Z" fill="#F7D7AC"/>
<path d="M18.123 101.214L18.7989 102.179L18.123 103.338L10.9775 99.2824V97.0615L16.0952 98.7996L18.123 101.214Z" fill="#EFC58B"/>
<path d="M68.5272 74.2736L18.123 103.338V101.214L38.6903 86.247L68.5272 72.0527V74.2736Z" fill="#C79D5C"/>
<path d="M68.5271 72.0536L18.123 101.215L10.9775 97.0625L61.4783 67.998L68.5271 72.0536Z" fill="#F7E6BB"/>
<path d="M12.6182 98.0261L62.8292 68.7686L63.9879 69.4445L13.6803 98.6055L12.6182 98.0261Z" fill="#F7D7AC"/>
<path d="M16.2871 100.151L66.4981 70.8936L67.0775 71.2798L16.6734 100.344L16.2871 100.151Z" fill="#F7D7AC"/>
<path d="M15.2246 99.4753L65.4356 70.2178L66.015 70.604L15.6108 99.765L15.2246 99.4753Z" fill="#F7D7AC"/>
<path d="M17.0586 100.538L67.2696 71.2803L67.3662 71.3768L17.0586 100.634V100.538Z" fill="#F7D7AC"/>
<path d="M15.998 99.9578L66.2091 70.7002L66.4022 70.7967L16.0946 99.9578H15.998Z" fill="#F7D7AC"/>
<path d="M13.9686 98.7996L64.1797 69.542L13.8721 98.703L13.9686 98.7996Z" fill="#F7D7AC"/>
<path d="M14.453 99.0896L64.664 69.832H64.7606L14.3564 98.9931L14.453 99.0896Z" fill="#F7D7AC"/>
<path d="M14.2594 98.9938L64.2773 69.6396L64.567 69.7362L13.9697 98.8006L14.2594 98.9938Z" fill="#F7D7AC"/>
<path d="M11.9421 97.5438L62.1532 68.3828L11.749 97.5438H11.9421Z" fill="#F7D7AC"/>
<path d="M12.4237 97.8339L62.6347 68.6729L12.3271 97.8339H12.4237Z" fill="#F7D7AC"/>
<path d="M12.2321 97.7381L62.25 68.4805L62.5396 68.577L11.9424 97.6415L12.2321 97.7381Z" fill="#F7D7AC"/>
<path d="M14.9349 99.3784L64.7597 69.9277L65.2425 70.1209L14.4521 99.0888L14.9349 99.3784Z" fill="#F7D7AC"/>
<path d="M11.2666 97.2547L61.5742 67.9971L62.057 68.2868L11.6528 97.4478L11.2666 97.2547Z" fill="#F7D7AC"/>
<path d="M17.6376 100.925L67.8486 71.667H67.9452L17.541 100.828L17.6376 100.925Z" fill="#F7D7AC"/>
<path d="M17.445 100.827L67.4628 71.4727L67.7525 71.5692L17.1553 100.634L17.445 100.827Z" fill="#F7D7AC"/>
<path d="M18.1215 101.213L67.9463 71.7627L68.429 72.0524L17.6387 100.924L18.1215 101.213Z" fill="#F7D7AC"/>
<path d="M25.1719 122.458L25.8478 123.52L25.1719 124.679L18.123 120.623V118.402L23.2407 120.14L25.1719 122.458Z" fill="#EFC58B"/>
<path d="M75.576 95.6154L25.1719 124.68V122.459L45.7391 107.589L75.576 93.3945V95.6154Z" fill="#C79D5C"/>
<path d="M75.576 93.3944L25.1719 122.459L18.123 118.403L68.5272 89.3389L75.576 93.3944Z" fill="#F7E6BB"/>
<path d="M19.6689 119.37L69.88 90.1123L71.1353 90.7882L20.7311 119.949L19.6689 119.37Z" fill="#F7D7AC"/>
<path d="M23.3379 121.493L73.5489 92.2354L74.2248 92.525L23.8207 121.686L23.3379 121.493Z" fill="#F7D7AC"/>
<path d="M22.2754 120.818L72.4864 91.5605L73.0658 91.9468L22.6616 121.108L22.2754 120.818Z" fill="#F7D7AC"/>
<path d="M24.1104 121.881L74.3214 92.623L74.5145 92.7196L24.2069 121.881H24.1104Z" fill="#F7D7AC"/>
<path d="M23.0498 121.301L73.2608 92.043L73.454 92.1395L23.1464 121.301H23.0498Z" fill="#F7D7AC"/>
<path d="M21.0204 120.141L71.2314 90.8838H71.328L20.9238 120.045L21.0204 120.141Z" fill="#F7D7AC"/>
<path d="M21.5038 120.337L71.7148 91.1758H71.8114L21.4072 120.337H21.5038Z" fill="#F7D7AC"/>
<path d="M21.3112 120.239L71.3291 90.9814L71.6188 91.078L21.0215 120.142L21.3112 120.239Z" fill="#F7D7AC"/>
<path d="M18.9921 118.887L69.2031 89.7256H69.2996L18.8955 118.887H18.9921Z" fill="#F7D7AC"/>
<path d="M19.4764 119.178L69.6875 90.0166H69.784L19.3799 119.178H19.4764Z" fill="#F7D7AC"/>
<path d="M19.2838 119.08L69.3017 89.8223L69.5914 89.9188L18.9941 118.983L19.2838 119.08Z" fill="#F7D7AC"/>
<path d="M21.9867 120.721L71.8115 91.2705L72.2943 91.4636L21.5039 120.432L21.9867 120.721Z" fill="#F7D7AC"/>
<path d="M18.3174 118.595L68.625 89.3379L69.1078 89.6276L18.7036 118.789L18.3174 118.595Z" fill="#F7D7AC"/>
<path d="M24.6903 122.266L74.9013 93.0088H74.9979L24.5938 122.17L24.6903 122.266Z" fill="#F7D7AC"/>
<path d="M24.4977 122.073L74.6121 92.8154L74.8053 92.912L24.208 121.976L24.4977 122.073Z" fill="#F7D7AC"/>
<path d="M25.1732 122.556L75.0946 93.1055L75.4808 93.2986L24.6904 122.266L25.1732 122.556Z" fill="#F7D7AC"/>
<path d="M25.1719 120.14L25.8478 121.106L25.1719 122.265L18.123 118.209V115.988L23.2407 117.726L25.1719 120.14Z" fill="#EFC58B"/>
<path d="M75.575 93.2004L25.1709 122.265V120.14L45.7381 105.174L75.575 90.9795V93.2004Z" fill="#C79D5C"/>
<path d="M75.577 90.9793L25.1729 120.14L18.124 115.988L68.5282 86.9238L75.577 90.9793Z" fill="#F7E6BB"/>
<path d="M19.6689 116.954L69.88 87.6963L71.1353 88.3722L20.7311 117.533L19.6689 116.954Z" fill="#F7D7AC"/>
<path d="M23.3379 119.079L73.5489 89.8213L74.2248 90.2075L23.8207 119.272L23.3379 119.079Z" fill="#F7D7AC"/>
<path d="M22.2754 118.402L72.4864 89.2412L73.0658 89.5309L22.6616 118.692L22.2754 118.402Z" fill="#F7D7AC"/>
<path d="M24.1104 119.464L74.3214 90.2061L74.5145 90.3026L24.2069 119.56L24.1104 119.464Z" fill="#F7D7AC"/>
<path d="M23.0498 118.885L73.2608 89.627L73.454 89.7235L23.1464 118.885H23.0498Z" fill="#F7D7AC"/>
<path d="M21.0204 117.726L71.2314 88.4688H71.328L20.9238 117.63L21.0204 117.726Z" fill="#F7D7AC"/>
<path d="M21.5038 118.015L71.7148 88.7578H71.8114L21.4072 117.919L21.5038 118.015Z" fill="#F7D7AC"/>
<path d="M21.3112 117.919L71.3291 88.5645L71.6188 88.661L21.0215 117.725L21.3112 117.919Z" fill="#F7D7AC"/>
<path d="M18.9921 116.567L69.2031 87.3096H69.2996L18.8955 116.471L18.9921 116.567Z" fill="#F7D7AC"/>
<path d="M19.4764 116.76L69.6875 87.5986H69.784L19.3799 116.76H19.4764Z" fill="#F7D7AC"/>
<path d="M19.2838 116.664L69.3017 87.4062L69.5914 87.5028L18.9941 116.567L19.2838 116.664Z" fill="#F7D7AC"/>
<path d="M21.9867 118.305L71.8115 88.8545L72.2943 89.1442L21.5039 118.016L21.9867 118.305Z" fill="#F7D7AC"/>
<path d="M18.3174 116.181L68.625 87.0195L69.1078 87.2126L18.7036 116.374L18.3174 116.181Z" fill="#F7D7AC"/>
<path d="M24.6903 119.85L74.9013 90.5928H74.9979L24.5938 119.754L24.6903 119.85Z" fill="#F7D7AC"/>
<path d="M24.4977 119.753L74.6121 90.3984L74.8053 90.495L24.208 119.559L24.4977 119.753Z" fill="#F7D7AC"/>
<path d="M25.1732 120.14L75.0946 90.6895L75.4808 90.9791L24.6904 119.85L25.1732 120.14Z" fill="#F7D7AC"/>
<path d="M25.1719 117.725L25.8478 118.691L25.1719 119.85L18.123 115.794V113.573L23.2407 115.311L25.1719 117.725Z" fill="#EFC58B"/>
<path d="M75.575 90.7863L25.1709 119.851V117.726L45.7381 102.856L75.575 88.5654V90.7863Z" fill="#C79D5C"/>
<path d="M75.577 88.5653L25.1729 117.726L18.124 113.574L68.5282 84.5098L75.577 88.5653Z" fill="#F7E6BB"/>
<path d="M19.6689 114.54L69.88 85.2822L71.1353 85.9582L20.7311 115.119L19.6689 114.54Z" fill="#F7D7AC"/>
<path d="M23.3379 116.664L73.5489 87.4062L74.2248 87.7925L23.8207 116.857L23.3379 116.664Z" fill="#F7D7AC"/>
<path d="M22.2754 115.988L72.4864 86.8271L73.0658 87.1168L22.6616 116.278L22.2754 115.988Z" fill="#F7D7AC"/>
<path d="M24.1104 117.05L74.3214 87.8887L74.5145 87.9852L24.2069 117.146L24.1104 117.05Z" fill="#F7D7AC"/>
<path d="M23.0498 116.47L73.2608 87.2119L73.454 87.3085L23.1464 116.566L23.0498 116.47Z" fill="#F7D7AC"/>
<path d="M21.0204 115.311L71.2314 86.0537L71.328 86.1503L20.9238 115.215L21.0204 115.311Z" fill="#F7D7AC"/>
<path d="M21.5038 115.601L71.7148 86.3438L71.8114 86.4403L21.4072 115.505L21.5038 115.601Z" fill="#F7D7AC"/>
<path d="M21.3112 115.505L71.3291 86.1504L71.6188 86.2469L21.0215 115.311L21.3112 115.505Z" fill="#F7D7AC"/>
<path d="M18.9921 114.152L69.2031 84.8945H69.2996L18.8955 114.056L18.9921 114.152Z" fill="#F7D7AC"/>
<path d="M19.4764 114.441L69.6875 85.1836H69.784L19.3799 114.345L19.4764 114.441Z" fill="#F7D7AC"/>
<path d="M19.2838 114.346L69.3017 84.9922L69.5914 85.0888L18.9941 114.153L19.2838 114.346Z" fill="#F7D7AC"/>
<path d="M21.9867 115.891L71.8115 86.4404L72.2943 86.7301L21.5039 115.601L21.9867 115.891Z" fill="#F7D7AC"/>
<path d="M18.3174 113.766L68.625 84.6055L69.1078 84.7986L18.7036 113.96L18.3174 113.766Z" fill="#F7D7AC"/>
<path d="M24.6903 117.436L74.9013 88.1787L74.9979 88.2753L24.5938 117.34L24.6903 117.436Z" fill="#F7D7AC"/>
<path d="M24.4977 117.339L74.6121 87.9844L74.8053 88.1775L24.208 117.145L24.4977 117.339Z" fill="#F7D7AC"/>
<path d="M25.1732 117.725L75.0946 88.2744L75.4808 88.5641L24.6904 117.435L25.1732 117.725Z" fill="#F7D7AC"/>
<path d="M25.1719 115.313L25.8478 116.279L25.1719 117.534L18.123 113.382V111.258L23.2407 112.899L25.1719 115.313Z" fill="#EFC58B"/>
<path d="M75.575 88.3732L25.1709 117.534V115.313L45.7381 100.443L75.575 86.1523V88.3732Z" fill="#C79D5C"/>
<path d="M75.577 86.1512L25.1729 115.312L18.124 111.257L68.5282 82.0957L75.577 86.1512Z" fill="#F7E6BB"/>
<path d="M19.6689 112.126L69.88 82.8682L71.1353 83.6407L20.7311 112.705L19.6689 112.126Z" fill="#F7D7AC"/>
<path d="M23.3379 114.251L73.5489 84.9932L74.2248 85.3794L23.8207 114.54L23.3379 114.251Z" fill="#F7D7AC"/>
<path d="M22.2754 113.671L72.4864 84.4131L73.0658 84.7028L22.6616 113.864L22.2754 113.671Z" fill="#F7D7AC"/>
<path d="M24.1104 114.637L74.3214 85.4756L74.5145 85.5722L24.2069 114.733L24.1104 114.637Z" fill="#F7D7AC"/>
<path d="M23.0498 114.057L73.2608 84.8955L73.454 84.9921L23.1464 114.153L23.0498 114.057Z" fill="#F7D7AC"/>
<path d="M21.0204 112.898L71.2314 83.6406L71.328 83.7372L20.9238 112.802L21.0204 112.898Z" fill="#F7D7AC"/>
<path d="M21.5038 113.187L71.7148 83.9297L71.8114 84.0263L21.4072 113.091L21.5038 113.187Z" fill="#F7D7AC"/>
<path d="M21.3112 113.09L71.3291 83.7363L71.6188 83.9294L21.0215 112.897L21.3112 113.09Z" fill="#F7D7AC"/>
<path d="M18.9921 111.738L69.2031 82.4805L69.2996 82.577L18.8955 111.641L18.9921 111.738Z" fill="#F7D7AC"/>
<path d="M19.4764 112.028L69.6875 82.7705H69.784L19.3799 111.932L19.4764 112.028Z" fill="#F7D7AC"/>
<path d="M19.2838 111.932L69.3017 82.5781L69.5914 82.6747L18.9941 111.739L19.2838 111.932Z" fill="#F7D7AC"/>
<path d="M21.9867 113.477L71.8115 84.0264L72.2943 84.316L21.5039 113.187L21.9867 113.477Z" fill="#F7D7AC"/>
<path d="M18.3174 111.352L68.625 82.1914L69.1078 82.4811L18.7036 111.546L18.3174 111.352Z" fill="#F7D7AC"/>
<path d="M24.6903 115.022L74.9013 85.7646L74.9979 85.8612L24.5938 114.926L24.6903 115.022Z" fill="#F7D7AC"/>
<path d="M24.4977 114.924L74.6121 85.5703L74.8053 85.7634L24.208 114.731L24.4977 114.924Z" fill="#F7D7AC"/>
<path d="M25.1732 115.311L75.0946 85.8604L75.4808 86.15L24.6904 115.021L25.1732 115.311Z" fill="#F7D7AC"/>
<path d="M25.1719 112.899L25.8478 113.865L25.1719 115.12L18.123 110.968V108.747L23.2407 110.485L25.1719 112.899Z" fill="#EFC58B"/>
<path d="M75.575 85.9582L25.1709 115.119V112.898L45.7381 98.0281L75.575 83.7373V85.9582Z" fill="#C79D5C"/>
<path d="M75.577 83.7372L25.1729 112.898L18.124 108.746L68.5282 79.6816L75.577 83.7372Z" fill="#F7E6BB"/>
<path d="M19.6689 109.713L69.88 80.4551L71.1353 81.131L20.7311 110.292L19.6689 109.713Z" fill="#F7D7AC"/>
<path d="M23.3379 111.837L73.5489 82.5791L74.2248 82.9653L23.8207 112.126L23.3379 111.837Z" fill="#F7D7AC"/>
<path d="M22.2754 111.16L72.4864 81.999L73.0658 82.2887L22.6616 111.45L22.2754 111.16Z" fill="#F7D7AC"/>
<path d="M24.1104 112.223L74.3214 83.0615L74.5145 83.1581L24.2069 112.319L24.1104 112.223Z" fill="#F7D7AC"/>
<path d="M23.0498 111.642L73.2608 82.4814L73.454 82.578L23.1464 111.739L23.0498 111.642Z" fill="#F7D7AC"/>
<path d="M21.0204 110.484L71.2314 81.2266L71.328 81.3231L20.9238 110.388L21.0204 110.484Z" fill="#F7D7AC"/>
<path d="M21.5038 110.773L71.7148 81.5156L71.8114 81.6122L21.4072 110.677L21.5038 110.773Z" fill="#F7D7AC"/>
<path d="M21.3112 110.676L71.3291 81.3223L71.6188 81.5154L21.0215 110.483L21.3112 110.676Z" fill="#F7D7AC"/>
<path d="M18.9921 109.325L69.2031 80.0674H69.2996L18.8955 109.228L18.9921 109.325Z" fill="#F7D7AC"/>
<path d="M19.4764 109.614L69.6875 80.3564H69.784L19.3799 109.517L19.4764 109.614Z" fill="#F7D7AC"/>
<path d="M19.2838 109.518L69.3017 80.1641L69.5914 80.2606L18.9941 109.325L19.2838 109.518Z" fill="#F7D7AC"/>
<path d="M21.9867 111.064L71.8115 81.6133L72.2943 81.9029L21.5039 110.774L21.9867 111.064Z" fill="#F7D7AC"/>
<path d="M18.3174 108.939L68.625 79.7783L69.1078 80.068L18.7036 109.132L18.3174 108.939Z" fill="#F7D7AC"/>
<path d="M24.6903 112.608L74.9013 83.3506L74.9979 83.4472L24.5938 112.512L24.6903 112.608Z" fill="#F7D7AC"/>
<path d="M24.4977 112.51L74.6121 83.1562L74.8053 83.3494L24.208 112.317L24.4977 112.51Z" fill="#F7D7AC"/>
<path d="M25.1732 112.898L75.0946 83.4473L75.4808 83.737L24.6904 112.608L25.1732 112.898Z" fill="#F7D7AC"/>
<path d="M24.1104 110.485L24.7863 111.451L24.1104 112.706L17.0615 108.554V106.43L22.1792 108.071L24.1104 110.485Z" fill="#EFC58B"/>
<path d="M74.5135 83.5441L24.1094 112.705V110.484L44.6766 95.6141L74.5135 81.3232V83.5441Z" fill="#C79D5C"/>
<path d="M74.5155 81.3241L24.1114 110.485L17.0625 106.43L67.4666 77.2686L74.5155 81.3241Z" fill="#F7E6BB"/>
<path d="M18.6064 107.298L68.8175 78.04L70.0728 78.8125L19.6686 107.877L18.6064 107.298Z" fill="#F7D7AC"/>
<path d="M22.2754 109.423L72.4864 80.165L73.1623 80.5513L22.7582 109.712L22.2754 109.423Z" fill="#F7D7AC"/>
<path d="M21.2139 108.843L71.4249 79.585L72.0043 79.9712L21.6001 109.036L21.2139 108.843Z" fill="#F7D7AC"/>
<path d="M23.0488 109.905L73.2599 80.6475L73.453 80.744L23.1454 109.905H23.0488Z" fill="#F7D7AC"/>
<path d="M21.9863 109.228L72.1973 80.0674L72.3905 80.1639L22.0829 109.325L21.9863 109.228Z" fill="#F7D7AC"/>
<path d="M19.9589 108.069L70.1699 78.8115L70.2664 78.9081L19.8623 108.069H19.9589Z" fill="#F7D7AC"/>
<path d="M20.4413 108.36L70.6523 79.1025L70.7489 79.1991L20.3447 108.264L20.4413 108.36Z" fill="#F7D7AC"/>
<path d="M20.2477 108.263L70.2656 78.9092L70.5553 79.1023L19.958 108.07L20.2477 108.263Z" fill="#F7D7AC"/>
<path d="M17.9305 106.91L68.1416 77.6523L68.2381 77.7489L17.834 106.813L17.9305 106.91Z" fill="#F7D7AC"/>
<path d="M18.413 107.201L68.624 77.9434L68.7206 78.0399L18.3164 107.104L18.413 107.201Z" fill="#F7D7AC"/>
<path d="M18.2203 107.105L68.2383 77.751L68.5279 77.8475L17.9307 106.912L18.2203 107.105Z" fill="#F7D7AC"/>
<path d="M20.9242 108.649L70.749 79.1982L71.2318 79.4879L20.4414 108.359L20.9242 108.649Z" fill="#F7D7AC"/>
<path d="M17.2539 106.525L67.5615 77.3643L68.0443 77.6539L17.6402 106.718L17.2539 106.525Z" fill="#F7D7AC"/>
<path d="M23.6278 110.195L73.8388 80.9375L73.9354 81.0341L23.5312 110.195H23.6278Z" fill="#F7D7AC"/>
<path d="M23.4342 110.097L73.5487 80.7432L73.7418 80.9363L23.1445 109.904L23.4342 110.097Z" fill="#F7D7AC"/>
<path d="M24.1098 110.484L74.0311 81.0332L74.4173 81.3229L23.627 110.194L24.1098 110.484Z" fill="#F7D7AC"/>
<path opacity="0.3" d="M60.8501 118.485H54.7246L50.2227 115.862V111.909L82.1787 93.4395H88.3043L92.8062 96.0252V100.015L60.8501 118.485Z" fill="#63CFCE"/>
<path d="M83.3229 66.4735L80.0387 68.7268L77.1973 67.8034L73.0645 65.4392L79.19 64.1094L83.3229 66.4735Z" fill="#73D9D8"/>
<path d="M90.1855 85.4981L91.4401 77.5929L85.6836 72.3105V81.3239L90.1855 85.4981Z" fill="#39A4A3"/>
<path d="M89.8159 77.4821L84.5022 68.6904L80.2217 69.2076L85.683 75.081L89.8159 77.4821Z" fill="#71D2D2"/>
<path d="M89.8149 83.7243L86.42 85.6821L82.2871 83.281L85.682 81.3232L89.8149 83.7243Z" fill="#71D2D2"/>
<path d="M92.2159 76.0799L83.3228 66.4756L77.1973 67.8054V70.6128L82.4741 69.5416L89.8173 77.4837V83.7265L86.4225 85.6843L85.7582 86.9403L86.4225 103.083L92.2159 99.7584V76.0799Z" fill="#3FAFAE"/>
<path d="M86.4216 81.6552L72.2148 73.0851L77.1964 67.8027L86.4216 78.2936V81.6552Z" fill="#3FAFAE"/>
<path d="M50.7402 74.968V78.3295L54.8731 80.6936H60.7034L77.1981 71.2001V67.8016L73.0652 65.4375H67.2349L50.7402 74.968Z" fill="#71D2D2"/>
<path d="M60.703 117.965H54.8726L51.5146 94.2862L54.8726 80.6924H60.703L67.4189 96.2071L60.703 117.965Z" fill="#63CFCE"/>
<path d="M86.423 103.078L60.7031 117.965V80.6927L77.1978 71.1992L86.423 81.6532V103.078Z" fill="#56BCBB"/>
<path d="M54.8721 117.966L50.7393 115.564V78.3291L54.8721 80.6932V117.966Z" fill="#73D9D8"/>
<path d="M82.6205 98.5758L64.5391 108.993V82.8394L76.089 76.1533L82.6205 83.5043V98.5758Z" fill="#F2F2F2"/>
<path d="M68.6357 90.3022L71.514 85.3153L75.61 82.9512L78.4883 84.6135V89.3418L75.61 94.3286L71.514 96.6928L68.6357 94.9936V90.3022Z" fill="#F4EFE9"/>
<path d="M68.083 95.5849V90.3395L71.2934 84.7985L75.8322 82.1758L79.0426 84.0228V89.2682L75.8322 94.8092L71.2934 97.4319L68.083 95.5849ZM77.9355 89.379V85.2049L75.3894 83.7273L71.7731 85.8328L69.2269 90.2656V94.4398L71.7731 95.9174L75.3894 93.8118L77.9355 89.379Z" fill="#F582FF"/>
<path d="M71.4033 90.9303L73.5805 86.3867L75.7576 88.4184V90.524L74.4661 92.7034L72.6579 93.7747L71.4033 93.0359V90.9303Z" fill="#574943"/>
<path d="M72.0312 90.1185L72.3633 89.6013L72.8062 89.3428L73.1013 89.5275V90.0077L72.8062 90.5618L72.3633 90.8204L72.0312 90.6357V90.1185Z" fill="white"/>
<path d="M82.6205 96.7298L64.5391 107.184V106.186L82.6205 95.7324V96.7298Z" fill="#F582FF"/>
<path d="M82.6205 94.6253L64.5391 105.042V104.045L82.6205 93.6279V94.6253Z" fill="#F582FF"/>
<path d="M65.4999 72.791V76.1156L62.5479 77.8148L61.5146 73.8623L65.4999 72.791Z" fill="#4AC2C1"/>
<path d="M62.5488 74.4902V77.8148H58.4159L55.4639 72.791L62.5488 74.4902Z" fill="#73D9D8"/>
<path d="M58.4159 74.4902V77.8148L55.4639 76.1156V72.791L58.4159 74.4902Z" fill="#80E4E4"/>
<path d="M55.4629 70.4248V72.789L58.415 74.4882H62.5478L65.4999 72.789V70.4248L62.5478 68.7256H58.415L55.4629 70.4248Z" fill="#CFDB77"/>
<path d="M66.5334 70.0957V74.0852L62.991 76.1538L61.7363 71.3886L66.5334 70.0957Z" fill="#6C7277"/>
<path d="M62.9887 72.1274V76.1538H57.9702L54.4277 70.0957L62.9887 72.1274Z" fill="#9DA9AC"/>
<path d="M57.9702 72.1274V76.1538L54.4277 74.0852V70.0957L57.9702 72.1274Z" fill="#9098A0"/>
<path d="M54.4287 67.2132V70.0945L57.9712 72.1262H62.9897L66.5322 70.0945V67.2132L62.9897 65.1445H57.9712L54.4287 67.2132Z" fill="#818E97"/>
<path d="M62.6221 65.6631L65.6848 67.3993V67.9903L62.6221 66.2541V65.6631Z" fill="#9098A0"/>
<path d="M62.6592 65.6631H58.3418V66.2541H62.6592V65.6631Z" fill="#9DA9AC"/>
<path d="M58.3421 66.2541L55.2793 67.9903V67.3993L58.3421 65.6631V66.2541Z" fill="#6C7277"/>
<path d="M65.6853 67.9901V69.9109L62.6226 71.6471H58.3421L55.2793 69.9109V67.9901L58.3421 66.2539H62.6226L65.6853 67.9901Z" fill="#D0D7D5"/>
<path opacity="0.3" d="M115.902 105.003L107.378 100.09H95.311L86.75 105.003V111.984L95.311 116.934H107.378L115.902 111.984V105.003Z" fill="black"/>
<path d="M87.1572 111.763L93.7625 89.7474L96.161 76.449L94.8695 73.6416L87.1572 104.967V111.763Z" fill="#C8DFE8"/>
<path d="M115.499 111.763L108.931 89.7474L106.495 76.449L107.824 73.6416L115.499 104.967V111.763Z" fill="#A1B4BF"/>
<path d="M98.6712 78.9615L97.0476 76.7451H94.8705L87.1582 111.764L95.4609 116.566L100.332 98.7612L98.6712 78.9615Z" fill="#E8F3FF"/>
<path d="M104.021 78.9615L105.644 76.7451H107.821L115.497 111.764L107.194 116.566L102.323 98.7612L104.021 78.9615Z" fill="#B4CED6"/>
<path d="M104.021 78.9614L101.327 77.1514L98.6703 78.9614L95.46 116.566H107.194L104.021 78.9614Z" fill="#C8DFE8"/>
<g opacity="0.9">
<path opacity="0.9" d="M88.335 111.134L92.8737 102.785L91.656 95.9515V91.334L88.335 104.891V111.134Z" fill="#362C29"/>
<path opacity="0.9" d="M114.314 111.134L109.849 98.7219L108.151 93.5134L110.993 91.334L114.314 104.891V111.134Z" fill="#0A0808"/>
<path opacity="0.9" d="M97.3387 99.2406L94.7557 94.2168L91.656 95.953L88.335 111.135L95.9365 115.531L99.5159 104.597L97.3387 99.2406Z" fill="#574943"/>
<path opacity="0.9" d="M105.346 99.2398L107.524 94.4746L110.992 95.9522L114.313 111.134L106.712 115.53L102.025 104.855L105.346 99.2398Z" fill="#211A1A"/>
<path opacity="0.9" d="M105.347 99.2404L100.919 95.6572L97.3397 99.2404L95.9375 115.531H106.713L105.347 99.2404Z" fill="#362C29"/>
<path opacity="0.9" d="M105.346 88.0469H97.339L91.6562 91.3345V95.952L97.339 99.2397H105.346L110.992 95.952V91.3345L105.346 88.0469Z" fill="#836E69"/>
</g>
<path d="M104.832 80.2162L105.976 79.5513L107.119 87.1978L105.976 87.8628L106.049 88.343L107.193 87.715L108.337 95.3615L107.193 95.9895L107.267 96.5067L108.411 95.8418L109.555 103.488L108.411 104.153L108.485 104.633L109.629 103.969L110.773 111.615L109.629 112.28L109.703 112.797L111.252 111.874L106.345 78.8125L104.758 79.736L104.832 80.2162Z" fill="white"/>
<path d="M107.822 65.6631V76.745L104.021 78.9614L102.692 67.0299L107.822 65.6631Z" fill="#A1B4BF"/>
<path d="M104.022 67.8425V78.9614H98.6719L94.8711 65.6631L104.022 67.8425Z" fill="#B4CED6"/>
<path d="M98.6719 67.8425V78.9614L94.8711 76.745V65.6631L98.6719 67.8425Z" fill="#C8DFE8"/>
<path opacity="0.3" d="M94.8711 66.29V67.4721L98.6719 69.6885H104.022L107.823 67.4721V66.29L104.281 68.2848L98.5243 68.2479L94.8711 66.29Z" fill="black"/>
<path d="M94.8721 62.5593V65.6623L98.6728 67.8417H104.023L107.824 65.6623V62.5593L104.023 60.3799H98.6728L94.8721 62.5593Z" fill="#FBE979"/>
<path d="M108.227 63.779L104.352 66.4017H98.3004L94.4258 63.779L98.3004 61.1932L104.352 61.1562L108.227 63.779Z" fill="#403531"/>
<path d="M107.783 62.9285V64.8864L103.835 67.0658L102.248 65.3296L103.835 61.1924L107.783 62.9285Z" fill="#A1B4BF"/>
<path d="M103.835 61.1924V67.0658H98.8532L97.4141 65.3666L98.8532 61.1924H103.835Z" fill="#B4CED6"/>
<path d="M98.8531 61.1934V67.0668L94.9785 64.9243V63.0034L98.8531 61.1934Z" fill="#C8DFE8"/>
<path opacity="0.3" d="M103.982 60.6758H98.6682L94.9043 62.8552V64.0742L95.4209 64.2959L98.8527 62.3011H103.834L107.266 64.2959L107.783 64.0742V62.8552L103.982 60.6758Z" fill="black"/>
<path d="M108.447 63.8516V66.5482L104.277 68.9493L104.166 66.1049L108.447 63.8516Z" fill="#A1B4BF"/>
<path d="M104.277 66.2896V68.9493H98.3729L94.2031 63.8516L98.6681 66.0679L104.277 66.2896Z" fill="#B4CED6"/>
<path d="M98.373 66.2526V68.9493L94.2031 66.5482V63.8516L98.373 66.2526Z" fill="#C8DFE8"/>
<path d="M104.28 58.0527H98.3758L94.2061 60.4538V63.8523L98.3758 66.2534H104.28L108.45 63.8523V60.4538L104.28 58.0527ZM103.985 65.884H98.671L95.2762 63.9262L98.4127 61.0079L104.797 61.1926L107.453 63.9262L103.985 65.884Z" fill="#E8F3FF"/>
<path d="M103.982 58.4238L107.783 60.6033V63.7062L107.414 63.8909L103.982 61.9331L103.17 60.0861L103.982 58.4238Z" fill="#C8DFE8"/>
<path d="M98.6682 61.9331L95.2364 63.8909L94.9043 63.7062V60.6033L98.6682 58.4238L99.3324 59.9384L98.6682 61.9331Z" fill="#A1B4BF"/>
<path d="M98.667 58.4238H103.981V61.9331H98.667V58.4238Z" fill="#B4CED6"/>
<defs>
<radialGradient id="paint0_radial" cx="0" cy="0" r="1" gradientUnits="userSpaceOnUse" gradientTransform="translate(182.598 141.12) rotate(-148.606) scale(230.62 208.519)">
<stop stop-color="#C4E0FF"/>
<stop offset="0.383503" stop-color="#ECF5FF"/>
<stop offset="0.832592" stop-color="#F7FBFF"/>
</radialGradient>
</defs>
</svg>
