<svg width="242" height="117" viewBox="0 0 242 117" fill="none" xmlns="http://www.w3.org/2000/svg">
<path d="M151.19 46.398C151.19 56.4381 135.751 64.589 116.697 64.589C97.6421 64.589 82.2041 56.4381 82.2041 46.398C82.2041 36.3579 97.6421 28.207 116.697 28.207C135.751 28.207 151.19 36.3579 151.19 46.398Z" fill="#75F5F4"/>
<path d="M116.697 64.1033C97.6425 64.3732 82.0965 56.4382 81.9346 46.3981L82.1505 60.8106C82.2584 70.8507 97.8584 78.7856 116.913 78.5157C135.968 78.2458 151.298 69.933 151.19 59.8929L150.974 45.4805C151.136 55.5206 135.752 63.8334 116.697 64.1033Z" fill="#61D5D4"/>
<path d="M170.552 28.2215L170.72 27.2015H169.388L169.712 25.2215H168.644L168.32 27.2015H166.976L167.3 25.2215H166.232L165.908 27.2015H164.528L164.36 28.2215H165.728L165.536 29.4215H164.168L164 30.4415H165.368L165.032 32.4215H166.1L166.436 30.4415H167.78L167.444 32.4215H168.512L168.848 30.4415H170.204L170.36 29.4215H169.016L169.208 28.2215H170.552ZM167.948 29.4215H166.604L166.796 28.2215H168.14L167.948 29.4215ZM174.612 33.1775C175.788 33.1775 176.808 32.5655 177.312 31.6175L176.196 30.9815C175.908 31.5335 175.32 31.9055 174.6 31.9055C173.544 31.9055 172.74 31.1015 172.74 30.0215C172.74 28.9415 173.544 28.1375 174.6 28.1375C175.32 28.1375 175.908 28.4975 176.172 29.0615L177.288 28.4135C176.808 27.4775 175.788 26.8655 174.612 26.8655C172.8 26.8655 171.444 28.2335 171.444 30.0215C171.444 31.7975 172.8 33.1775 174.612 33.1775ZM182.907 27.0215V27.8735C182.451 27.2495 181.743 26.8655 180.807 26.8655C179.175 26.8655 177.819 28.2335 177.819 30.0215C177.819 31.7975 179.175 33.1775 180.807 33.1775C181.743 33.1775 182.451 32.7935 182.907 32.1575V33.0215H184.203V27.0215H182.907ZM181.011 31.9415C179.931 31.9415 179.115 31.1375 179.115 30.0215C179.115 28.9055 179.931 28.1015 181.011 28.1015C182.091 28.1015 182.907 28.9055 182.907 30.0215C182.907 31.1375 182.091 31.9415 181.011 31.9415ZM185.714 33.0215H187.01V24.2615H185.714V33.0215ZM188.514 33.0215H189.81V24.2615H188.514V33.0215ZM191.399 29.9975H195.839V28.7495H191.399V29.9975ZM202.592 31.7975V27.0215H201.296V31.7975H198.728V27.0215H197.432V33.0215H202.304V34.6295H203.576V31.7975H202.592ZM205.413 30.5735H210.189C210.213 30.4055 210.237 30.2135 210.237 30.0335C210.237 28.3055 209.013 26.8655 207.225 26.8655C205.341 26.8655 204.057 28.2455 204.057 30.0215C204.057 31.8215 205.341 33.1775 207.321 33.1775C208.497 33.1775 209.397 32.6855 209.949 31.8695L208.881 31.2455C208.593 31.6655 208.053 31.9895 207.333 31.9895C206.373 31.9895 205.617 31.5095 205.413 30.5735ZM205.401 29.5175C205.581 28.6175 206.241 28.0415 207.213 28.0415C207.993 28.0415 208.749 28.4855 208.929 29.5175H205.401ZM215.422 27.0215V29.4095H212.674V27.0215H211.378V33.0215H212.674V30.6335H215.422V33.0215H216.718V27.0215H215.422ZM222.805 27.0215H217.585V28.2695H219.553V33.0215H220.849V28.2695H222.805V27.0215ZM227.078 26.8655C226.142 26.8655 225.434 27.2495 224.978 27.8855V27.0215H223.682V35.4215H224.978V32.1695C225.434 32.7935 226.142 33.1775 227.078 33.1775C228.71 33.1775 230.066 31.8095 230.066 30.0215C230.066 28.2455 228.71 26.8655 227.078 26.8655ZM226.874 31.9415C225.794 31.9415 224.978 31.1375 224.978 30.0215C224.978 28.9055 225.794 28.1015 226.874 28.1015C227.954 28.1015 228.77 28.9055 228.77 30.0215C228.77 31.1375 227.954 31.9415 226.874 31.9415Z" fill="#8DBDEE"/>
<path d="M94.7354 101.221L94.9034 100.201H93.5714L93.8954 98.2215H92.8274L92.5034 100.201H91.1594L91.4834 98.2215H90.4154L90.0914 100.201H88.7114L88.5434 101.221H89.9114L89.7194 102.421H88.3514L88.1834 103.441H89.5514L89.2154 105.421H90.2834L90.6194 103.441H91.9634L91.6274 105.421H92.6954L93.0314 103.441H94.3874L94.5434 102.421H93.1994L93.3914 101.221H94.7354ZM92.1314 102.421H90.7874L90.9794 101.221H92.3234L92.1314 102.421ZM102.948 103.021C102.948 101.413 101.808 100.153 99.9236 99.9135V97.6215H98.6516V99.9135C96.7676 100.153 95.6276 101.413 95.6276 103.021C95.6276 104.629 96.7676 105.889 98.6516 106.129V108.421H99.9236V106.129C101.808 105.889 102.948 104.629 102.948 103.021ZM99.9236 104.893V101.149C101.052 101.353 101.664 102.085 101.664 103.021C101.664 103.957 101.052 104.689 99.9236 104.893ZM96.9116 103.021C96.9116 102.085 97.5356 101.353 98.6516 101.149V104.893C97.5356 104.689 96.9116 103.957 96.9116 103.021ZM108.464 100.021L105.392 103.825V100.021H104.12V106.021H105.116L108.188 102.205V106.021H109.46V100.021H108.464ZM115.008 100.021V102.409H112.26V100.021H110.964V106.021H112.26V103.633H115.008V106.021H116.304V100.021H115.008ZM122.559 100.021V100.873C122.103 100.249 121.395 99.8655 120.459 99.8655C118.827 99.8655 117.471 101.233 117.471 103.021C117.471 104.797 118.827 106.177 120.459 106.177C121.395 106.177 122.103 105.793 122.559 105.157V106.021H123.855V100.021H122.559ZM120.663 104.941C119.583 104.941 118.767 104.137 118.767 103.021C118.767 101.905 119.583 101.101 120.663 101.101C121.743 101.101 122.559 101.905 122.559 103.021C122.559 104.137 121.743 104.941 120.663 104.941ZM129.41 100.021V102.409H126.662V100.021H125.366V106.021H126.662V103.633H129.41V106.021H130.706V100.021H129.41ZM135.042 106.177C136.218 106.177 137.238 105.565 137.742 104.617L136.626 103.981C136.338 104.533 135.75 104.905 135.03 104.905C133.974 104.905 133.17 104.101 133.17 103.021C133.17 101.941 133.974 101.137 135.03 101.137C135.75 101.137 136.338 101.497 136.602 102.061L137.718 101.413C137.238 100.477 136.218 99.8655 135.042 99.8655C133.23 99.8655 131.874 101.233 131.874 103.021C131.874 104.797 133.23 106.177 135.042 106.177ZM141.33 102.061H140.01V100.021H138.714V106.021H141.33C142.602 106.021 143.514 105.217 143.514 104.041C143.514 102.853 142.602 102.061 141.33 102.061ZM144.234 100.021V106.021H145.53V100.021H144.234ZM141.342 104.857H140.01V103.225H141.342C141.846 103.225 142.242 103.537 142.242 104.041C142.242 104.533 141.846 104.857 141.342 104.857Z" fill="#8DBDEE"/>
<path d="M182.977 77.2215L183.145 76.2015H181.813L182.137 74.2215H181.069L180.745 76.2015H179.401L179.725 74.2215H178.657L178.333 76.2015H176.953L176.785 77.2215H178.153L177.961 78.4215H176.593L176.425 79.4415H177.793L177.457 81.4215H178.525L178.861 79.4415H180.205L179.869 81.4215H180.937L181.273 79.4415H182.629L182.785 78.4215H181.441L181.633 77.2215H182.977ZM180.373 78.4215H179.029L179.221 77.2215H180.565L180.373 78.4215ZM188.261 82.1775C189.809 82.1775 191.177 81.3855 191.873 80.1615L190.673 79.4775C190.241 80.3055 189.317 80.8335 188.261 80.8335C186.449 80.8335 185.249 79.5495 185.249 77.8215C185.249 76.0935 186.449 74.8095 188.261 74.8095C189.317 74.8095 190.229 75.3375 190.673 76.1655L191.873 75.4695C191.165 74.2455 189.797 73.4655 188.261 73.4655C185.705 73.4655 183.869 75.3855 183.869 77.8215C183.869 80.2575 185.705 82.1775 188.261 82.1775ZM197.808 82.0215H199.32L197.412 78.7575C198.396 78.3615 199.08 77.4015 199.08 76.3215C199.08 74.8215 197.88 73.6215 196.38 73.6215H193.02V82.0215H194.4V78.9615H196.032L197.808 82.0215ZM194.4 74.9175H196.38C197.112 74.9175 197.7 75.5295 197.7 76.3215C197.7 77.1015 197.112 77.7255 196.38 77.7255H194.4V74.9175ZM208.419 73.6215H206.943L204.399 77.8215L201.867 73.6215H200.379V82.0215H201.759V76.0215L204.315 80.2575H204.483L207.039 76.0335V82.0215H208.419V73.6215Z" fill="#8DBDEE"/>
<path d="M109.809 6.91582L109.977 5.89582H108.645L108.969 3.91582H107.901L107.577 5.89582H106.233L106.557 3.91582H105.489L105.165 5.89582H103.785L103.617 6.91582H104.985L104.793 8.11582H103.425L103.257 9.13582H104.625L104.289 11.1158H105.357L105.693 9.13582H107.037L106.701 11.1158H107.769L108.105 9.13582H109.461L109.617 8.11582H108.273L108.465 6.91582H109.809ZM107.205 8.11582H105.861L106.053 6.91582H107.397L107.205 8.11582ZM116.101 3.31582V6.75982H112.501V3.31582H111.121V11.7158H112.501V8.07982H116.101V11.7158H117.481V3.31582H116.101ZM123.948 11.7158H125.46L123.552 8.45182C124.536 8.05582 125.22 7.09582 125.22 6.01582C125.22 4.51582 124.02 3.31582 122.52 3.31582H119.16V11.7158H120.54V8.65582H122.172L123.948 11.7158ZM120.54 4.61182H122.52C123.252 4.61182 123.84 5.22382 123.84 6.01582C123.84 6.79582 123.252 7.41982 122.52 7.41982H120.54V4.61182Z" fill="#8DBDEE"/>
<path d="M19.9301 28.2215L20.0981 27.2015H18.7661L19.0901 25.2215H18.0221L17.6981 27.2015H16.3541L16.6781 25.2215H15.6101L15.2861 27.2015H13.9061L13.7381 28.2215H15.1061L14.9141 29.4215H13.5461L13.3781 30.4415H14.7461L14.4101 32.4215H15.4781L15.8141 30.4415H17.1581L16.8221 32.4215H17.8901L18.2261 30.4415H19.5821L19.7381 29.4215H18.3941L18.5861 28.2215H19.9301ZM17.3261 29.4215H15.9821L16.1741 28.2215H17.5181L17.3261 29.4215ZM28.0703 27.0215L26.8943 31.1615L25.6463 27.0215H24.4103L23.1503 31.1615L21.9863 27.0215H20.6183L22.5023 33.0215H23.7743L25.0343 28.9775L26.2823 33.0215H27.5543L29.4383 27.0215H28.0703ZM31.1783 30.5735H35.9543C35.9783 30.4055 36.0023 30.2135 36.0023 30.0335C36.0023 28.3055 34.7783 26.8655 32.9903 26.8655C31.1063 26.8655 29.8223 28.2455 29.8223 30.0215C29.8223 31.8215 31.1063 33.1775 33.0863 33.1775C34.2623 33.1775 35.1623 32.6855 35.7143 31.8695L34.6463 31.2455C34.3583 31.6655 33.8183 31.9895 33.0983 31.9895C32.1383 31.9895 31.3823 31.5095 31.1783 30.5735ZM31.1663 29.5175C31.3463 28.6175 32.0063 28.0415 32.9783 28.0415C33.7583 28.0415 34.5143 28.4855 34.6943 29.5175H31.1663ZM40.5387 26.8655C39.6027 26.8655 38.8947 27.2495 38.4387 27.8735V24.6215H37.1427V33.0215H38.4387V32.1575C38.8947 32.7935 39.6027 33.1775 40.5387 33.1775C42.1707 33.1775 43.5267 31.7975 43.5267 30.0215C43.5267 28.2335 42.1707 26.8655 40.5387 26.8655ZM40.3347 31.9415C39.2547 31.9415 38.4387 31.1375 38.4387 30.0215C38.4387 28.9055 39.2547 28.1015 40.3347 28.1015C41.4147 28.1015 42.2307 28.9055 42.2307 30.0215C42.2307 31.1375 41.4147 31.9415 40.3347 31.9415ZM44.7853 29.9975H49.2253V28.7495H44.7853V29.9975ZM53.6505 33.1775C54.8265 33.1775 55.8465 32.5655 56.3505 31.6175L55.2345 30.9815C54.9465 31.5335 54.3585 31.9055 53.6385 31.9055C52.5825 31.9055 51.7785 31.1015 51.7785 30.0215C51.7785 28.9415 52.5825 28.1375 53.6385 28.1375C54.3585 28.1375 54.9465 28.4975 55.2105 29.0615L56.3265 28.4135C55.8465 27.4775 54.8265 26.8655 53.6505 26.8655C51.8385 26.8655 50.4825 28.2335 50.4825 30.0215C50.4825 31.7975 51.8385 33.1775 53.6505 33.1775ZM61.9455 27.0215V27.8735C61.4895 27.2495 60.7815 26.8655 59.8455 26.8655C58.2135 26.8655 56.8575 28.2335 56.8575 30.0215C56.8575 31.7975 58.2135 33.1775 59.8455 33.1775C60.7815 33.1775 61.4895 32.7935 61.9455 32.1575V33.0215H63.2415V27.0215H61.9455ZM60.0495 31.9415C58.9695 31.9415 58.1535 31.1375 58.1535 30.0215C58.1535 28.9055 58.9695 28.1015 60.0495 28.1015C61.1295 28.1015 61.9455 28.9055 61.9455 30.0215C61.9455 31.1375 61.1295 31.9415 60.0495 31.9415ZM65.7361 26.1815H69.0961V25.0535H65.7361V26.1815ZM69.0961 27.0215L66.0241 30.8255V27.0215H64.7521V33.0215H65.7481L68.8201 29.2055V33.0215H70.0921V27.0215H69.0961ZM76.1798 27.0215H70.9598V28.2695H72.9278V33.0215H74.2238V28.2695H76.1798V27.0215Z" fill="#8DBDEE"/>
<path d="M42.4799 75.2215L42.6479 74.2015H41.3159L41.6399 72.2215H40.5719L40.2479 74.2015H38.9039L39.2279 72.2215H38.1599L37.8359 74.2015H36.4559L36.2879 75.2215H37.6559L37.4639 76.4215H36.0959L35.9279 77.4415H37.2959L36.9599 79.4215H38.0279L38.3639 77.4415H39.7079L39.3719 79.4215H40.4399L40.7759 77.4415H42.1319L42.2879 76.4215H40.9439L41.1359 75.2215H42.4799ZM39.8759 76.4215H38.5319L38.7239 75.2215H40.0679L39.8759 76.4215ZM45.1721 78.7015V76.4335H48.5321V75.1255H45.1721V72.9415H48.8321V71.6215H43.7921V80.0215H48.8921V78.7015H45.1721ZM54.9434 80.0215H56.4554L54.5474 76.7575C55.5314 76.3615 56.2154 75.4015 56.2154 74.3215C56.2154 72.8215 55.0154 71.6215 53.5154 71.6215H50.1554V80.0215H51.5354V76.9615H53.1674L54.9434 80.0215ZM51.5354 72.9175H53.5154C54.2474 72.9175 54.8354 73.5295 54.8354 74.3215C54.8354 75.1015 54.2474 75.7255 53.5154 75.7255H51.5354V72.9175ZM60.6108 71.6215H57.5148V80.0215H58.8948V77.1415H60.6108C62.1948 77.1415 63.3948 75.9295 63.3948 74.3815C63.3948 72.8215 62.1948 71.6215 60.6108 71.6215ZM60.6108 75.8455H58.8948V72.9175H60.6108C61.4268 72.9175 62.0148 73.5295 62.0148 74.3815C62.0148 75.2215 61.4268 75.8455 60.6108 75.8455Z" fill="#8DBDEE"/>
</svg>
