<svg width="109" height="115" viewBox="0 0 109 115" fill="none" xmlns="http://www.w3.org/2000/svg">
<path d="M106.372 81.572C106.372 91.6921 90.8113 99.9078 71.605 99.9078C52.3988 99.9078 36.8379 91.6921 36.8379 81.572C36.8379 71.452 52.3988 63.2363 71.605 63.2363C90.8113 63.2907 106.372 71.5064 106.372 81.572Z" fill="#76B7FF"/>
<path d="M71.8771 99.5474C52.6708 99.8194 37.0011 91.8213 36.8379 81.7013L37.0555 96.2284C37.1643 106.348 52.8884 114.347 72.0947 114.074C91.301 113.802 106.753 105.423 106.644 95.3035L106.427 80.7764C106.59 90.8964 91.0833 99.2753 71.8771 99.5474Z" fill="#3491F7"/>
<path d="M91.8253 52.3689C91.8253 62.4889 76.2644 70.7046 57.0581 70.7046C37.8519 70.7046 22.291 62.4889 22.291 52.3689C22.291 42.2489 37.8519 34.0332 57.0581 34.0332C76.2644 34.0332 91.8253 42.2489 91.8253 52.3689Z" fill="#FF98FF"/>
<path d="M57.3292 69.6821C38.123 69.9542 22.4533 61.9561 22.29 51.8361L22.5077 66.3632C22.6165 76.4832 38.3406 84.4813 57.5469 84.2092C76.7531 83.9372 92.2052 75.5583 92.0964 65.4382L91.8787 50.9111C92.0419 61.0311 76.5355 69.4101 57.3292 69.6821Z" fill="#E368E3"/>
<path d="M108.553 19.0193C108.553 29.1393 92.9919 37.355 73.7857 37.355C54.5794 37.355 39.0186 29.1393 39.0186 19.0193C39.0186 8.8993 54.5794 0.683594 73.7857 0.683594C92.9919 0.683594 108.553 8.8993 108.553 19.0193Z" fill="#75F5F4"/>
<path d="M73.7862 36.8657C54.58 37.1378 38.9103 29.1397 38.7471 19.0197L38.9647 33.5468C39.0735 43.6668 54.7976 51.6649 74.0039 51.3928C93.2101 51.1208 108.662 42.7418 108.553 32.6218L108.336 18.0947C108.499 28.2147 92.9925 36.5937 73.7862 36.8657Z" fill="#61D4D4"/>
<path d="M7.05419 23.001H8.54219L5.50619 14.601H3.85019L0.802188 23.001H2.30219L2.89019 21.309H6.46619L7.05419 23.001ZM3.34619 20.013L4.67819 16.221L6.01019 20.013H3.34619Z" fill="#8DBDEE"/>
<path d="M6.79572 60.145C7.32372 59.761 7.64772 59.161 7.64772 58.429C7.64772 57.085 6.54372 56.101 5.18772 56.101H1.85172V64.501H5.45172C6.84372 64.501 7.97172 63.493 7.97172 62.101C7.97172 61.201 7.50372 60.517 6.79572 60.145ZM5.18772 57.397C5.79972 57.397 6.26772 57.877 6.26772 58.501C6.26772 59.125 5.79972 59.605 5.18772 59.605H3.23172V57.397H5.18772ZM5.45172 63.205H3.23172V60.853H5.45172C6.09972 60.853 6.59172 61.369 6.59172 62.029C6.59172 62.689 6.09972 63.205 5.45172 63.205Z" fill="#8DBDEE"/>
<path d="M5.5913 103.563C7.1393 103.563 8.5073 102.771 9.2033 101.547L8.0033 100.863C7.5713 101.691 6.6473 102.219 5.5913 102.219C3.7793 102.219 2.5793 100.935 2.5793 99.2072C2.5793 97.4792 3.7793 96.1952 5.5913 96.1952C6.6473 96.1952 7.5593 96.7232 8.0033 97.5512L9.2033 96.8552C8.4953 95.6312 7.1273 94.8512 5.5913 94.8512C3.0353 94.8512 1.1993 96.7712 1.1993 99.2072C1.1993 101.643 3.0353 103.563 5.5913 103.563Z" fill="#8DBDEE"/>
</svg>
