<svg width="14" height="26" viewBox="0 0 14 26" fill="none" xmlns="http://www.w3.org/2000/svg">
<path d="M0.646447 24.8398C0.451184 25.0351 0.451184 25.3517 0.646447 25.5469C0.841709 25.7422 1.15829 25.7422 1.35355 25.5469L0.646447 24.8398ZM13.3472 12.8462L13.7007 13.1998C13.896 13.0045 13.896 12.6879 13.7007 12.4926L13.3472 12.8462ZM1.35355 0.145481C1.15829 -0.0497799 0.841708 -0.0497799 0.646446 0.145481C0.451183 0.340744 0.451183 0.657326 0.646446 0.852589L1.35355 0.145481ZM1.35355 25.5469L13.7007 13.1998L12.9936 12.4926L0.646447 24.8398L1.35355 25.5469ZM13.7007 12.4926L1.35355 0.145481L0.646446 0.852589L12.9936 13.1998L13.7007 12.4926Z" fill="#147CEE"/>
<path d="M0.646447 24.8398C0.451184 25.0351 0.451184 25.3517 0.646447 25.5469C0.841709 25.7422 1.15829 25.7422 1.35355 25.5469L0.646447 24.8398ZM13.3472 12.8462L13.7007 13.1998C13.896 13.0045 13.896 12.6879 13.7007 12.4926L13.3472 12.8462ZM1.35355 0.145481C1.15829 -0.0497799 0.841708 -0.0497799 0.646446 0.145481C0.451183 0.340744 0.451183 0.657326 0.646446 0.852589L1.35355 0.145481ZM1.35355 25.5469L13.7007 13.1998L12.9936 12.4926L0.646447 24.8398L1.35355 25.5469ZM13.7007 12.4926L1.35355 0.145481L0.646446 0.852589L12.9936 13.1998L13.7007 12.4926Z" fill="url(#paint0_linear)"/>
<defs>
<linearGradient id="paint0_linear" x1="0.999999" y1="12.8462" x2="13.3472" y2="12.8462" gradientUnits="userSpaceOnUse">
<stop offset="0.208333" stop-color="#51E2E1"/>
<stop offset="1" stop-color="white" stop-opacity="0"/>
<stop offset="1" stop-color="#51E2E1" stop-opacity="0"/>
</linearGradient>
</defs>
</svg>
