<svg width="65" height="64" viewBox="0 0 65 64" fill="none" xmlns="http://www.w3.org/2000/svg">
<path d="M40.5931 39.4453C43.4043 37.0911 45.0485 33.911 45.6727 31.8872C50.5883 31.8872 50.916 22.3248 46.9836 22.3248C46.9836 22.3248 47.1738 21.0163 47.2444 19.0005V16.0078M40.5931 39.4453C38.4847 41.211 35.7199 42.512 32.2368 42.512C24.1098 42.512 19.8933 35.4288 18.8009 31.8872C13.8854 31.8872 13.5577 22.3248 17.4901 22.3248C17.4901 22.3248 17.2999 21.0163 17.2293 19.0005V16.0078M40.5931 39.4453C40.5931 39.4453 41.7323 43.3501 43.7439 44.6751M20.7297 44.6751C22.7414 43.3501 23.8806 39.4453 23.8806 39.4453M20.7297 44.6751L15.7893 47.3603M20.7297 44.6751L32.2368 49.9643M43.7439 44.6751L61.1146 54.1163C62.4324 54.9843 63.2373 56.5373 63.2373 58.212C63.2373 60.8571 61.2643 63.0013 58.8305 63.0013H36.2369M43.7439 44.6751L48.6844 47.3603L36.2369 56.0012L35.115 54.3079M43.7439 44.6751L32.2368 49.9643M15.7893 47.3603L28.2368 56.0012L29.3587 54.3079M15.7893 47.3603L13.2365 48.7478M32.2368 49.9643L29.3587 54.3079M32.2368 49.9643L35.115 54.3079M28.2368 63.0013H36.2369M28.2368 63.0013L30.2368 55.0011M28.2368 63.0013H20.2366M36.2369 63.0013L34.2369 55.0011M30.2368 55.0011L30.5681 55.2496C31.557 55.9913 32.9167 55.9913 33.9056 55.2496L34.2369 55.0011M30.2368 55.0011L29.3587 54.3079M34.2369 55.0011L35.115 54.3079M13.2365 48.7478L3.35909 54.1163C2.04125 54.9843 1.23633 56.5373 1.23633 58.212C1.23633 60.8571 3.20933 63.0013 5.64315 63.0013H20.2366M13.2365 48.7478L20.2366 63.0013M51.2372 48.7478L44.237 63.0013" stroke="#002F6A" stroke-width="1.5" stroke-linecap="round" stroke-linejoin="round"/>
<path d="M28.237 19.9993C39.116 16.9496 40.4266 13.3063 43.2373 6.99912L43.2621 7.1367C44.4964 13.9819 45.1963 17.8632 50.2374 19.9993C50.2374 19.9993 53.2374 0.999023 33.2371 0.999023C13.2368 0.999023 14.2368 19.9993 14.2368 19.9993C21.0048 19.1295 23.9949 17.4978 28.237 12.9992V19.9993Z" fill="#147CEE"/>
<path d="M28.237 19.9993C39.116 16.9496 40.4266 13.3063 43.2373 6.99912L43.2621 7.1367C44.4964 13.9819 45.1963 17.8632 50.2374 19.9993C50.2374 19.9993 53.2374 0.999023 33.2371 0.999023C13.2368 0.999023 14.2368 19.9993 14.2368 19.9993C21.0048 19.1295 23.9949 17.4978 28.237 12.9992V19.9993Z" fill="url(#paint0_linear)"/>
<path d="M28.237 19.9993C39.116 16.9496 40.4266 13.3063 43.2373 6.99912L43.2621 7.1367C44.4964 13.9819 45.1963 17.8632 50.2374 19.9993C50.2374 19.9993 53.2374 0.999023 33.2371 0.999023C13.2368 0.999023 14.2368 19.9993 14.2368 19.9993C21.0048 19.1295 23.9949 17.4978 28.237 12.9992V19.9993Z" stroke="#147CEE" stroke-linecap="round" stroke-linejoin="round"/>
<path d="M28.237 19.9993C39.116 16.9496 40.4266 13.3063 43.2373 6.99912L43.2621 7.1367C44.4964 13.9819 45.1963 17.8632 50.2374 19.9993C50.2374 19.9993 53.2374 0.999023 33.2371 0.999023C13.2368 0.999023 14.2368 19.9993 14.2368 19.9993C21.0048 19.1295 23.9949 17.4978 28.237 12.9992V19.9993Z" stroke="url(#paint1_linear)" stroke-linecap="round" stroke-linejoin="round"/>
<path d="M27.4864 24C27.4864 24.6904 26.9267 25.2501 26.2364 25.2501C25.546 25.2501 24.9863 24.6904 24.9863 24C24.9863 23.3097 25.546 22.75 26.2364 22.75C26.9267 22.75 27.4864 23.3097 27.4864 24ZM39.4866 24C39.4866 24.6904 38.9269 25.2501 38.2366 25.2501C37.5462 25.2501 36.9865 24.6904 36.9865 24C36.9865 23.3097 37.5462 22.75 38.2366 22.75C38.9269 22.75 39.4866 23.3097 39.4866 24Z" fill="#002F6A" stroke="#002F6A" stroke-width="1.5"/>
<defs>
<linearGradient id="paint0_linear" x1="32.3128" y1="0.999023" x2="32.3128" y2="19.9993" gradientUnits="userSpaceOnUse">
<stop offset="0.208333" stop-color="#51E2E1"/>
<stop offset="1" stop-color="white" stop-opacity="0"/>
<stop offset="1" stop-color="#51E2E1" stop-opacity="0"/>
</linearGradient>
<linearGradient id="paint1_linear" x1="32.3128" y1="0.999023" x2="32.3128" y2="19.9993" gradientUnits="userSpaceOnUse">
<stop offset="0.208333" stop-color="#51E2E1"/>
<stop offset="1" stop-color="white" stop-opacity="0"/>
<stop offset="1" stop-color="#51E2E1" stop-opacity="0"/>
</linearGradient>
</defs>
</svg>
