<svg width="59" height="53" viewBox="0 0 59 53" fill="none" xmlns="http://www.w3.org/2000/svg">
<path d="M1.03867 12.0343V3.8043H57.4323V12.0343H1.03867Z" fill="#147CEE"/>
<path d="M1.03867 12.0343V3.8043H57.4323V12.0343H1.03867Z" fill="url(#paint0_linear)"/>
<path d="M1.03867 12.0343V3.8043H57.4323V12.0343H1.03867Z" stroke="#002F6A" stroke-width="0.3"/>
<path d="M1.39242 11.5296V11.6796H1.54242H56.9302H57.0802V11.5296V4.31009V4.16009H56.9302H1.54242H1.39242V4.31009V11.5296ZM57.5833 12.6897H0.889375C0.611687 12.6897 0.386328 12.4643 0.386328 12.1847V3.65504C0.386328 3.37539 0.611687 3.15 0.889375 3.15H57.5833C57.861 3.15 58.0863 3.37539 58.0863 3.65504V12.1847C58.0863 12.4643 57.861 12.6897 57.5833 12.6897Z" fill="#002F6A" stroke="#002F6A" stroke-width="0.3"/>
<path d="M9.03116 6.34191H6.96841C6.75286 6.34191 6.57812 6.16718 6.57812 5.95163V1.04556C6.57812 0.830011 6.75286 0.655273 6.96841 0.655273H9.03116C9.24671 0.655273 9.42144 0.830011 9.42144 1.04556V5.95163C9.42144 6.16718 9.24671 6.34191 9.03116 6.34191Z" fill="white"/>
<path d="M8.00026 6.99565C6.85522 6.99565 5.92383 6.06426 5.92383 4.91921V2.07643C5.92383 0.931388 6.85522 0 8.00026 0C9.14531 0 10.0767 0.931388 10.0767 2.07643V4.91921C10.0767 6.06426 9.14531 6.99565 8.00026 6.99565ZM8.00026 1.31008C7.57807 1.31008 7.23391 1.65424 7.23391 2.07643V4.91921C7.23391 5.34141 7.57807 5.68556 8.00026 5.68556C8.42246 5.68556 8.76661 5.34141 8.76661 4.91921V2.07643C8.76661 1.65424 8.42246 1.31008 8.00026 1.31008Z" fill="#002F6A"/>
<path d="M51.6815 6.34191H49.6188C49.4033 6.34191 49.2285 6.16718 49.2285 5.95163V1.04556C49.2285 0.830011 49.4033 0.655273 49.6188 0.655273H51.6815C51.8971 0.655273 52.0718 0.830011 52.0718 1.04556V5.95163C52.0718 6.16718 51.8971 6.34191 51.6815 6.34191Z" fill="white"/>
<path d="M50.65 6.99565C49.5049 6.99565 48.5723 6.06426 48.5723 4.91921V2.07643C48.5723 0.931388 49.5049 0 50.65 0C51.795 0 52.7264 0.931388 52.7264 2.07643V4.91921C52.7264 6.06426 51.795 6.99565 50.65 6.99565ZM50.65 1.31008C50.2265 1.31008 49.8824 1.65424 49.8824 2.07643V4.91921C49.8824 5.34141 50.2265 5.68556 50.65 5.68556C51.0722 5.68556 51.4163 5.34141 51.4163 4.91921V2.07643C51.4163 1.65424 51.0722 1.31008 50.65 1.31008Z" fill="#002F6A"/>
<path d="M41.0194 6.34191H38.9567C38.7411 6.34191 38.5664 6.16718 38.5664 5.95163V1.04556C38.5664 0.830011 38.7411 0.655273 38.9567 0.655273H41.0194C41.235 0.655273 41.4097 0.830011 41.4097 1.04556V5.95163C41.4097 6.16718 41.235 6.34191 41.0194 6.34191Z" fill="white"/>
<path d="M39.9866 6.99565C38.8415 6.99565 37.9102 6.06426 37.9102 4.91921V2.07643C37.9102 0.931388 38.8415 0 39.9866 0C41.1316 0 42.0643 0.931388 42.0643 2.07643V4.91921C42.0643 6.06426 41.1316 6.99565 39.9866 6.99565ZM39.9866 1.31008C39.5644 1.31008 39.2202 1.65424 39.2202 2.07643V4.91921C39.2202 5.34141 39.5644 5.68556 39.9866 5.68556C40.4101 5.68556 40.7542 5.34141 40.7542 4.91921V2.07643C40.7542 1.65424 40.4101 1.31008 39.9866 1.31008Z" fill="#002F6A"/>
<path d="M30.3554 6.34191H28.2926C28.0771 6.34191 27.9023 6.16718 27.9023 5.95163V1.04556C27.9023 0.830011 28.0771 0.655273 28.2926 0.655273H30.3554C30.5709 0.655273 30.7457 0.830011 30.7457 1.04556V5.95163C30.7457 6.16718 30.5709 6.34191 30.3554 6.34191Z" fill="white"/>
<path d="M29.3245 6.99565C28.1794 6.99565 27.248 6.06426 27.248 4.91921V2.07643C27.248 0.931388 28.1794 0 29.3245 0C30.4695 0 31.4022 0.931388 31.4022 2.07643V4.91921C31.4022 6.06426 30.4695 6.99565 29.3245 6.99565ZM29.3245 1.31008C28.9023 1.31008 28.5581 1.65424 28.5581 2.07643V4.91921C28.5581 5.34141 28.9023 5.68556 29.3245 5.68556C29.748 5.68556 30.0921 5.34141 30.0921 4.91921V2.07643C30.0921 1.65424 29.748 1.31008 29.3245 1.31008Z" fill="#002F6A"/>
<path d="M19.6942 6.34191H17.6315C17.4159 6.34191 17.2412 6.16718 17.2412 5.95163V1.04556C17.2412 0.830011 17.4159 0.655273 17.6315 0.655273H19.6942C19.9098 0.655273 20.0845 0.830011 20.0845 1.04556V5.95163C20.0845 6.16718 19.9098 6.34191 19.6942 6.34191Z" fill="white"/>
<path d="M18.6614 6.99565C17.5163 6.99565 16.585 6.06426 16.585 4.91921V2.07643C16.585 0.931388 17.5163 0 18.6614 0C19.8064 0 20.7378 0.931388 20.7378 2.07643V4.91921C20.7378 6.06426 19.8064 6.99565 18.6614 6.99565ZM18.6614 1.31008C18.2392 1.31008 17.895 1.65424 17.895 2.07643V4.91921C17.895 5.34141 18.2392 5.68556 18.6614 5.68556C19.0836 5.68556 19.4277 5.34141 19.4277 4.91921V2.07643C19.4277 1.65424 19.0836 1.31008 18.6614 1.31008Z" fill="#002F6A"/>
<path d="M15.1085 25.1141H9.42164C9.05958 25.1141 8.7666 24.8211 8.7666 24.4591V18.7722C8.7666 18.4102 9.05958 18.1172 9.42164 18.1172H15.1085C15.4706 18.1172 15.7635 18.4102 15.7635 18.7722V24.4591C15.7635 24.8211 15.4706 25.1141 15.1085 25.1141ZM10.0767 23.804H14.4534V19.4273H10.0767V23.804Z" fill="#002F6A"/>
<path d="M15.1085 35.065H9.42164C9.05958 35.065 8.7666 34.772 8.7666 34.4099V28.7244C8.7666 28.3623 9.05958 28.0693 9.42164 28.0693H15.1085C15.4706 28.0693 15.7635 28.3623 15.7635 28.7244V34.4099C15.7635 34.772 15.4706 35.065 15.1085 35.065ZM10.0767 33.7549H14.4534V29.3794H10.0767V33.7549Z" fill="#002F6A"/>
<path d="M15.1085 45.0165H9.42164C9.05958 45.0165 8.7666 44.7235 8.7666 44.3614V38.6746C8.7666 38.3125 9.05958 38.0195 9.42164 38.0195H15.1085C15.4706 38.0195 15.7635 38.3125 15.7635 38.6746V44.3614C15.7635 44.7235 15.4706 45.0165 15.1085 45.0165ZM10.0767 43.7064H14.4534V39.3296H10.0767V43.7064Z" fill="#002F6A"/>
<path d="M49.2286 25.1141H43.5418C43.1797 25.1141 42.8867 24.8211 42.8867 24.4591V18.7722C42.8867 18.4102 43.1797 18.1172 43.5418 18.1172H49.2286C49.5907 18.1172 49.8836 18.4102 49.8836 18.7722V24.4591C49.8836 24.8211 49.5907 25.1141 49.2286 25.1141ZM44.1968 23.804H48.5736V19.4273H44.1968V23.804Z" fill="#002F6A"/>
<path d="M49.2273 35.065H43.5418C43.1797 35.065 42.8867 34.772 42.8867 34.4099V28.7244C42.8867 28.3623 43.1797 28.0693 43.5418 28.0693H49.2273C49.5894 28.0693 49.8824 28.3623 49.8824 28.7244V34.4099C49.8824 34.772 49.5894 35.065 49.2273 35.065ZM44.1968 33.7549H48.5723V29.3794H44.1968V33.7549Z" fill="#002F6A"/>
<path d="M49.0821 38.123H43.3955V43.8097H49.0821V38.123Z" fill="#147CEE"/>
<path d="M49.0821 38.123H43.3955V43.8097H49.0821V38.123Z" fill="url(#paint1_linear)"/>
<path d="M54.0445 52.4888H4.60413C2.19634 52.4888 0.236328 50.5288 0.236328 48.1197V12.0271C0.236328 11.665 0.529306 11.3721 0.891371 11.3721H57.7585C58.1206 11.3721 58.4136 11.665 58.4136 12.0271V48.1197C58.4136 50.5288 56.4535 52.4888 54.0445 52.4888ZM1.54641 12.6822V48.1197C1.54641 49.8059 2.91791 51.1787 4.60413 51.1787H54.0445C55.7307 51.1787 57.1035 49.8059 57.1035 48.1197V12.6822H1.54641Z" fill="#002F6A" stroke="#002F6A" stroke-width="0.3"/>
<path d="M37.8533 25.1151H32.1677C31.8057 25.1151 31.5127 24.8221 31.5127 24.46V18.7732C31.5127 18.4111 31.8057 18.1182 32.1677 18.1182H37.8533C38.2154 18.1182 38.5083 18.4111 38.5083 18.7732V24.46C38.5083 24.8221 38.2154 25.1151 37.8533 25.1151ZM32.8228 23.805H37.1983V19.4282H32.8228V23.805Z" fill="#002F6A"/>
<path d="M37.8546 35.066H32.1677C31.8057 35.066 31.5127 34.773 31.5127 34.4109V28.7254C31.5127 28.3633 31.8057 28.0703 32.1677 28.0703H37.8546C38.2166 28.0703 38.5096 28.3633 38.5096 28.7254V34.4109C38.5096 34.773 38.2166 35.066 37.8546 35.066ZM32.8228 33.7559H37.1995V29.3804H32.8228V33.7559Z" fill="#002F6A"/>
<path d="M37.8546 45.0174H32.1677C31.8057 45.0174 31.5127 44.7245 31.5127 44.3624V38.6756C31.5127 38.3135 31.8057 38.0205 32.1677 38.0205H37.8546C38.2166 38.0205 38.5096 38.3135 38.5096 38.6756V44.3624C38.5096 44.7245 38.2166 45.0174 37.8546 45.0174ZM32.8228 43.7074H37.1995V39.3306H32.8228V43.7074Z" fill="#002F6A"/>
<path d="M26.4815 25.1141H20.7947C20.4326 25.1141 20.1396 24.8211 20.1396 24.4591V18.7722C20.1396 18.4102 20.4326 18.1172 20.7947 18.1172H26.4815C26.8436 18.1172 27.1366 18.4102 27.1366 18.7722V24.4591C27.1366 24.8211 26.8436 25.1141 26.4815 25.1141ZM21.4497 23.804H25.8265V19.4273H21.4497V23.804Z" fill="#002F6A"/>
<path d="M26.4815 35.065H20.7947C20.4326 35.065 20.1396 34.772 20.1396 34.4099V28.7244C20.1396 28.3623 20.4326 28.0693 20.7947 28.0693H26.4815C26.8436 28.0693 27.1366 28.3623 27.1366 28.7244V34.4099C27.1366 34.772 26.8436 35.065 26.4815 35.065ZM21.4497 33.7549H25.8265V29.3794H21.4497V33.7549Z" fill="#002F6A"/>
<path d="M26.4815 45.0165H20.7947C20.4326 45.0165 20.1396 44.7235 20.1396 44.3614V38.6746C20.1396 38.3125 20.4326 38.0195 20.7947 38.0195H26.4815C26.8436 38.0195 27.1366 38.3125 27.1366 38.6746V44.3614C27.1366 44.7235 26.8436 45.0165 26.4815 45.0165ZM21.4497 43.7064H25.8265V39.3296H21.4497V43.7064Z" fill="#002F6A"/>
<path d="M49.2273 45.0184H43.5418C43.1797 45.0184 42.8867 44.7254 42.8867 44.3634V38.6765C42.8867 38.3145 43.1797 38.0215 43.5418 38.0215H49.2273C49.5894 38.0215 49.8824 38.3145 49.8824 38.6765V44.3634C49.8824 44.7254 49.5894 45.0184 49.2273 45.0184ZM44.1968 43.7083H48.5723V39.3316H44.1968V43.7083Z" fill="#002F6A"/>
<defs>
<linearGradient id="paint0_linear" x1="29.2355" y1="3.6543" x2="29.2355" y2="12.1843" gradientUnits="userSpaceOnUse">
<stop offset="0.208333" stop-color="#51E2E1"/>
<stop offset="1" stop-color="white" stop-opacity="0"/>
<stop offset="1" stop-color="#51E2E1" stop-opacity="0"/>
</linearGradient>
<linearGradient id="paint1_linear" x1="46.2388" y1="38.123" x2="46.2388" y2="43.8097" gradientUnits="userSpaceOnUse">
<stop offset="0.208333" stop-color="#51E2E1"/>
<stop offset="1" stop-color="white" stop-opacity="0"/>
<stop offset="1" stop-color="#51E2E1" stop-opacity="0"/>
</linearGradient>
</defs>
</svg>
