<svg width="60" height="54" viewBox="0 0 60 54" fill="none" xmlns="http://www.w3.org/2000/svg">
<path d="M59.0494 43.3111C59.0494 45.4508 52.5415 47.1855 44.5135 47.1855C36.4855 47.1855 29.9775 45.4508 29.9775 43.3111V39.4326H59.0494V43.3111Z" fill="white"/>
<path d="M44.5132 47.8554C36.9575 47.8554 29.3076 46.2948 29.3076 43.311V39.4324C29.3076 39.0623 29.6072 38.7627 29.9774 38.7627H59.049C59.4192 38.7627 59.7188 39.0623 59.7188 39.4324V43.311C59.7188 46.2948 52.0689 47.8554 44.5132 47.8554ZM30.6471 40.1022V43.311C30.6471 44.6178 36.0483 46.5159 44.5132 46.5159C52.978 46.5159 58.3792 44.6178 58.3792 43.311V40.1022H30.6471Z" fill="#002F6A"/>
<path d="M59.0494 39.4341C59.0494 41.5739 52.5415 43.3085 44.5135 43.3085C36.4855 43.3085 29.9775 41.5739 29.9775 39.4341V35.5557H59.0494V39.4341Z" fill="white"/>
<path d="M44.5132 43.9772C36.9575 43.9772 29.3076 42.4166 29.3076 39.4341V35.5555C29.3076 35.1853 29.6072 34.8857 29.9774 34.8857H59.049C59.4192 34.8857 59.7188 35.1853 59.7188 35.5555V39.4341C59.7188 42.4166 52.0689 43.9772 44.5132 43.9772ZM30.6471 36.2253V39.4341C30.6471 40.7409 36.0483 42.6377 44.5132 42.6377C52.978 42.6377 58.3792 40.7409 58.3792 39.4341V36.2253H30.6471Z" fill="#002F6A"/>
<path d="M59.0494 35.5572C59.0494 37.6969 52.5415 39.4316 44.5135 39.4316C36.4855 39.4316 29.9775 37.6969 29.9775 35.5572V31.6787H59.0494V35.5572Z" fill="white"/>
<path d="M44.5132 40.1015C36.9575 40.1015 29.3076 38.5409 29.3076 35.5571V31.6785C29.3076 31.3083 29.6072 31.0088 29.9774 31.0088H59.049C59.4192 31.0088 59.7188 31.3083 59.7188 31.6785V35.5571C59.7188 38.5409 52.0689 40.1015 44.5132 40.1015ZM30.6471 32.3483V35.5571C30.6471 36.8639 36.0483 38.762 44.5132 38.762C52.978 38.762 58.3792 36.8639 58.3792 35.5571V32.3483H30.6471Z" fill="#002F6A"/>
<path d="M59.0494 31.6812C59.0494 33.821 52.5415 35.5556 44.5135 35.5556C36.4855 35.5556 29.9775 33.821 29.9775 31.6812V27.8027H59.0494V31.6812Z" fill="white"/>
<path d="M44.5132 36.2255C36.9575 36.2255 29.3076 34.665 29.3076 31.6811V27.8026C29.3076 27.4324 29.6072 27.1328 29.9774 27.1328H59.049C59.4192 27.1328 59.7188 27.4324 59.7188 27.8026V31.6811C59.7188 34.665 52.0689 36.2255 44.5132 36.2255ZM30.6471 28.4723V31.6811C30.6471 32.9879 36.0483 34.886 44.5132 34.886C52.978 34.886 58.3792 32.9879 58.3792 31.6811V28.4723H30.6471Z" fill="#002F6A"/>
<path d="M59.0494 27.8042C59.0494 29.944 52.5415 31.6786 44.5135 31.6786C36.4855 31.6786 29.9775 29.944 29.9775 27.8042V23.9258H59.0494V27.8042Z" fill="white"/>
<path d="M44.5132 32.3483C36.9575 32.3483 29.3076 30.7877 29.3076 27.8039V23.9266C29.3076 23.5564 29.6072 23.2568 29.9774 23.2568H59.049C59.4192 23.2568 59.7188 23.5564 59.7188 23.9266V27.8039C59.7188 30.7877 52.0689 32.3483 44.5132 32.3483ZM30.6471 24.5963V27.8039C30.6471 29.1107 36.0483 31.0087 44.5132 31.0087C52.978 31.0087 58.3792 29.1107 58.3792 27.8039V24.5963H30.6471Z" fill="#002F6A"/>
<path d="M59.0494 23.9273C59.0494 26.0671 52.5415 27.8017 44.5135 27.8017C36.4855 27.8017 29.9775 26.0671 29.9775 23.9273V20.0488H59.0494V23.9273Z" fill="white"/>
<path d="M44.5132 28.4716C36.9575 28.4716 29.3076 26.911 29.3076 23.9272V20.0487C29.3076 19.6785 29.6072 19.3789 29.9774 19.3789H59.049C59.4192 19.3789 59.7188 19.6785 59.7188 20.0487V23.9272C59.7188 26.911 52.0689 28.4716 44.5132 28.4716ZM30.6471 20.7184V23.9272C30.6471 25.234 36.0483 27.1321 44.5132 27.1321C52.978 27.1321 58.3792 25.234 58.3792 23.9272V20.7184H30.6471Z" fill="#002F6A"/>
<path d="M59.0494 20.0513C59.0494 22.1911 52.5415 23.9257 44.5135 23.9257C36.4855 23.9257 29.9775 22.1911 29.9775 20.0513V16.1729H59.0494V20.0513Z" fill="white"/>
<path d="M44.5132 24.5966C36.9575 24.5966 29.3076 23.0361 29.3076 20.0522V16.1737C29.3076 15.8035 29.6072 15.5039 29.9774 15.5039H59.049C59.4192 15.5039 59.7188 15.8035 59.7188 16.1737V20.0522C59.7188 23.0361 52.0689 24.5966 44.5132 24.5966ZM30.6471 16.8434V20.0522C30.6471 21.359 36.0483 23.2571 44.5132 23.2571C52.978 23.2571 58.3792 21.359 58.3792 20.0522V16.8434H30.6471Z" fill="#002F6A"/>
<path d="M59.0494 16.1744C59.0494 18.3141 52.5415 20.0487 44.5135 20.0487C36.4855 20.0487 29.9775 18.3141 29.9775 16.1744V12.2959H59.0494V16.1744Z" fill="white"/>
<path d="M44.5132 20.7187C36.9575 20.7187 29.3076 19.1581 29.3076 16.1743V12.2957C29.3076 11.9255 29.6072 11.626 29.9774 11.626H59.049C59.4192 11.626 59.7188 11.9255 59.7188 12.2957V16.1743C59.7188 19.1581 52.0689 20.7187 44.5132 20.7187ZM30.6471 12.9655V16.1743C30.6471 17.4811 36.0483 19.3792 44.5132 19.3792C52.978 19.3792 58.3792 17.4811 58.3792 16.1743V12.9655H30.6471Z" fill="#002F6A"/>
<path d="M59.0494 12.2984C59.0494 14.4381 52.5415 16.1728 44.5135 16.1728C36.4855 16.1728 29.9775 14.4381 29.9775 12.2984V8.41992H59.0494V12.2984Z" fill="white"/>
<path d="M44.5132 16.8437C36.9575 16.8437 29.3076 15.2831 29.3076 12.2993V8.42073C29.3076 8.05054 29.6072 7.75098 29.9774 7.75098H59.049C59.4192 7.75098 59.7188 8.05054 59.7188 8.42073V12.2993C59.7188 15.2831 52.0689 16.8437 44.5132 16.8437ZM30.6471 9.09049V12.2993C30.6471 13.6061 36.0483 15.5042 44.5132 15.5042C52.978 15.5042 58.3792 13.6061 58.3792 12.2993V9.09049H30.6471Z" fill="#002F6A"/>
<path d="M59.0494 8.42143C59.0494 10.5612 52.5415 12.2958 44.5135 12.2958C36.4855 12.2958 29.9775 10.5612 29.9775 8.42143V4.54297H59.0494V8.42143Z" fill="white"/>
<path d="M44.5132 12.9654C36.9575 12.9654 29.3076 11.4049 29.3076 8.42235V4.54378C29.3076 4.17358 29.6072 3.87402 29.9774 3.87402H59.049C59.4192 3.87402 59.7188 4.17358 59.7188 4.54378V8.42235C59.7188 11.4049 52.0689 12.9654 44.5132 12.9654ZM30.6471 5.21354V8.42235C30.6471 9.72916 36.0483 11.6259 44.5132 11.6259C52.978 11.6259 58.3792 9.72916 58.3792 8.42235V5.21354H30.6471Z" fill="#002F6A"/>
<path d="M44.5135 8.41869C52.5415 8.41869 59.0494 6.68407 59.0494 4.54431C59.0494 2.40454 52.5415 0.669922 44.5135 0.669922C36.4855 0.669922 29.9775 2.40454 29.9775 4.54431C29.9775 6.68407 36.4855 8.41869 44.5135 8.41869Z" fill="#147CEE"/>
<path d="M44.5135 8.41869C52.5415 8.41869 59.0494 6.68407 59.0494 4.54431C59.0494 2.40454 52.5415 0.669922 44.5135 0.669922C36.4855 0.669922 29.9775 2.40454 29.9775 4.54431C29.9775 6.68407 36.4855 8.41869 44.5135 8.41869Z" fill="url(#paint0_linear)"/>
<path d="M44.5132 9.08881C36.9575 9.08881 29.3076 7.52822 29.3076 4.5444C29.3076 1.56059 36.9575 0 44.5132 0C52.0689 0 59.7188 1.56059 59.7188 4.5444C59.7188 7.52822 52.0689 9.08881 44.5132 9.08881ZM44.5132 1.33951C36.0483 1.33951 30.6471 3.23759 30.6471 4.5444C30.6471 5.85121 36.0483 7.7493 44.5132 7.7493C52.978 7.7493 58.3792 5.85121 58.3792 4.5444C58.3792 3.23759 52.978 1.33951 44.5132 1.33951Z" fill="#002F6A"/>
<path d="M18.3494 52.3648C27.983 52.3648 35.7925 44.5552 35.7925 34.9217C35.7925 25.2881 27.983 17.4785 18.3494 17.4785C8.71581 17.4785 0.90625 25.2881 0.90625 34.9217C0.90625 44.5552 8.71581 52.3648 18.3494 52.3648Z" fill="white"/>
<path d="M18.3498 53.0343C8.36236 53.0343 0.236328 44.9096 0.236328 34.9221C0.236328 24.9346 8.36236 16.8086 18.3498 16.8086C28.3373 16.8086 36.4621 24.9346 36.4621 34.9221C36.4621 44.9096 28.3373 53.0343 18.3498 53.0343ZM18.3498 18.1481C9.10014 18.1481 1.57584 25.6724 1.57584 34.9221C1.57584 44.1705 9.10014 51.6948 18.3498 51.6948C27.5982 51.6948 35.1225 44.1705 35.1225 34.9221C35.1225 25.6724 27.5982 18.1481 18.3498 18.1481Z" fill="#002F6A"/>
<path d="M22.5277 42.2291C18.7397 43.6888 14.484 41.7974 13.0243 38.0043C12.9986 37.9323 12.9729 37.8655 12.9472 37.7935H20.5437C20.8264 37.7935 21.0577 37.5623 21.0577 37.2796C21.0577 36.9969 20.8264 36.7656 20.5437 36.7656H12.6748C12.5206 35.9535 12.5052 35.1157 12.6234 34.2985H21.3661C21.6488 34.2985 21.8801 34.0672 21.8801 33.7846C21.8801 33.5019 21.6488 33.2706 21.3661 33.2706H12.8547C14.0214 29.3849 18.1229 27.18 22.0137 28.3467C22.1833 28.3981 22.3581 28.4547 22.5328 28.5215C22.7949 28.6243 23.093 28.4958 23.201 28.2285C23.3038 27.9664 23.1753 27.6683 22.908 27.5603H22.9029C18.5855 25.9002 13.7387 28.0538 12.0735 32.3711C11.9604 32.6641 11.8627 32.9622 11.7856 33.2654H9.7503C9.46762 33.2654 9.23633 33.4967 9.23633 33.7794C9.23633 34.0621 9.46762 34.2934 9.7503 34.2934H11.5852C11.4824 35.1157 11.4978 35.9432 11.6314 36.7605H9.7503C9.46762 36.7605 9.23633 36.9917 9.23633 37.2744C9.23633 37.5571 9.46762 37.7884 9.7503 37.7884H11.873C13.2145 42.2189 17.8916 44.7219 22.3169 43.3856C22.5122 43.3239 22.7076 43.2571 22.8977 43.1851C23.1599 43.0823 23.2935 42.7842 23.1907 42.5221C23.0879 42.26 22.7898 42.1263 22.5277 42.2291Z" fill="#002F6A" stroke="#002F6A" stroke-width="0.7"/>
<defs>
<linearGradient id="paint0_linear" x1="44.5135" y1="0.669922" x2="44.5135" y2="8.41869" gradientUnits="userSpaceOnUse">
<stop offset="0.208333" stop-color="#51E2E1"/>
<stop offset="1" stop-color="white" stop-opacity="0"/>
<stop offset="1" stop-color="#51E2E1" stop-opacity="0"/>
</linearGradient>
</defs>
</svg>
