<svg width="80" height="153" viewBox="0 0 80 153" fill="none" xmlns="http://www.w3.org/2000/svg">
<path d="M64.8625 148.15L56.2669 151.669C54.5352 152.378 52.5567 151.549 51.8477 149.817L48.3286 141.222C47.6197 139.49 48.4487 137.511 50.1804 136.802L58.776 133.283C60.5077 132.574 62.4862 133.404 63.1952 135.135L66.7143 143.731C67.4233 145.462 66.5942 147.441 64.8625 148.15Z" fill="#DADEFF"/>
<path d="M41.5661 14.2654C46.1973 11.9912 51.7953 13.9019 54.0695 18.5331L65.3583 41.521C67.6325 46.1522 65.7219 51.7502 61.0906 54.0245L38.1027 65.3132C33.4715 67.5875 27.8735 65.6768 25.5992 61.0456L14.3105 38.0576C12.0362 33.4264 13.9469 27.8284 18.5781 25.5541L41.5661 14.2654ZM38.2241 7.4598L15.2361 18.7485C6.85968 22.862 3.39144 33.0232 7.50487 41.3997L18.7936 64.3876C22.907 72.7641 33.0683 76.2322 41.4447 72.1188L64.4327 60.8301C72.8091 56.7167 76.2773 46.5554 72.1639 38.179L60.8752 15.191C56.7617 6.81458 46.6005 3.34637 38.2241 7.4598Z" fill="#CDE1FE"/>
</svg>
