<svg width="112" height="159" viewBox="0 0 112 159" fill="none" xmlns="http://www.w3.org/2000/svg">
<path d="M19.6994 17.815L10.2177 21.6969C8.30743 22.4789 6.12491 21.5644 5.34286 19.6542L1.46096 10.1724C0.678904 8.26216 1.59346 6.07964 3.50368 5.29758L12.9855 1.41569C14.8957 0.633633 17.0782 1.54819 17.8603 3.45841L21.7421 12.9402C22.5242 14.8504 21.6096 17.0329 19.6994 17.815Z" fill="#DADEFF"/>
<path d="M61.1818 67.2232C67.9924 64.411 75.7932 67.6524 78.6054 74.463L92.5642 108.269C95.3764 115.08 92.135 122.88 85.3244 125.693L51.5185 139.651C44.7079 142.464 36.907 139.222 34.0949 132.412L20.136 98.6057C17.3239 91.7951 20.5653 83.9942 27.3759 81.182L61.1818 67.2232ZM57.0492 57.2149L23.2433 71.1738C10.925 76.2601 5.04138 90.4199 10.1278 102.738L24.0866 136.544C29.1729 148.862 43.3327 154.746 55.651 149.66L89.4569 135.701C101.775 130.614 107.659 116.455 102.572 104.136L88.6136 70.3305C83.5273 58.0122 69.3675 52.1286 57.0492 57.2149Z" fill="#CDE1FE"/>
</svg>
