<svg width="165" height="34" viewBox="0 0 165 34" fill="none" xmlns="http://www.w3.org/2000/svg">
<path d="M99.7755 15.4849C94.8496 15.4849 90.8418 19.4926 90.8418 24.419C90.8418 29.345 94.8496 33.3528 99.7755 33.3528C104.701 33.3528 108.709 29.345 108.709 24.419C108.709 19.4926 104.701 15.4849 99.7755 15.4849ZM99.7755 29.9251C96.7395 29.9251 94.2694 27.4551 94.2694 24.419C94.2694 21.383 96.7395 18.9125 99.7755 18.9125C102.812 18.9125 105.282 21.383 105.282 24.419C105.282 27.4551 102.812 29.9251 99.7755 29.9251Z" fill="#3696FF"/>
<path d="M143.394 25.7823C143.394 27.9854 141.602 29.7777 139.399 29.7777C137.196 29.7777 135.404 27.985 135.404 25.7823V15.7222H131.976V25.7819C131.976 29.8749 135.306 33.2049 139.399 33.2049C143.492 33.2049 146.822 29.8749 146.822 25.7819V15.7222H143.394V25.7823Z" fill="#3696FF"/>
<path d="M81.7589 15.4507C79.8188 15.4507 78.0771 16.2965 76.8676 17.6328C75.6581 16.2965 73.916 15.4507 71.9759 15.4507C68.334 15.4507 65.3708 18.4139 65.3708 22.0558V32.8498H68.7985V22.0558C68.7985 20.3038 70.224 18.8783 71.9759 18.8783C73.7283 18.8783 75.1538 20.3038 75.1538 22.0558V32.8498H78.5814V22.0558C78.5814 20.3038 80.0069 18.8783 81.7589 18.8783C83.5108 18.8783 84.9363 20.3038 84.9363 22.0558V32.8498H88.3639V22.0558C88.3639 18.4139 85.4007 15.4507 81.7589 15.4507Z" fill="#3696FF"/>
<path d="M125.296 17.3978C123.777 16.2037 121.867 15.4852 119.79 15.4852C114.863 15.4852 110.855 19.493 110.855 24.4194C110.855 29.3453 114.863 33.3531 119.79 33.3531C124.716 33.3531 128.723 29.3453 128.723 24.4194V9.6582H125.296V17.3978ZM119.79 29.925C116.754 29.925 114.284 27.455 114.284 24.4189C114.284 21.3829 116.754 18.9124 119.79 18.9124C122.826 18.9124 125.296 21.3829 125.296 24.4189C125.296 27.455 122.826 29.925 119.79 29.925Z" fill="#3696FF"/>
<path d="M159.809 22.4118H159.452H154.946H154.589C153.616 22.4118 152.826 21.6204 152.826 20.6483C152.826 19.6761 153.617 18.8852 154.589 18.8852H163.367V15.4575H154.589C151.726 15.4575 149.398 17.7862 149.398 20.6483C149.398 23.5103 151.727 25.8394 154.589 25.8394H154.946H159.452H159.809C160.782 25.8394 161.573 26.6304 161.573 27.6025C161.573 28.5747 160.781 29.366 159.809 29.366H149.601V32.7937H159.809C162.672 32.7937 165 30.4646 165 27.6025C165 24.7404 162.672 22.4118 159.809 22.4118Z" fill="#3696FF"/>
<path d="M10.4796 32.8374L14.6892 24.4251L18.8975 32.8374H29.3775L18.8803 11.8542C18.0864 10.2672 16.4638 9.26465 14.6892 9.26465C12.9145 9.26465 11.2919 10.2672 10.498 11.8542L0 32.8374H10.4796Z" fill="#67E3E2"/>
<path d="M29.3788 32.8373L38.2247 15.1605L47.0667 32.8373H57.5472L42.4154 2.58959C41.6215 1.00259 39.9989 0 38.2242 0C36.4496 0 34.827 1.00259 34.0331 2.58959L18.8992 32.8373H29.3788Z" fill="#3491F7"/>
<path d="M24.1388 22.3652L29.3775 32.8375H18.8975L24.1388 22.3652Z" fill="#367AFF"/>
</svg>
