<svg width="157" height="158" viewBox="0 0 157 158" fill="none" xmlns="http://www.w3.org/2000/svg">
<path d="M82.0992 28.7124C91.227 24.2408 102.251 28.0154 106.723 37.1431L128.918 82.4505C133.39 91.5782 129.615 102.603 120.488 107.074L75.1804 129.27C66.0526 133.741 55.0282 129.967 50.5566 120.839L28.3611 75.5316C23.8895 66.4039 27.6641 55.3795 36.7919 50.9079L82.0992 28.7124ZM75.5282 15.2991L30.2208 37.4946C13.7116 45.5823 6.86009 65.5934 14.9478 82.1027L37.1433 127.41C45.231 143.919 65.2421 150.771 81.7514 142.683L127.059 120.488C143.568 112.4 150.419 92.3888 142.332 75.8795L120.136 30.5721C112.049 14.0628 92.0375 7.21139 75.5282 15.2991Z" fill="#ECF5FF"/>
</svg>
