<svg width="146" height="194" viewBox="0 0 146 194" fill="none" xmlns="http://www.w3.org/2000/svg">
<path d="M109.67 37.7502C119.431 40.5834 125.047 50.7933 122.214 60.5546L108.151 109.007C105.318 118.768 95.1076 124.385 85.3463 121.551L36.8941 107.488C27.1328 104.655 21.5164 94.4446 24.3497 84.6834L38.4131 36.2311C41.2464 26.4698 51.4563 20.8535 61.2176 23.6867L109.67 37.7502ZM113.833 23.4058L65.3811 9.34239C47.7259 4.21791 29.1932 14.4124 24.0688 32.0676L10.0053 80.5199C4.88084 98.1751 15.0754 116.708 32.7306 121.832L81.1828 135.896C98.838 141.02 117.371 130.826 122.495 113.17L136.559 64.7181C141.683 47.0629 131.489 28.5303 113.833 23.4058Z" fill="#ECF5FF"/>
<path d="M124.165 191.571L112.207 186.48C109.798 185.454 108.676 182.67 109.702 180.26L114.793 168.302C115.819 165.893 118.603 164.771 121.013 165.797L132.971 170.888C135.381 171.914 136.502 174.698 135.476 177.108L130.385 189.066C129.359 191.476 126.575 192.597 124.165 191.571Z" fill="#ECF5FF"/>
</svg>
