<svg width="10" height="6" viewBox="0 0 10 6" fill="none" xmlns="http://www.w3.org/2000/svg">
<path d="M1.65282 0.325131C1.45916 0.128279 1.14259 0.12569 0.945736 0.319348C0.748884 0.513007 0.746295 0.829579 0.939954 1.02643L1.65282 0.325131ZM5.29639 4.74175L4.93995 5.0924C5.03395 5.18794 5.16236 5.24175 5.29639 5.24175C5.43041 5.24175 5.55883 5.18794 5.65282 5.0924L5.29639 4.74175ZM9.65282 1.02643C9.84648 0.829579 9.84389 0.513007 9.64704 0.319348C9.45018 0.12569 9.13361 0.128279 8.93995 0.325131L9.65282 1.02643ZM0.939954 1.02643L4.93995 5.0924L5.65282 4.3911L1.65282 0.325131L0.939954 1.02643ZM5.65282 5.0924L9.65282 1.02643L8.93995 0.325131L4.93995 4.3911L5.65282 5.0924Z" fill="#3696FF"/>
</svg>
