<svg width="6" height="10" viewBox="0 0 6 10" fill="none" xmlns="http://www.w3.org/2000/svg">
<path d="M4.91312 8.54733C5.10839 8.74259 5.10839 9.05917 4.91312 9.25443C4.71786 9.44969 4.40128 9.44969 4.20602 9.25443L4.91312 8.54733ZM0.55957 4.90088L0.206017 5.25443C0.0107548 5.05917 0.0107548 4.74259 0.206017 4.54733L0.55957 4.90088ZM4.20602 0.547325C4.40128 0.352063 4.71786 0.352063 4.91312 0.547325C5.10839 0.742588 5.10839 1.05917 4.91312 1.25443L4.20602 0.547325ZM4.20602 9.25443L0.206017 5.25443L0.913124 4.54733L4.91312 8.54733L4.20602 9.25443ZM0.206017 4.54733L4.20602 0.547325L4.91312 1.25443L0.913124 5.25443L0.206017 4.54733Z" fill="#3696FF"/>
</svg>
