<svg width="211" height="246" viewBox="0 0 211 246" fill="none" xmlns="http://www.w3.org/2000/svg">
<path d="M141.173 107.046C153.744 110.695 160.977 123.844 157.328 136.416L139.216 198.817C135.567 211.388 122.418 218.621 109.847 214.972L47.446 196.86C34.8745 193.211 27.6413 180.062 31.2902 167.491L49.4023 105.09C53.0512 92.5184 66.2004 85.2852 78.7719 88.9341L141.173 107.046ZM146.535 88.5723L84.134 70.4603C61.3961 63.8605 37.5282 76.9898 30.9284 99.7277L12.8164 162.129C6.21662 184.867 19.346 208.734 42.0839 215.334L104.485 233.446C127.223 240.046 151.091 226.917 157.69 204.179L175.802 141.778C182.402 119.04 169.273 95.1721 146.535 88.5723Z" fill="#ECF5FF"/>
<path d="M186.885 50.9564L165.049 41.66C160.65 39.7871 158.603 34.7028 160.476 30.3037L169.772 8.46831C171.645 4.06929 176.729 2.02144 181.128 3.89432L202.964 13.1907C207.363 15.0636 209.411 20.148 207.538 24.547L198.241 46.3825C196.368 50.7815 191.284 52.8293 186.885 50.9564Z" fill="#ECF5FF"/>
</svg>
