<svg xmlns="http://www.w3.org/2000/svg" xmlns:xlink="http://www.w3.org/1999/xlink" width="27" height="19" viewBox="0 0 27 19"><defs><style>.a3d3b1be-6602-4d95-bc7d-f25fa38abdfd{fill:#55a5fd;}.f3b6715c-f4be-443f-861c-04849a23171f{fill:url(#f3d832e5-c231-4e38-a4d2-1676de7f5c9a);}.fbe9221c-0bee-4732-99d7-c75c515f5187{fill:#364560;fill-rule:evenodd;}</style><linearGradient id="f3d832e5-c231-4e38-a4d2-1676de7f5c9a" x1="13.5" y1="20" x2="13.5" y2="1" gradientTransform="matrix(1, 0, 0, -1, 0, 20)" gradientUnits="userSpaceOnUse"><stop offset="0.11" stop-color="#565eff" stop-opacity="0"/><stop offset="1" stop-color="#2830dc"/></linearGradient></defs><title>youtube-icon-footer-hover</title><g id="a3024c83-00ee-47e9-a5f6-836decb20318" data-name="Слой 2"><path class="a3d3b1be-6602-4d95-bc7d-f25fa38abdfd" d="M23.33,18.79S16,19,13.5,19s-9.83-.21-9.83-.21A3.47,3.47,0,0,1,.21,15.31S0,11,0,9.5.21,3.69.21,3.69A3.47,3.47,0,0,1,3.67.21S11,0,13.5,0s9.83.21,9.83.21a3.47,3.47,0,0,1,3.46,3.48S27,8,27,9.5s-.21,5.81-.21,5.81A3.47,3.47,0,0,1,23.33,18.79Z"/><path class="f3b6715c-f4be-443f-861c-04849a23171f" d="M23.33,18.79S16,19,13.5,19s-9.83-.21-9.83-.21A3.47,3.47,0,0,1,.21,15.31S0,11,0,9.5.21,3.69.21,3.69A3.47,3.47,0,0,1,3.67.21S11,0,13.5,0s9.83.21,9.83.21a3.47,3.47,0,0,1,3.46,3.48S27,8,27,9.5s-.21,5.81-.21,5.81A3.47,3.47,0,0,1,23.33,18.79Z"/></g><g id="aae8defc-2a4e-43bb-822e-edea960e8317" data-name="Слой 3"><path class="fbe9221c-0bee-4732-99d7-c75c515f5187" d="M11.16,13.75V5.25L18,9.5Z"/></g></svg>