<svg width="391" height="255" viewBox="0 0 391 255" fill="none" xmlns="http://www.w3.org/2000/svg">
<g opacity="0.5">
<g style="mix-blend-mode:multiply" opacity="0.5">
<path opacity="0.5" d="M384.528 212.583L98.6016 204.754L97.45 246.811L383.377 254.64L384.528 212.583Z" fill="white"/>
<path opacity="0.5" d="M240.252 247.755C310.957 249.292 368.442 242.843 368.648 233.351C368.854 223.858 311.704 214.917 240.999 213.381C170.295 211.844 112.81 218.293 112.604 227.785C112.398 237.277 169.548 246.218 240.252 247.755Z" fill="white"/>
<path opacity="0.5" d="M239.819 247.678C310.246 249.209 367.505 242.785 367.711 233.33C367.916 223.875 310.99 214.969 240.563 213.438C170.136 211.908 112.876 218.331 112.671 227.786C112.465 237.241 169.391 246.147 239.819 247.678Z" fill="white"/>
<path opacity="0.5" d="M239.379 247.601C309.529 249.125 366.563 242.727 366.768 233.309C366.972 223.891 310.27 215.021 240.12 213.496C169.97 211.971 112.937 218.37 112.732 227.787C112.527 237.205 169.229 246.076 239.379 247.601Z" fill="white"/>
<path opacity="0.5" d="M238.943 247.523C308.816 249.042 365.625 242.669 365.828 233.288C366.032 223.908 309.555 215.072 239.682 213.554C169.809 212.035 113.001 218.408 112.797 227.789C112.593 237.169 169.071 246.005 238.943 247.523Z" fill="white"/>
<path opacity="0.5" d="M238.506 247.446C308.101 248.959 364.684 242.611 364.887 233.268C365.091 223.925 308.837 215.124 239.241 213.611C169.646 212.099 113.063 218.447 112.86 227.79C112.657 237.133 168.91 245.934 238.506 247.446Z" fill="white"/>
<path opacity="0.5" d="M238.069 247.369C307.387 248.876 363.745 242.553 363.947 233.247C364.149 223.941 308.12 215.175 238.802 213.669C169.484 212.162 113.126 218.485 112.924 227.791C112.722 237.097 168.751 245.863 238.069 247.369Z" fill="#FEFFFF"/>
<path opacity="0.5" d="M237.633 247.292C306.674 248.793 362.806 242.495 363.007 233.226C363.209 223.958 307.403 215.227 238.362 213.726C169.321 212.226 113.189 218.523 112.988 227.792C112.786 237.061 168.592 245.791 237.633 247.292Z" fill="#FEFFFF"/>
<path opacity="0.5" d="M237.195 247.215C305.959 248.71 361.865 242.437 362.066 233.206C362.267 223.974 306.685 215.279 237.922 213.784C169.158 212.289 113.251 218.561 113.051 227.793C112.85 237.025 168.431 245.72 237.195 247.215Z" fill="#FEFEFF"/>
<path opacity="0.5" d="M236.758 247.137C305.245 248.626 360.926 242.379 361.126 233.185C361.326 223.99 305.968 215.33 237.482 213.841C168.996 212.353 113.315 218.6 113.115 227.794C112.915 236.989 168.272 245.649 236.758 247.137Z" fill="#FEFEFF"/>
<path opacity="0.5" d="M236.322 247.06C304.531 248.543 359.987 242.321 360.186 233.164C360.385 224.007 305.252 215.382 237.043 213.899C168.833 212.417 113.378 218.638 113.179 227.795C112.98 236.953 168.113 245.578 236.322 247.06Z" fill="#FEFEFF"/>
<path opacity="0.5" d="M235.884 246.983C303.816 248.46 359.046 242.264 359.245 233.144C359.443 224.024 304.534 215.433 236.602 213.957C168.67 212.48 113.44 218.677 113.242 227.797C113.043 236.917 167.952 245.507 235.884 246.983Z" fill="#FDFEFF"/>
<path opacity="0.5" d="M235.447 246.906C303.101 248.377 358.106 242.206 358.303 233.123C358.501 224.04 303.816 215.485 236.162 214.015C168.507 212.544 113.502 218.715 113.305 227.798C113.107 236.881 167.792 245.436 235.447 246.906Z" fill="#FDFEFE"/>
<path opacity="0.5" d="M235.01 246.829C302.387 248.294 357.167 242.148 357.363 233.102C357.56 224.057 303.099 215.537 235.722 214.072C168.345 212.608 113.565 218.753 113.369 227.799C113.172 236.844 167.633 245.365 235.01 246.829Z" fill="#FDFEFE"/>
<path opacity="0.5" d="M234.573 246.752C301.673 248.21 356.227 242.09 356.423 233.082C356.619 224.073 302.382 215.588 235.282 214.13C168.182 212.671 113.628 218.792 113.433 227.8C113.237 236.808 167.473 245.293 234.573 246.752Z" fill="#FDFEFE"/>
<path opacity="0.5" d="M234.138 246.675C300.961 248.127 355.289 242.032 355.484 233.061C355.679 224.09 301.667 215.64 234.844 214.187C168.021 212.735 113.693 218.83 113.498 227.801C113.303 236.772 167.315 245.222 234.138 246.675Z" fill="#FCFDFE"/>
<path opacity="0.5" d="M233.7 246.597C300.246 248.044 354.349 241.974 354.543 233.04C354.737 224.106 300.949 215.691 234.403 214.245C167.858 212.799 113.755 218.868 113.561 227.802C113.366 236.736 167.155 245.151 233.7 246.597Z" fill="#FCFDFE"/>
<path opacity="0.5" d="M233.265 246.52C299.533 247.961 353.41 241.916 353.604 233.02C353.797 224.123 300.233 215.743 233.965 214.303C167.697 212.862 113.819 218.907 113.625 227.804C113.432 236.7 166.996 245.08 233.265 246.52Z" fill="#FCFDFE"/>
<path opacity="0.5" d="M232.826 246.443C298.817 247.878 352.469 241.858 352.662 232.999C352.854 224.14 299.514 215.795 233.523 214.36C167.532 212.926 113.88 218.945 113.687 227.805C113.495 236.664 166.835 245.009 232.826 246.443Z" fill="#FBFDFE"/>
<path opacity="0.5" d="M232.388 246.366C298.102 247.794 351.529 241.801 351.721 232.978C351.913 224.156 298.797 215.846 233.083 214.418C167.369 212.99 113.942 218.984 113.75 227.806C113.559 236.628 166.675 244.938 232.388 246.366Z" fill="#FBFDFE"/>
<path opacity="0.5" d="M231.955 246.289C297.391 247.711 350.592 241.742 350.783 232.957C350.974 224.172 298.082 215.898 232.646 214.475C167.21 213.053 114.008 219.022 113.817 227.807C113.626 236.592 166.518 244.866 231.955 246.289Z" fill="#FBFCFE"/>
<path opacity="0.5" d="M231.516 246.212C296.675 247.628 349.651 241.684 349.841 232.937C350.032 224.189 297.364 215.949 232.205 214.533C167.046 213.117 114.069 219.06 113.879 227.808C113.689 236.556 166.357 244.795 231.516 246.212Z" fill="#FAFCFE"/>
<path opacity="0.5" d="M231.079 246.134C295.96 247.545 348.711 241.627 348.9 232.916C349.09 224.206 296.646 216.001 231.764 214.591C166.882 213.18 114.132 219.099 113.942 227.809C113.753 236.52 166.197 244.724 231.079 246.134Z" fill="#FAFCFD"/>
<path opacity="0.5" d="M230.643 246.057C295.247 247.461 347.773 241.569 347.961 232.895C348.15 224.222 295.93 216.053 231.326 214.648C166.721 213.244 114.196 219.137 114.007 227.81C113.819 236.484 166.038 244.653 230.643 246.057Z" fill="#FAFCFD"/>
<path opacity="0.5" d="M230.204 245.98C294.532 247.378 346.831 241.511 347.019 232.875C347.207 224.239 295.211 216.104 230.884 214.706C166.557 213.308 114.257 219.175 114.069 227.811C113.882 236.448 165.877 244.582 230.204 245.98Z" fill="#F9FCFD"/>
<path opacity="0.5" d="M229.769 245.903C293.819 247.295 345.893 241.453 346.08 232.854C346.267 224.255 294.496 216.156 230.446 214.764C166.396 213.371 114.321 219.214 114.134 227.813C113.947 236.411 165.719 244.511 229.769 245.903Z" fill="#F9FBFD"/>
<path opacity="0.5" d="M229.332 245.826C293.105 247.212 344.954 241.395 345.14 232.833C345.326 224.272 293.779 216.208 230.006 214.821C166.233 213.435 114.384 219.252 114.198 227.814C114.012 236.375 165.559 244.44 229.332 245.826Z" fill="#F8FBFD"/>
<path opacity="0.5" d="M228.895 245.748C292.39 247.129 344.014 241.337 344.199 232.813C344.384 224.288 293.061 216.259 229.565 214.879C166.07 213.499 114.446 219.29 114.261 227.815C114.076 236.339 165.399 244.368 228.895 245.748Z" fill="#F8FBFD"/>
<path opacity="0.5" d="M228.459 245.671C291.677 247.045 343.075 241.279 343.26 232.792C343.444 224.305 292.345 216.311 229.127 214.937C165.909 213.563 114.511 219.329 114.326 227.816C114.142 236.303 165.241 244.297 228.459 245.671Z" fill="#F8FAFD"/>
<path opacity="0.5" d="M228.019 245.594C290.96 246.962 342.133 241.221 342.316 232.771C342.5 224.322 291.625 216.362 228.684 214.994C165.743 213.626 114.571 219.367 114.387 227.817C114.203 236.267 165.078 244.226 228.019 245.594Z" fill="#F7FAFC"/>
<path opacity="0.5" d="M227.583 245.517C290.246 246.879 341.193 241.163 341.376 232.751C341.559 224.338 290.909 216.414 228.245 215.052C165.581 213.69 114.634 219.406 114.451 227.818C114.268 236.231 164.919 244.155 227.583 245.517Z" fill="#F7FAFC"/>
<path opacity="0.5" d="M340.437 232.73C340.255 241.106 289.533 246.796 227.147 245.44C164.761 244.084 114.334 236.195 114.516 227.819C114.698 219.444 165.42 213.753 227.806 215.109C290.193 216.465 340.619 224.355 340.437 232.73Z" fill="#F6FAFC"/>
<path opacity="0.5" d="M226.708 245.363C288.818 246.713 339.314 241.048 339.495 232.709C339.676 224.371 289.474 216.517 227.365 215.167C165.256 213.817 114.759 219.482 114.578 227.821C114.397 236.159 164.599 244.013 226.708 245.363Z" fill="#F6F9FC"/>
<path opacity="0.5" d="M226.274 245.286C288.106 246.63 338.376 240.99 338.557 232.689C338.737 224.388 288.759 216.569 226.927 215.225C165.095 213.881 114.824 219.521 114.644 227.822C114.464 236.123 164.442 243.942 226.274 245.286Z" fill="#F5F9FC"/>
<path opacity="0.5" d="M225.837 245.208C287.392 246.546 337.437 240.932 337.617 232.668C337.796 224.404 288.042 216.62 226.488 215.282C164.933 213.944 114.888 219.559 114.708 227.823C114.528 236.087 164.283 243.87 225.837 245.208Z" fill="#F5F9FC"/>
<path opacity="0.5" d="M225.399 245.131C286.676 246.463 336.496 240.874 336.675 232.647C336.853 224.42 287.323 216.672 226.046 215.34C164.769 214.008 114.949 219.597 114.77 227.824C114.591 236.05 164.121 243.799 225.399 245.131Z" fill="#F4F9FC"/>
<path opacity="0.5" d="M224.963 245.054C285.963 246.38 335.558 240.816 335.736 232.626C335.914 224.437 286.608 216.723 225.608 215.397C164.608 214.072 115.013 219.636 114.835 227.825C114.657 236.014 163.963 243.728 224.963 245.054Z" fill="#F4F8FB"/>
<path opacity="0.5" d="M224.524 244.977C285.247 246.297 334.616 240.758 334.793 232.606C334.971 224.454 285.889 216.775 225.166 215.455C164.443 214.135 115.074 219.674 114.897 227.826C114.72 235.978 163.802 243.657 224.524 244.977Z" fill="#F3F8FB"/>
<path opacity="0.5" d="M224.09 244.9C284.535 246.214 333.679 240.7 333.855 232.585C334.032 224.47 285.174 216.827 224.728 215.513C164.283 214.199 115.139 219.713 114.963 227.827C114.786 235.942 163.644 243.586 224.09 244.9Z" fill="#F3F8FB"/>
<path opacity="0.5" d="M223.651 244.823C283.819 246.13 332.738 240.642 332.913 232.565C333.089 224.487 284.455 216.878 224.287 215.571C164.119 214.263 115.2 219.751 115.025 227.829C114.849 235.906 163.483 243.515 223.651 244.823Z" fill="#F2F7FB"/>
<path opacity="0.5" d="M223.215 244.745C283.106 246.047 331.799 240.584 331.974 232.544C332.149 224.503 283.739 216.93 223.848 215.628C163.957 214.326 115.265 219.789 115.09 227.83C114.915 235.87 163.325 243.443 223.215 244.745Z" fill="#F2F7FB"/>
<path opacity="0.5" d="M222.778 244.668C282.392 245.964 330.859 240.527 331.033 232.523C331.207 224.52 283.022 216.982 223.408 215.686C163.794 214.39 115.327 219.828 115.153 227.831C114.979 235.834 163.164 243.373 222.778 244.668Z" fill="#F1F7FB"/>
<path opacity="0.5" d="M222.341 244.591C281.678 245.881 329.92 240.468 330.093 232.502C330.266 224.536 282.305 217.033 222.968 215.743C163.632 214.454 115.39 219.866 115.217 227.832C115.044 235.798 163.005 243.301 222.341 244.591Z" fill="#F1F6FA"/>
<path opacity="0.5" d="M221.904 244.514C280.963 245.798 328.979 240.411 329.152 232.482C329.324 224.553 281.587 217.085 222.528 215.801C163.469 214.517 115.452 219.904 115.28 227.833C115.107 235.762 162.845 243.23 221.904 244.514Z" fill="#F0F6FA"/>
<path opacity="0.5" d="M221.468 244.437C280.25 245.714 328.041 240.353 328.213 232.461C328.384 224.57 280.871 217.136 222.089 215.859C163.307 214.581 115.516 219.943 115.345 227.834C115.173 235.726 162.686 243.159 221.468 244.437Z" fill="#F0F6FA"/>
<path opacity="0.5" d="M221.03 244.359C279.535 245.631 327.101 240.295 327.271 232.44C327.442 224.586 280.153 217.188 221.649 215.916C163.144 214.645 115.578 219.981 115.408 227.835C115.237 235.69 162.526 243.088 221.03 244.359Z" fill="#EFF5FA"/>
<path opacity="0.5" d="M220.594 244.282C278.821 245.548 326.161 240.237 326.331 232.42C326.501 224.603 279.436 217.24 221.209 215.974C162.982 214.708 115.642 220.019 115.472 227.837C115.302 235.654 162.367 243.017 220.594 244.282Z" fill="#EEF5FA"/>
<path opacity="0.5" d="M220.156 244.205C278.106 245.465 325.221 240.179 325.39 232.399C325.559 224.619 278.719 217.291 220.769 216.032C162.819 214.772 115.704 220.058 115.535 227.838C115.366 235.618 162.206 242.946 220.156 244.205Z" fill="#EEF5FA"/>
<path opacity="0.5" d="M219.719 244.128C277.391 245.381 324.281 240.121 324.449 232.378C324.617 224.636 278.001 217.343 220.328 216.089C162.655 214.836 115.766 220.096 115.598 227.839C115.429 235.581 162.046 242.874 219.719 244.128Z" fill="#EDF4F9"/>
<path opacity="0.5" d="M219.281 244.051C276.676 245.298 323.34 240.063 323.508 232.358C323.675 224.652 277.283 217.394 219.888 216.147C162.492 214.899 115.828 220.134 115.661 227.84C115.493 235.545 161.886 242.803 219.281 244.051Z" fill="#EDF4F9"/>
<path opacity="0.5" d="M218.845 243.973C275.963 245.215 322.401 240.005 322.568 232.337C322.735 224.668 276.566 217.446 219.448 216.204C162.33 214.963 115.891 220.173 115.725 227.841C115.558 235.509 161.726 242.732 218.845 243.973Z" fill="#ECF3F9"/>
<path opacity="0.5" d="M218.409 243.896C275.25 245.132 321.463 239.947 321.629 232.316C321.795 224.685 275.85 217.498 219.009 216.262C162.169 215.027 115.955 220.211 115.79 227.842C115.624 235.473 161.568 242.661 218.409 243.896Z" fill="#EBF3F9"/>
<path opacity="0.5" d="M217.971 243.819C274.535 245.049 320.523 239.889 320.688 232.295C320.853 224.702 275.133 217.549 218.569 216.32C162.005 215.09 116.018 220.25 115.853 227.843C115.687 235.437 161.408 242.59 217.971 243.819Z" fill="#EBF3F9"/>
<path opacity="0.5" d="M217.535 243.742C273.821 244.965 319.583 239.831 319.748 232.275C319.912 224.718 274.416 217.601 218.129 216.377C161.843 215.154 116.081 220.288 115.916 227.844C115.752 235.401 161.248 242.518 217.535 243.742Z" fill="#EAF2F8"/>
<path opacity="0.5" d="M217.099 243.665C273.108 244.882 318.645 239.774 318.808 232.254C318.972 224.735 273.7 217.652 217.691 216.435C161.682 215.218 116.145 220.326 115.981 227.846C115.818 235.365 161.09 242.448 217.099 243.665Z" fill="#EAF2F8"/>
<path opacity="0.5" d="M216.66 243.588C272.392 244.799 317.704 239.716 317.866 232.234C318.029 224.751 272.981 217.704 217.249 216.493C161.517 215.281 116.206 220.365 116.043 227.847C115.881 235.329 160.929 242.376 216.66 243.588Z" fill="#E9F2F8"/>
<path opacity="0.5" d="M216.223 243.511C271.677 244.716 316.763 239.658 316.925 232.213C317.087 224.768 272.263 217.756 216.809 216.55C161.354 215.345 116.268 220.403 116.106 227.848C115.945 235.293 160.768 242.305 216.223 243.511Z" fill="#E8F1F8"/>
<path opacity="0.5" d="M215.788 243.433C270.965 244.633 315.826 239.6 315.987 232.192C316.148 224.784 271.548 217.807 216.371 216.608C161.194 215.409 116.333 220.441 116.172 227.849C116.011 235.257 160.611 242.234 215.788 243.433Z" fill="#E8F1F7"/>
<path opacity="0.5" d="M215.35 243.356C270.25 244.549 314.885 239.542 315.045 232.171C315.205 224.801 270.83 217.859 215.93 216.665C161.03 215.472 116.395 220.48 116.234 227.85C116.074 235.221 160.45 242.163 215.35 243.356Z" fill="#E7F0F7"/>
<path opacity="0.5" d="M214.914 243.279C269.537 244.466 313.946 239.484 314.106 232.151C314.265 224.818 270.114 217.911 215.491 216.723C160.868 215.536 116.459 220.518 116.299 227.851C116.14 235.185 160.291 242.092 214.914 243.279Z" fill="#E6F0F7"/>
<path opacity="0.5" d="M214.477 243.202C268.823 244.383 313.007 239.426 313.166 232.13C313.324 224.834 269.397 217.962 215.052 216.781C160.706 215.6 116.522 220.557 116.363 227.853C116.205 235.149 160.132 242.021 214.477 243.202Z" fill="#E6EFF7"/>
<path opacity="0.5" d="M312.225 232.109C312.067 239.368 268.108 244.3 214.04 243.125C159.972 241.949 116.269 235.112 116.427 227.854C116.584 220.595 160.543 215.663 214.611 216.838C268.68 218.014 312.383 224.851 312.225 232.109Z" fill="#E5EFF7"/>
<path opacity="0.5" d="M213.603 243.047C267.394 244.216 311.127 239.31 311.284 232.089C311.441 224.867 267.962 218.065 214.171 216.896C160.381 215.727 116.647 220.633 116.49 227.855C116.333 235.076 159.812 241.878 213.603 243.047Z" fill="#E4EFF6"/>
<path opacity="0.5" d="M213.167 242.97C266.681 244.133 310.189 239.252 310.345 232.068C310.501 224.884 267.247 218.117 213.733 216.954C160.219 215.79 116.711 220.672 116.555 227.856C116.399 235.04 159.654 241.807 213.167 242.97Z" fill="#E4EEF6"/>
<path opacity="0.5" d="M212.73 242.893C265.966 244.05 309.249 239.194 309.404 232.047C309.559 224.9 266.529 218.168 213.292 217.011C160.056 215.854 116.773 220.71 116.618 227.857C116.463 235.004 159.493 241.736 212.73 242.893Z" fill="#E3EEF6"/>
<path opacity="0.5" d="M212.291 242.816C265.25 243.967 308.307 239.137 308.462 232.027C308.616 224.917 265.81 218.22 212.851 217.069C159.892 215.918 116.835 220.748 116.68 227.858C116.526 234.968 159.332 241.665 212.291 242.816Z" fill="#E2EDF6"/>
<path opacity="0.5" d="M211.854 242.739C264.536 243.884 307.367 239.079 307.521 232.006C307.675 224.934 265.092 218.272 212.41 217.127C159.729 215.982 116.897 220.787 116.743 227.859C116.589 234.932 159.172 241.594 211.854 242.739Z" fill="#E1EDF6"/>
<path opacity="0.5" d="M211.419 242.661C263.824 243.801 306.43 239.021 306.583 231.985C306.736 224.95 264.377 218.323 211.973 217.184C159.568 216.045 116.962 220.825 116.809 227.86C116.656 234.896 159.014 241.522 211.419 242.661Z" fill="#E1ECF5"/>
<path opacity="0.5" d="M210.98 242.584C263.108 243.717 305.488 238.963 305.641 231.964C305.793 224.966 263.659 218.375 211.531 217.242C159.404 216.109 117.023 220.863 116.871 227.861C116.719 234.86 158.853 241.451 210.98 242.584Z" fill="#E0ECF5"/>
<path opacity="0.5" d="M304.7 231.944C304.548 238.905 262.393 243.634 210.543 242.507C158.693 241.38 116.783 234.824 116.934 227.863C117.085 220.902 159.241 216.172 211.091 217.299C262.941 218.426 304.851 224.983 304.7 231.944Z" fill="#DFECF5"/>
<path opacity="0.5" d="M210.107 242.43C261.68 243.551 303.61 238.847 303.76 231.923C303.911 225 262.225 218.478 210.652 217.357C159.079 216.236 117.149 220.94 116.999 227.864C116.848 234.788 158.534 241.309 210.107 242.43Z" fill="#DFEBF5"/>
<path opacity="0.5" d="M209.671 242.353C260.966 243.468 302.671 238.789 302.82 231.903C302.97 225.016 261.508 218.53 210.213 217.415C158.917 216.3 117.213 220.978 117.063 227.865C116.913 234.752 158.375 241.238 209.671 242.353Z" fill="#DEEBF4"/>
<path opacity="0.5" d="M209.232 242.276C260.25 243.385 301.729 238.731 301.878 231.882C302.027 225.033 260.789 218.581 209.771 217.472C158.753 216.363 117.274 221.017 117.125 227.866C116.976 234.716 158.214 241.167 209.232 242.276Z" fill="#DDEAF4"/>
<path opacity="0.5" d="M208.796 242.199C259.537 243.301 300.791 238.673 300.939 231.861C301.087 225.049 260.074 218.633 209.333 217.53C158.592 216.427 117.338 221.055 117.19 227.867C117.042 234.679 158.055 241.096 208.796 242.199Z" fill="#DCEAF4"/>
<path opacity="0.5" d="M208.36 242.121C258.823 243.218 299.852 238.615 299.999 231.84C300.146 225.066 259.357 218.684 208.893 217.587C158.429 216.491 117.401 221.094 117.254 227.868C117.107 234.643 157.896 241.025 208.36 242.121Z" fill="#DCE9F4"/>
<path opacity="0.5" d="M207.923 242.044C258.11 243.135 298.912 238.557 299.059 231.82C299.205 225.082 258.64 218.736 208.453 217.645C158.267 216.554 117.464 221.132 117.318 227.869C117.171 234.607 157.737 240.953 207.923 242.044Z" fill="#DBE9F3"/>
<path opacity="0.5" d="M207.487 241.967C257.396 243.052 297.973 238.5 298.119 231.799C298.264 225.099 257.923 218.788 208.014 217.703C158.105 216.618 117.527 221.17 117.382 227.871C117.236 234.571 157.577 240.882 207.487 241.967Z" fill="#DAE8F3"/>
<path opacity="0.5" d="M297.175 231.778C297.031 238.442 256.679 242.969 207.047 241.89C157.415 240.811 117.298 234.535 117.443 227.872C117.588 221.209 157.939 216.681 207.571 217.76C257.203 218.839 297.32 225.115 297.175 231.778Z" fill="#D9E8F3"/>
<path opacity="0.5" d="M206.612 241.813C255.967 242.885 296.093 238.383 296.237 231.758C296.381 225.132 256.488 218.891 207.134 217.818C157.779 216.745 117.653 221.247 117.509 227.873C117.365 234.499 157.258 240.74 206.612 241.813Z" fill="#D8E7F3"/>
<path opacity="0.5" d="M295.297 231.737C295.154 238.326 255.253 242.802 206.176 241.736C157.098 240.669 117.429 234.463 117.573 227.874C117.716 221.285 157.617 216.809 206.694 217.876C255.771 218.943 295.44 225.148 295.297 231.737Z" fill="#D8E7F2"/>
<path opacity="0.5" d="M205.738 241.658C254.538 242.719 294.214 238.268 294.356 231.716C294.499 225.165 255.054 218.994 206.254 217.933C157.454 216.873 117.778 221.324 117.636 227.875C117.493 234.427 156.938 240.598 205.738 241.658Z" fill="#D7E6F2"/>
<path opacity="0.5" d="M205.303 241.581C253.825 242.636 293.276 238.21 293.417 231.696C293.559 225.181 254.338 219.046 205.815 217.991C157.292 216.936 117.842 221.362 117.701 227.876C117.559 234.391 156.78 240.527 205.303 241.581Z" fill="#D6E6F2"/>
<path opacity="0.5" d="M204.864 241.504C253.109 242.553 292.334 238.152 292.475 231.675C292.616 225.198 253.619 219.097 205.374 218.049C157.128 217 117.903 221.4 117.763 227.878C117.622 234.355 156.618 240.455 204.864 241.504Z" fill="#D5E5F2"/>
<path opacity="0.5" d="M204.426 241.427C252.395 242.47 291.394 238.094 291.534 231.654C291.674 225.214 252.901 219.149 204.933 218.106C156.965 217.064 117.966 221.439 117.826 227.879C117.686 234.319 156.458 240.384 204.426 241.427Z" fill="#D4E5F1"/>
<path opacity="0.5" d="M203.991 241.35C251.682 242.386 290.456 238.036 290.595 231.634C290.734 225.231 252.186 219.2 204.495 218.164C156.804 217.127 118.03 221.477 117.891 227.88C117.751 234.282 156.3 240.313 203.991 241.35Z" fill="#D4E4F1"/>
<path opacity="0.5" d="M289.653 231.613C289.515 237.978 250.966 242.303 203.553 241.273C156.139 240.242 117.815 234.246 117.953 227.881C118.092 221.516 156.64 217.191 204.054 218.221C251.467 219.252 289.792 225.248 289.653 231.613Z" fill="#D3E4F1"/>
<path opacity="0.5" d="M288.714 231.592C288.577 237.921 250.254 242.22 203.118 241.195C155.981 240.171 117.881 234.21 118.019 227.882C118.156 221.554 156.479 217.255 203.616 218.279C250.752 219.304 288.852 225.264 288.714 231.592Z" fill="#D2E3F0"/>
<path opacity="0.5" d="M202.68 241.118C249.539 242.137 287.637 237.863 287.773 231.572C287.91 225.281 250.034 219.355 203.175 218.337C156.316 217.318 118.218 221.592 118.082 227.883C117.945 234.174 155.821 240.1 202.68 241.118Z" fill="#D1E3F0"/>
<path opacity="0.5" d="M202.244 241.041C248.826 242.054 286.698 237.805 286.834 231.551C286.97 225.298 249.318 219.407 202.736 218.395C156.155 217.382 118.282 221.631 118.146 227.885C118.011 234.138 155.662 240.029 202.244 241.041Z" fill="#D0E2F0"/>
<path opacity="0.5" d="M201.805 240.964C248.109 241.97 285.756 237.747 285.891 231.53C286.026 225.314 248.599 219.458 202.294 218.452C155.989 217.445 118.343 221.669 118.207 227.885C118.072 234.102 155.5 239.957 201.805 240.964Z" fill="#CFE2F0"/>
<path opacity="0.5" d="M201.368 240.887C247.395 241.887 284.817 237.689 284.951 231.509C285.085 225.33 247.882 219.51 201.854 218.509C155.827 217.509 118.406 221.707 118.271 227.887C118.137 234.066 155.341 239.886 201.368 240.887Z" fill="#CEE1EF"/>
<path opacity="0.5" d="M200.931 240.809C246.681 241.804 283.877 237.631 284.011 231.489C284.144 225.347 247.165 219.561 201.415 218.567C155.665 217.573 118.469 221.746 118.335 227.888C118.202 234.03 155.181 239.815 200.931 240.809Z" fill="#CEE1EF"/>
<path opacity="0.5" d="M200.494 240.732C245.967 241.721 282.937 237.573 283.07 231.468C283.203 225.363 246.447 219.613 200.974 218.625C155.502 217.636 118.531 221.784 118.398 227.889C118.266 233.994 155.021 239.744 200.494 240.732Z" fill="#CDE0EF"/>
<path opacity="0.5" d="M200.059 240.655C245.255 241.637 282 237.515 282.132 231.447C282.264 225.38 245.732 219.665 200.537 218.682C155.341 217.7 118.596 221.822 118.464 227.89C118.332 233.957 154.864 239.673 200.059 240.655Z" fill="#CCE0EF"/>
<path opacity="0.5" d="M199.622 240.578C244.54 241.555 281.059 237.457 281.191 231.427C281.322 225.397 245.014 219.717 200.096 218.74C155.178 217.764 118.658 221.861 118.527 227.891C118.396 233.922 154.703 239.602 199.622 240.578Z" fill="#CBDFEE"/>
<path opacity="0.5" d="M199.184 240.501C243.825 241.471 280.119 237.399 280.249 231.406C280.38 225.413 244.297 219.768 199.656 218.798C155.015 217.827 118.721 221.899 118.59 227.892C118.46 233.885 154.543 239.53 199.184 240.501Z" fill="#CADFEE"/>
<path opacity="0.5" d="M198.748 240.424C243.112 241.388 279.181 237.342 279.31 231.386C279.44 225.43 243.581 219.82 199.217 218.855C154.853 217.891 118.785 221.938 118.655 227.894C118.526 233.85 154.385 239.46 198.748 240.424Z" fill="#C9DEEE"/>
<path opacity="0.5" d="M198.312 240.347C242.398 241.305 278.241 237.284 278.37 231.365C278.499 225.446 242.864 219.871 198.778 218.913C154.691 217.955 118.848 221.976 118.719 227.895C118.591 233.813 154.225 239.388 198.312 240.347Z" fill="#C8DEED"/>
<path opacity="0.5" d="M197.874 240.269C241.683 241.221 277.301 237.225 277.429 231.344C277.557 225.463 242.146 219.923 198.337 218.97C154.528 218.018 118.91 222.014 118.782 227.896C118.654 233.777 154.065 239.317 197.874 240.269Z" fill="#C7DDED"/>
<path opacity="0.5" d="M197.438 240.192C240.97 241.139 276.363 237.168 276.49 231.324C276.617 225.479 241.43 219.975 197.898 219.028C154.367 218.082 118.974 222.053 118.847 227.897C118.72 233.741 153.907 239.246 197.438 240.192Z" fill="#C6DCED"/>
<path opacity="0.5" d="M196.999 240.115C240.254 241.055 275.421 237.11 275.547 231.303C275.673 225.496 240.711 220.026 197.456 219.086C154.201 218.146 119.034 222.091 118.908 227.898C118.782 233.705 153.744 239.175 196.999 240.115Z" fill="#C6DCED"/>
<path opacity="0.5" d="M274.609 231.282C274.483 237.052 239.542 240.972 196.564 240.038C153.587 239.104 118.849 233.669 118.974 227.899C119.1 222.129 154.041 218.209 197.019 219.143C239.996 220.078 274.734 225.512 274.609 231.282Z" fill="#C5DBEC"/>
<path opacity="0.5" d="M196.127 239.961C238.827 240.889 273.543 236.994 273.668 231.262C273.792 225.529 239.278 220.129 196.578 219.201C153.878 218.273 119.162 222.168 119.037 227.901C118.912 233.633 153.427 239.033 196.127 239.961Z" fill="#C4DBEC"/>
<path opacity="0.5" d="M272.727 231.241C272.604 236.936 238.113 240.806 195.69 239.884C153.267 238.962 118.977 233.597 119.101 227.902C119.225 222.206 153.716 218.337 196.138 219.259C238.561 220.181 272.851 225.546 272.727 231.241Z" fill="#C3DAEC"/>
<path opacity="0.5" d="M195.253 239.806C237.398 240.722 271.663 236.878 271.786 231.22C271.909 225.562 237.843 220.232 195.698 219.316C153.552 218.4 119.287 222.245 119.164 227.903C119.041 233.561 153.107 238.89 195.253 239.806Z" fill="#C2DAEB"/>
<path opacity="0.5" d="M194.817 239.729C236.685 240.639 270.725 236.82 270.847 231.199C270.969 225.578 237.127 220.284 195.259 219.374C153.391 218.464 119.351 222.283 119.229 227.904C119.107 233.525 152.949 238.819 194.817 239.729Z" fill="#C1D9EB"/>
<path opacity="0.5" d="M269.904 231.179C269.782 236.762 235.968 240.556 194.377 239.652C152.786 238.748 119.168 233.489 119.289 227.905C119.411 222.321 153.225 218.528 194.816 219.432C236.407 220.336 270.025 225.595 269.904 231.179Z" fill="#C0D8EB"/>
<path opacity="0.5" d="M193.944 239.575C235.257 240.473 268.846 236.705 268.967 231.158C269.087 225.612 235.694 220.388 194.38 219.49C153.067 218.591 119.477 222.36 119.357 227.906C119.236 233.453 152.63 238.677 193.944 239.575Z" fill="#BFD8EA"/>
<path opacity="0.5" d="M193.504 239.498C234.54 240.39 267.904 236.647 268.024 231.137C268.144 225.628 234.974 220.439 193.938 219.547C152.901 218.655 119.538 222.398 119.418 227.907C119.298 233.417 152.468 238.606 193.504 239.498Z" fill="#BED7EA"/>
<path opacity="0.5" d="M193.067 239.42C233.827 240.306 266.965 236.589 267.084 231.117C267.203 225.645 234.257 220.49 193.498 219.605C152.739 218.719 119.601 222.436 119.482 227.908C119.363 233.38 152.308 238.535 193.067 239.42Z" fill="#BDD7EA"/>
<path opacity="0.5" d="M266.144 231.096C266.026 236.531 233.113 240.223 192.631 239.343C152.149 238.463 119.428 233.344 119.546 227.909C119.664 222.475 152.577 218.782 193.059 219.662C233.541 220.542 266.262 225.661 266.144 231.096Z" fill="#BCD6E9"/>
<path opacity="0.5" d="M192.195 239.266C232.4 240.14 265.087 236.473 265.204 231.075C265.322 225.678 232.825 220.594 192.62 219.72C152.415 218.846 119.728 222.513 119.611 227.911C119.493 233.308 151.991 238.392 192.195 239.266Z" fill="#BBD5E9"/>
<path opacity="0.5" d="M191.757 239.189C231.684 240.057 264.146 236.415 264.262 231.055C264.379 225.694 232.106 220.645 192.179 219.778C152.251 218.91 119.789 222.552 119.673 227.912C119.556 233.272 151.829 238.321 191.757 239.189Z" fill="#BAD5E9"/>
<path opacity="0.5" d="M191.319 239.112C230.969 239.974 263.206 236.357 263.321 231.034C263.437 225.711 231.388 220.697 191.738 219.835C152.088 218.973 119.852 222.59 119.736 227.913C119.62 233.236 151.669 238.25 191.319 239.112Z" fill="#B9D4E9"/>
<path opacity="0.5" d="M190.884 239.035C230.257 239.89 262.268 236.299 262.383 231.013C262.498 225.727 230.673 220.748 191.3 219.893C151.928 219.037 119.917 222.628 119.802 227.914C119.687 233.2 151.512 238.179 190.884 239.035Z" fill="#B8D4E8"/>
<path opacity="0.5" d="M190.447 238.957C229.542 239.807 261.328 236.241 261.442 230.993C261.556 225.744 229.955 220.8 190.86 219.95C151.764 219.101 119.979 222.667 119.865 227.915C119.751 233.164 151.351 238.108 190.447 238.957Z" fill="#B7D3E8"/>
<path opacity="0.5" d="M190.01 238.88C228.828 239.724 260.388 236.183 260.502 230.972C260.615 225.76 229.239 220.852 190.42 220.008C151.602 219.164 120.042 222.705 119.929 227.916C119.815 233.128 151.192 238.037 190.01 238.88Z" fill="#B6D2E8"/>
<path opacity="0.5" d="M189.574 238.803C228.115 239.641 259.45 236.125 259.563 230.951C259.675 225.777 228.523 220.903 189.982 220.066C151.441 219.228 120.106 222.743 119.994 227.917C119.881 233.092 151.034 237.965 189.574 238.803Z" fill="#B5D2E7"/>
<path opacity="0.5" d="M189.135 238.726C227.399 239.558 258.508 236.068 258.62 230.931C258.731 225.794 227.803 220.955 189.539 220.123C151.276 219.292 120.166 222.782 120.055 227.919C119.943 233.056 150.871 237.894 189.135 238.726Z" fill="#B4D1E7"/>
<path opacity="0.5" d="M188.698 238.649C226.685 239.475 257.569 236.01 257.679 230.91C257.79 225.81 227.086 221.007 189.1 220.181C151.113 219.355 120.229 222.82 120.119 227.92C120.008 233.02 150.712 237.823 188.698 238.649Z" fill="#B3D1E7"/>
<path opacity="0.5" d="M188.262 238.571C225.971 239.391 256.629 235.952 256.739 230.889C256.849 225.827 226.369 221.058 188.66 220.239C150.951 219.419 120.293 222.858 120.183 227.921C120.073 232.983 150.553 237.752 188.262 238.571Z" fill="#B2D0E6"/>
<path opacity="0.5" d="M255.8 230.868C255.691 235.894 225.257 239.308 187.826 238.494C150.394 237.681 120.138 232.947 120.247 227.922C120.356 222.897 150.789 219.482 188.221 220.296C225.653 221.11 255.909 225.843 255.8 230.868Z" fill="#B1CFE6"/>
<path opacity="0.5" d="M254.86 230.848C254.752 235.836 224.544 239.225 187.389 238.417C150.235 237.61 120.203 232.911 120.311 227.923C120.42 222.935 150.628 219.546 187.782 220.354C224.937 221.161 254.968 225.86 254.86 230.848Z" fill="#B0CFE6"/>
<path opacity="0.5" d="M186.952 238.34C223.829 239.142 253.811 235.778 253.919 230.827C254.027 225.876 224.219 221.213 187.342 220.411C150.464 219.61 120.482 222.974 120.374 227.924C120.267 232.875 150.075 237.539 186.952 238.34Z" fill="#AFCEE5"/>
<path opacity="0.5" d="M252.978 230.806C252.871 235.72 223.114 239.058 186.514 238.263C149.914 237.467 120.331 232.839 120.437 227.925C120.544 223.012 150.301 219.673 186.901 220.469C223.501 221.264 253.085 225.893 252.978 230.806Z" fill="#AECDE5"/>
<path opacity="0.5" d="M186.077 238.186C222.399 238.975 251.931 235.662 252.037 230.786C252.143 225.909 222.783 221.316 186.461 220.527C150.138 219.737 120.606 223.05 120.5 227.927C120.394 232.803 149.754 237.396 186.077 238.186Z" fill="#ADCDE5"/>
<path opacity="0.5" d="M185.64 238.108C221.686 238.892 250.991 235.604 251.097 230.765C251.202 225.926 222.066 221.368 186.021 220.584C149.976 219.801 120.67 223.089 120.564 227.928C120.459 232.767 149.595 237.325 185.64 238.108Z" fill="#ACCCE4"/>
<path opacity="0.5" d="M185.204 238.031C220.973 238.809 250.053 235.546 250.158 230.744C250.262 225.942 221.351 221.419 185.582 220.642C149.814 219.864 120.734 223.127 120.629 227.929C120.525 232.731 149.436 237.254 185.204 238.031Z" fill="#ABCCE4"/>
<path opacity="0.5" d="M249.215 230.724C249.112 235.488 220.257 238.726 184.766 237.954C149.275 237.183 120.588 232.695 120.691 227.93C120.795 223.165 149.65 219.928 185.141 220.699C220.632 221.471 249.319 225.959 249.215 230.724Z" fill="#AACBE4"/>
<path opacity="0.5" d="M248.276 230.703C248.173 235.43 219.543 238.642 184.33 237.877C149.116 237.112 120.653 232.659 120.756 227.931C120.858 223.204 149.488 219.992 184.702 220.757C219.915 221.522 248.378 225.975 248.276 230.703Z" fill="#A9CAE3"/>
<path opacity="0.5" d="M247.336 230.682C247.234 235.373 218.83 238.559 183.893 237.8C148.957 237.04 120.718 232.623 120.82 227.932C120.922 223.242 149.326 220.055 184.263 220.815C219.199 221.574 247.438 225.992 247.336 230.682Z" fill="#A8CAE3"/>
<path opacity="0.5" d="M183.455 237.723C218.114 238.476 246.293 235.315 246.394 230.661C246.495 226.008 218.48 221.626 183.821 220.872C149.162 220.119 120.983 223.28 120.882 227.933C120.781 232.586 148.796 236.969 183.455 237.723Z" fill="#A7C9E3"/>
<path opacity="0.5" d="M183.019 237.645C217.401 238.393 245.355 235.257 245.455 230.641C245.555 226.025 217.765 221.677 183.383 220.93C149.001 220.183 121.048 223.319 120.947 227.934C120.847 232.55 148.638 236.898 183.019 237.645Z" fill="#A6C8E2"/>
<path opacity="0.5" d="M244.515 230.62C244.415 235.199 216.688 238.31 182.583 237.568C148.478 236.827 120.912 232.515 121.011 227.936C121.111 223.357 148.839 220.247 182.943 220.988C217.048 221.729 244.615 226.042 244.515 230.62Z" fill="#A4C8E2"/>
<path opacity="0.5" d="M182.146 237.491C215.973 238.226 243.476 235.141 243.575 230.6C243.673 226.058 216.331 221.781 182.504 221.045C148.676 220.31 121.174 223.395 121.075 227.937C120.976 232.478 148.319 236.756 182.146 237.491Z" fill="#A3C7E2"/>
<path opacity="0.5" d="M181.709 237.414C215.259 238.143 242.536 235.083 242.634 230.579C242.731 226.075 215.613 221.832 182.063 221.103C148.513 220.374 121.236 223.434 121.138 227.938C121.04 232.442 148.159 236.685 181.709 237.414Z" fill="#A2C6E1"/>
<path opacity="0.5" d="M181.271 237.337C214.544 238.06 241.595 235.025 241.692 230.558C241.789 226.091 214.895 221.884 181.623 221.161C148.35 220.437 121.298 223.472 121.201 227.939C121.104 232.406 147.998 236.614 181.271 237.337Z" fill="#A1C6E1"/>
<path opacity="0.5" d="M240.753 230.538C240.657 234.967 213.831 237.977 180.835 237.26C147.84 236.543 121.17 232.37 121.266 227.941C121.362 223.511 148.189 220.501 181.184 221.218C214.18 221.935 240.85 226.108 240.753 230.538Z" fill="#A0C5E0"/>
<path opacity="0.5" d="M239.812 230.517C239.716 234.909 213.115 237.894 180.397 237.182C147.679 236.471 121.233 232.334 121.329 227.941C121.424 223.549 148.025 220.565 180.743 221.276C213.461 221.987 239.907 226.124 239.812 230.517Z" fill="#9FC4E0"/>
<path opacity="0.5" d="M238.873 230.496C238.778 234.851 212.403 237.81 179.962 237.105C147.521 236.4 121.299 232.298 121.394 227.942C121.489 223.587 147.864 220.628 180.305 221.333C212.746 222.038 238.968 226.141 238.873 230.496Z" fill="#9EC4E0"/>
<path opacity="0.5" d="M237.933 230.476C237.839 234.794 211.69 237.727 179.526 237.028C147.362 236.329 121.365 232.262 121.458 227.944C121.552 223.626 147.702 220.692 179.866 221.391C212.029 222.09 238.027 226.157 237.933 230.476Z" fill="#9DC3DF"/>
<path opacity="0.5" d="M179.088 236.951C210.974 237.644 236.899 234.736 236.992 230.455C237.085 226.174 211.311 222.142 179.425 221.449C147.538 220.756 121.614 223.664 121.521 227.945C121.428 232.226 147.202 236.258 179.088 236.951Z" fill="#9CC2DF"/>
<path opacity="0.5" d="M236.051 230.434C235.959 234.678 210.26 237.561 178.651 236.874C147.042 236.187 121.492 232.19 121.584 227.946C121.677 223.702 147.376 220.819 178.985 221.506C210.594 222.193 236.143 226.19 236.051 230.434Z" fill="#9AC2DF"/>
<path opacity="0.5" d="M178.216 236.797C209.548 237.478 235.021 234.62 235.113 230.413C235.204 226.207 209.879 222.245 178.547 221.564C147.215 220.883 121.741 223.741 121.65 227.947C121.558 232.154 146.884 236.116 178.216 236.797Z" fill="#99C1DE"/>
<path opacity="0.5" d="M177.776 236.719C208.831 237.394 234.079 234.562 234.169 230.393C234.26 226.224 209.159 222.297 178.104 221.622C147.05 220.946 121.802 223.779 121.711 227.948C121.62 232.117 146.722 236.044 177.776 236.719Z" fill="#98C0DE"/>
<path opacity="0.5" d="M233.23 230.372C233.14 234.504 208.117 237.311 177.34 236.642C146.563 235.973 121.686 232.081 121.776 227.949C121.865 223.817 146.888 221.01 177.665 221.679C208.443 222.348 233.32 226.24 233.23 230.372Z" fill="#97BFDE"/>
<path opacity="0.5" d="M232.287 230.351C232.198 234.446 207.401 237.228 176.901 236.565C146.401 235.902 121.748 232.045 121.837 227.951C121.926 223.856 146.723 221.074 177.223 221.737C207.723 222.4 232.377 226.257 232.287 230.351Z" fill="#96BFDD"/>
<path opacity="0.5" d="M231.349 230.331C231.261 234.388 206.689 237.145 176.466 236.488C146.243 235.831 121.814 232.009 121.903 227.952C121.991 223.894 146.563 221.138 176.785 221.795C207.008 222.452 231.437 226.273 231.349 230.331Z" fill="#95BEDD"/>
<path opacity="0.5" d="M176.03 236.411C205.975 237.062 230.321 234.33 230.409 230.31C230.496 226.29 206.291 222.503 176.346 221.852C146.401 221.201 122.054 223.933 121.967 227.953C121.879 231.973 146.084 235.76 176.03 236.411Z" fill="#94BDDC"/>
<path opacity="0.5" d="M229.467 230.289C229.381 234.272 205.26 236.978 175.592 236.333C145.924 235.689 121.943 231.937 122.029 227.954C122.116 223.971 146.237 221.265 175.905 221.91C205.573 222.555 229.554 226.306 229.467 230.289Z" fill="#92BDDC"/>
<path opacity="0.5" d="M228.529 230.269C228.443 234.214 204.548 236.895 175.157 236.256C145.766 235.618 122.009 231.901 122.095 227.955C122.181 224.009 146.076 221.329 175.467 221.967C204.858 222.606 228.615 226.323 228.529 230.269Z" fill="#91BCDC"/>
<path opacity="0.5" d="M227.586 230.248C227.501 234.156 203.831 236.812 174.717 236.179C145.604 235.546 122.071 231.865 122.156 227.956C122.241 224.048 145.911 221.392 175.025 222.025C204.139 222.658 227.671 226.339 227.586 230.248Z" fill="#90BBDB"/>
<path opacity="0.5" d="M226.647 230.227C226.562 234.099 203.118 236.729 174.281 236.102C145.445 235.475 122.137 231.829 122.221 227.957C122.305 224.086 145.75 221.456 174.586 222.083C203.422 222.709 226.731 226.356 226.647 230.227Z" fill="#8FBADB"/>
<path opacity="0.5" d="M225.706 230.207C225.623 234.041 202.403 236.646 173.844 236.025C145.285 235.404 122.201 231.793 122.284 227.959C122.368 224.124 145.587 221.519 174.146 222.14C202.705 222.761 225.789 226.372 225.706 230.207Z" fill="#8EBADB"/>
<path opacity="0.5" d="M173.407 235.948C201.689 236.563 224.683 233.983 224.765 230.186C224.848 226.389 201.988 222.813 173.706 222.198C145.424 221.583 122.43 224.163 122.348 227.96C122.265 231.757 145.125 235.333 173.407 235.948Z" fill="#8DB9DA"/>
<path opacity="0.5" d="M172.969 235.871C200.974 236.479 223.742 233.925 223.824 230.165C223.906 226.406 201.27 222.864 173.265 222.256C145.261 221.647 122.492 224.201 122.411 227.961C122.329 231.721 144.965 235.262 172.969 235.871Z" fill="#8BB8DA"/>
<path opacity="0.5" d="M172.534 235.793C200.261 236.396 222.804 233.867 222.885 230.144C222.966 226.422 200.554 222.916 172.827 222.313C145.099 221.71 122.556 224.24 122.476 227.962C122.395 231.684 144.806 235.191 172.534 235.793Z" fill="#8AB8D9"/>
<path opacity="0.5" d="M172.097 235.716C199.547 236.313 221.865 233.809 221.945 230.124C222.025 226.439 199.837 222.967 172.387 222.371C144.937 221.774 122.62 224.278 122.54 227.963C122.459 231.648 144.647 235.119 172.097 235.716Z" fill="#89B7D9"/>
<path opacity="0.5" d="M221.004 230.103C220.924 233.751 198.832 236.23 171.66 235.639C144.487 235.048 122.523 231.612 122.602 227.964C122.682 224.316 144.774 221.838 171.947 222.428C199.119 223.019 221.083 226.455 221.004 230.103Z" fill="#88B6D9"/>
<path opacity="0.5" d="M220.063 230.083C219.984 233.693 198.118 236.147 171.222 235.562C144.327 234.977 122.587 231.576 122.666 227.966C122.744 224.355 144.611 221.902 171.507 222.486C198.402 223.071 220.141 226.472 220.063 230.083Z" fill="#87B5D8"/>
<path opacity="0.5" d="M219.122 230.062C219.045 233.635 197.403 236.063 170.785 235.485C144.167 234.906 122.652 231.54 122.729 227.967C122.807 224.393 144.448 221.965 171.067 222.544C197.685 223.122 219.2 226.488 219.122 230.062Z" fill="#85B5D8"/>
<path opacity="0.5" d="M218.184 230.041C218.107 233.577 196.691 235.98 170.35 235.407C144.009 234.835 122.718 231.504 122.795 227.968C122.872 224.431 144.287 222.029 170.628 222.601C196.969 223.174 218.261 226.505 218.184 230.041Z" fill="#84B4D8"/>
<path opacity="0.5" d="M217.243 230.02C217.167 233.519 195.977 235.897 169.913 235.33C143.849 234.764 122.782 231.468 122.858 227.969C122.934 224.47 144.125 222.092 170.188 222.659C196.252 223.225 217.319 226.521 217.243 230.02Z" fill="#83B3D7"/>
<path opacity="0.5" d="M169.475 235.253C195.262 235.814 216.227 233.462 216.302 230C216.377 226.538 195.534 223.277 169.748 222.717C143.962 222.156 122.997 224.508 122.921 227.97C122.846 231.432 143.689 234.693 169.475 235.253Z" fill="#82B2D7"/>
<path opacity="0.5" d="M169.039 235.176C194.548 235.73 215.288 233.404 215.362 229.979C215.436 226.554 194.818 223.329 169.308 222.774C143.799 222.22 123.06 224.546 122.985 227.971C122.911 231.396 143.53 234.621 169.039 235.176Z" fill="#81B2D6"/>
<path opacity="0.5" d="M214.421 229.958C214.347 233.346 193.833 235.647 168.601 235.099C143.37 234.55 122.975 231.359 123.049 227.972C123.122 224.585 143.636 222.283 168.868 222.832C194.1 223.38 214.495 226.571 214.421 229.958Z" fill="#7FB1D6"/>
<path opacity="0.5" d="M213.481 229.938C213.409 233.288 193.12 235.564 168.165 235.022C143.211 234.479 123.04 231.324 123.113 227.974C123.186 224.623 143.474 222.347 168.429 222.89C193.384 223.432 213.554 226.588 213.481 229.938Z" fill="#7EB0D6"/>
<path opacity="0.5" d="M167.729 234.945C192.406 235.481 212.47 233.23 212.542 229.917C212.614 226.604 192.667 223.484 167.99 222.947C143.313 222.411 123.249 224.662 123.177 227.975C123.105 231.288 143.052 234.408 167.729 234.945Z" fill="#7DAFD5"/>
<path opacity="0.5" d="M211.601 229.896C211.53 233.172 191.692 235.398 167.292 234.867C142.892 234.337 123.17 231.251 123.241 227.976C123.312 224.7 143.15 222.474 167.55 223.005C191.95 223.535 211.672 226.62 211.601 229.896Z" fill="#7CAFD5"/>
<path opacity="0.5" d="M210.66 229.876C210.59 233.114 190.978 235.314 166.855 234.79C142.732 234.266 123.234 231.215 123.304 227.977C123.375 224.738 142.987 222.538 167.11 223.062C191.233 223.587 210.731 226.637 210.66 229.876Z" fill="#7AAED4"/>
<path opacity="0.5" d="M209.719 229.855C209.649 233.056 190.262 235.231 166.417 234.713C142.571 234.195 123.297 231.179 123.367 227.978C123.436 224.777 142.823 222.602 166.669 223.12C190.514 223.638 209.788 226.654 209.719 229.855Z" fill="#79ADD4"/>
<path opacity="0.5" d="M165.981 234.636C189.549 235.148 208.71 232.998 208.779 229.834C208.848 226.67 189.798 223.69 166.23 223.178C142.661 222.665 123.5 224.815 123.431 227.979C123.362 231.143 142.412 234.124 165.981 234.636Z" fill="#78ACD4"/>
<path opacity="0.5" d="M165.542 234.559C188.833 235.065 207.769 232.94 207.837 229.813C207.905 226.687 189.079 223.741 165.788 223.235C142.497 222.729 123.561 224.853 123.493 227.98C123.425 231.107 142.251 234.052 165.542 234.559Z" fill="#77ACD3"/>
<path opacity="0.5" d="M165.105 234.481C188.119 234.982 206.83 232.882 206.897 229.793C206.964 226.703 188.362 223.793 165.349 223.293C142.335 222.793 123.624 224.892 123.557 227.981C123.49 231.071 142.092 233.981 165.105 234.481Z" fill="#75ABD3"/>
<path opacity="0.5" d="M164.671 234.404C187.407 234.898 205.892 232.825 205.959 229.772C206.025 226.72 187.647 223.845 164.911 223.35C142.175 222.856 123.689 224.93 123.623 227.983C123.557 231.035 141.934 233.91 164.671 234.404Z" fill="#74AAD2"/>
<path opacity="0.5" d="M164.232 234.327C186.691 234.815 204.951 232.767 205.017 229.751C205.082 226.736 186.929 223.896 164.47 223.408C142.01 222.92 123.751 224.968 123.685 227.984C123.62 230.999 141.773 233.839 164.232 234.327Z" fill="#73A9D2"/>
<path opacity="0.5" d="M204.077 229.731C204.012 232.709 185.978 234.732 163.796 234.25C141.614 233.768 123.685 230.963 123.749 227.985C123.814 225.007 141.848 222.984 164.03 223.466C186.212 223.948 204.142 226.753 204.077 229.731Z" fill="#72A8D2"/>
<path opacity="0.5" d="M203.136 229.71C203.072 232.651 185.263 234.649 163.359 234.173C141.454 233.697 123.749 230.927 123.813 227.986C123.877 225.045 141.686 223.047 163.59 223.523C185.495 224 203.2 226.77 203.136 229.71Z" fill="#70A8D1"/>
<path opacity="0.5" d="M162.92 234.095C184.548 234.566 202.131 232.593 202.194 229.689C202.257 226.786 184.776 224.051 163.149 223.581C141.522 223.111 123.938 225.083 123.875 227.987C123.812 230.89 141.293 233.625 162.92 234.095Z" fill="#6FA7D1"/>
<path opacity="0.5" d="M201.256 229.669C201.194 232.535 183.835 234.482 162.485 234.018C141.135 233.554 123.878 230.855 123.941 227.988C124.003 225.122 141.361 223.175 162.711 223.639C184.061 224.103 201.318 226.802 201.256 229.669Z" fill="#6EA6D0"/>
<path opacity="0.5" d="M200.313 229.648C200.252 232.477 183.119 234.399 162.046 233.941C140.974 233.483 123.941 230.818 124.002 227.989C124.064 225.16 141.196 223.238 162.269 223.696C183.342 224.154 200.375 226.819 200.313 229.648Z" fill="#6CA5D0"/>
<path opacity="0.5" d="M161.612 233.864C182.407 234.316 199.314 232.419 199.375 229.627C199.436 226.835 182.627 224.206 161.831 223.754C141.036 223.302 124.129 225.199 124.068 227.991C124.007 230.782 140.816 233.412 161.612 233.864Z" fill="#6BA5CF"/>
<path opacity="0.5" d="M198.435 229.607C198.375 232.361 181.693 234.233 161.175 233.787C140.657 233.341 124.072 230.746 124.132 227.992C124.192 225.237 140.874 223.366 161.392 223.812C181.91 224.258 198.495 226.852 198.435 229.607Z" fill="#6AA4CF"/>
<path opacity="0.5" d="M197.493 229.586C197.434 232.303 180.978 234.15 160.737 233.71C140.496 233.27 124.135 230.71 124.194 227.993C124.254 225.275 140.71 223.429 160.951 223.869C181.192 224.309 197.552 226.869 197.493 229.586Z" fill="#68A3CF"/>
<path opacity="0.5" d="M160.301 233.632C180.264 234.066 196.495 232.246 196.554 229.565C196.612 226.885 180.475 224.361 160.512 223.927C140.548 223.493 124.317 225.314 124.259 227.994C124.201 230.674 140.337 233.199 160.301 233.632Z" fill="#67A2CE"/>
<path opacity="0.5" d="M195.612 229.545C195.555 232.188 179.549 233.983 159.863 233.555C140.176 233.127 124.264 230.638 124.321 227.995C124.379 225.352 140.384 223.557 160.071 223.985C179.757 224.412 195.67 226.902 195.612 229.545Z" fill="#66A1CE"/>
<path opacity="0.5" d="M194.672 229.524C194.616 232.13 178.836 233.9 159.427 233.478C140.017 233.056 124.329 230.602 124.386 227.996C124.442 225.391 140.223 223.62 159.632 224.042C179.041 224.464 194.729 226.918 194.672 229.524Z" fill="#65A1CD"/>
<path opacity="0.5" d="M193.733 229.503C193.677 232.072 178.122 233.817 158.99 233.401C139.859 232.985 124.394 230.566 124.45 227.997C124.506 225.429 140.061 223.684 159.193 224.1C178.324 224.516 193.788 226.935 193.733 229.503Z" fill="#63A0CD"/>
<path opacity="0.5" d="M192.793 229.482C192.738 232.014 177.409 233.734 158.554 233.324C139.7 232.914 124.46 230.53 124.515 227.998C124.57 225.467 139.899 223.747 158.753 224.157C177.608 224.567 192.848 226.951 192.793 229.482Z" fill="#629FCC"/>
<path opacity="0.5" d="M158.115 233.247C176.692 233.65 191.796 231.956 191.85 229.462C191.904 226.968 176.888 224.619 158.311 224.215C139.734 223.811 124.63 225.506 124.576 228C124.521 230.494 139.537 232.843 158.115 233.247Z" fill="#619ECC"/>
<path opacity="0.5" d="M190.912 229.441C190.858 231.898 175.98 233.567 157.68 233.169C139.38 232.772 124.588 230.458 124.642 228.001C124.695 225.544 139.573 223.875 157.873 224.272C176.173 224.67 190.965 226.984 190.912 229.441Z" fill="#5F9DCC"/>
<path opacity="0.5" d="M157.241 233.092C175.264 233.484 189.917 231.84 189.97 229.421C190.022 227.001 175.455 224.722 157.432 224.33C139.409 223.939 124.756 225.582 124.704 228.002C124.651 230.422 139.219 232.701 157.241 233.092Z" fill="#5E9CCB"/>
<path opacity="0.5" d="M156.805 233.015C174.55 233.401 188.978 231.782 189.03 229.4C189.081 227.018 174.738 224.774 156.992 224.388C139.247 224.002 124.819 225.621 124.768 228.003C124.716 230.385 139.059 232.629 156.805 233.015Z" fill="#5D9CCB"/>
<path opacity="0.5" d="M188.09 229.379C188.039 231.724 173.837 233.318 156.368 232.938C138.9 232.558 124.781 230.349 124.832 228.004C124.883 225.659 139.085 224.066 156.553 224.445C174.021 224.825 188.141 227.034 188.09 229.379Z" fill="#5B9BCA"/>
<path opacity="0.5" d="M187.148 229.358C187.098 231.666 173.121 233.234 155.93 232.861C138.74 232.487 124.844 230.313 124.894 228.005C124.945 225.697 138.921 224.129 156.112 224.503C173.303 224.877 187.198 227.051 187.148 229.358Z" fill="#5A9ACA"/>
<path opacity="0.5" d="M186.209 229.338C186.159 231.608 172.408 233.151 155.494 232.783C138.581 232.416 124.909 230.277 124.959 228.006C125.008 225.736 138.759 224.193 155.673 224.561C172.587 224.928 186.258 227.067 186.209 229.338Z" fill="#5899C9"/>
<path opacity="0.5" d="M185.267 229.317C185.218 231.551 171.693 233.068 155.056 232.707C138.42 232.345 124.973 230.241 125.021 228.008C125.07 225.774 138.596 224.257 155.232 224.619C171.868 224.98 185.315 227.084 185.267 229.317Z" fill="#5798C9"/>
<path opacity="0.5" d="M184.327 229.296C184.279 231.493 170.979 232.985 154.62 232.629C138.261 232.274 125.038 230.205 125.086 228.009C125.133 225.813 138.434 224.32 154.793 224.676C171.152 225.032 184.375 227.1 184.327 229.296Z" fill="#5697C9"/>
<path opacity="0.5" d="M183.388 229.276C183.341 231.435 170.266 232.902 154.184 232.552C138.102 232.203 125.103 230.169 125.15 228.01C125.197 225.851 138.272 224.384 154.354 224.734C170.436 225.083 183.435 227.117 183.388 229.276Z" fill="#5497C8"/>
<path opacity="0.5" d="M182.446 229.255C182.4 231.377 169.55 232.819 153.746 232.475C137.941 232.132 125.166 230.133 125.213 228.011C125.259 225.889 138.108 224.448 153.913 224.791C169.717 225.135 182.492 227.133 182.446 229.255Z" fill="#5396C8"/>
<path opacity="0.5" d="M181.506 229.234C181.461 231.319 168.837 232.735 153.31 232.398C137.782 232.06 125.232 230.097 125.277 228.012C125.322 225.928 137.946 224.511 153.474 224.849C169.001 225.186 181.552 227.15 181.506 229.234Z" fill="#5295C7"/>
<path opacity="0.5" d="M180.567 229.214C180.522 231.261 168.123 232.652 152.873 232.321C137.623 231.989 125.297 230.061 125.341 228.013C125.386 225.966 137.785 224.575 153.035 224.907C168.285 225.238 180.611 227.166 180.567 229.214Z" fill="#5094C7"/>
<path opacity="0.5" d="M152.437 232.243C167.409 232.569 179.583 231.203 179.626 229.193C179.67 227.183 167.568 225.29 152.595 224.964C137.622 224.639 125.449 226.004 125.405 228.015C125.362 230.025 137.464 231.918 152.437 232.243Z" fill="#4F93C6"/>
<path opacity="0.5" d="M178.685 229.172C178.642 231.145 166.695 232.486 151.999 232.166C137.304 231.847 125.425 229.989 125.468 228.016C125.511 226.043 137.459 224.702 152.154 225.022C166.85 225.341 178.728 227.199 178.685 229.172Z" fill="#4E92C6"/>
<path opacity="0.5" d="M177.747 229.152C177.705 231.088 165.982 232.403 151.564 232.089C137.146 231.776 125.492 229.953 125.534 228.017C125.576 226.081 137.298 224.766 151.716 225.08C166.135 225.393 177.789 227.216 177.747 229.152Z" fill="#4C92C5"/>
<path opacity="0.5" d="M176.805 229.131C176.764 231.029 165.267 232.319 151.126 232.012C136.985 231.705 125.555 229.916 125.596 228.018C125.637 226.119 137.134 224.83 151.275 225.137C165.416 225.444 176.846 227.233 176.805 229.131Z" fill="#4B91C5"/>
<path opacity="0.5" d="M175.865 229.11C175.825 230.972 164.553 232.236 150.69 231.935C136.826 231.633 125.62 229.88 125.661 228.019C125.701 226.158 136.973 224.893 150.836 225.195C164.7 225.496 175.906 227.249 175.865 229.11Z" fill="#4990C5"/>
<path opacity="0.5" d="M174.922 229.09C174.882 230.914 163.836 232.153 150.25 231.858C136.663 231.562 125.681 229.844 125.721 228.02C125.761 226.196 136.807 224.957 150.393 225.252C163.98 225.548 174.961 227.266 174.922 229.09Z" fill="#488FC4"/>
<path opacity="0.5" d="M173.983 229.069C173.944 230.856 163.124 232.07 149.815 231.78C136.505 231.491 125.748 229.808 125.787 228.021C125.825 226.235 136.646 225.021 149.955 225.31C163.264 225.599 174.022 227.282 173.983 229.069Z" fill="#478EC4"/>
<path opacity="0.5" d="M173.043 229.048C173.005 230.798 162.41 231.986 149.378 231.703C136.347 231.42 125.813 229.772 125.851 228.023C125.889 226.273 136.484 225.084 149.516 225.368C162.548 225.651 173.081 227.299 173.043 229.048Z" fill="#458DC3"/>
<path opacity="0.5" d="M148.942 231.626C161.696 231.903 172.066 230.74 172.103 229.028C172.14 227.315 161.831 225.703 149.077 225.425C136.322 225.148 125.952 226.311 125.915 228.024C125.878 229.736 136.187 231.349 148.942 231.626Z" fill="#448CC3"/>
<path opacity="0.5" d="M171.163 229.007C171.127 230.682 160.982 231.82 148.505 231.549C136.028 231.278 125.942 229.7 125.979 228.025C126.015 226.35 136.16 225.212 148.637 225.483C161.114 225.754 171.199 227.332 171.163 229.007Z" fill="#428CC2"/>
<path opacity="0.5" d="M170.223 228.986C170.188 230.624 160.269 231.737 148.069 231.472C135.869 231.207 126.008 229.664 126.043 228.026C126.079 226.388 135.998 225.275 148.198 225.541C160.398 225.806 170.259 227.348 170.223 228.986Z" fill="#418BC2"/>
<path opacity="0.5" d="M169.281 228.966C169.246 230.566 159.552 231.654 147.63 231.395C135.707 231.135 126.07 229.628 126.105 228.027C126.14 226.426 135.833 225.339 147.756 225.598C159.678 225.857 169.316 227.365 169.281 228.966Z" fill="#3F8AC1"/>
<path opacity="0.5" d="M168.34 228.945C168.306 230.508 158.838 231.571 147.193 231.317C135.547 231.064 126.134 229.592 126.168 228.028C126.202 226.465 135.67 225.403 147.316 225.656C158.961 225.909 168.374 227.381 168.34 228.945Z" fill="#3E89C1"/>
<path opacity="0.5" d="M167.401 228.924C167.367 230.45 158.125 231.487 146.757 231.24C135.388 230.993 126.199 229.555 126.233 228.029C126.266 226.503 135.508 225.466 146.877 225.713C158.245 225.96 167.434 227.398 167.401 228.924Z" fill="#3D88C0"/>
<path opacity="0.5" d="M166.459 228.903C166.426 230.392 157.409 231.404 146.318 231.163C135.227 230.922 126.263 229.519 126.295 228.03C126.327 226.541 135.345 225.53 146.436 225.771C157.526 226.012 166.491 227.414 166.459 228.903Z" fill="#3B87C0"/>
<path opacity="0.5" d="M165.517 228.883C165.486 230.335 156.694 231.321 145.88 231.086C135.067 230.851 126.326 229.483 126.358 228.032C126.389 226.58 135.181 225.594 145.995 225.829C156.808 226.064 165.549 227.431 165.517 228.883Z" fill="#3A86C0"/>
<path opacity="0.5" d="M164.58 228.862C164.549 230.277 155.982 231.238 145.446 231.009C134.91 230.78 126.393 229.447 126.424 228.033C126.455 226.618 135.021 225.657 145.557 225.886C156.094 226.115 164.61 227.448 164.58 228.862Z" fill="#3885BF"/>
<path opacity="0.5" d="M163.639 228.841C163.609 230.219 155.268 231.155 145.009 230.932C134.75 230.709 126.457 229.411 126.487 228.034C126.517 226.657 134.858 225.721 145.117 225.944C155.376 226.167 163.669 227.464 163.639 228.841Z" fill="#3784BF"/>
<path opacity="0.5" d="M162.697 228.821C162.668 230.161 154.553 231.071 144.571 230.854C134.589 230.637 126.521 229.375 126.55 228.035C126.579 226.695 134.694 225.784 144.676 226.001C154.658 226.218 162.726 227.481 162.697 228.821Z" fill="#3584BE"/>
<path opacity="0.5" d="M161.758 228.8C161.729 230.103 153.839 230.988 144.135 230.777C134.43 230.566 126.586 229.339 126.614 228.036C126.643 226.733 134.533 225.848 144.237 226.059C153.942 226.27 161.786 227.497 161.758 228.8Z" fill="#3483BE"/>
<path opacity="0.5" d="M160.819 228.779C160.791 230.045 153.127 230.905 143.7 230.7C134.272 230.495 126.652 229.303 126.68 228.037C126.707 226.772 134.372 225.912 143.799 226.117C153.226 226.322 160.846 227.514 160.819 228.779Z" fill="#3282BD"/>
<path opacity="0.5" d="M159.877 228.759C159.851 229.987 152.411 230.822 143.261 230.623C134.111 230.424 126.716 229.267 126.742 228.039C126.769 226.81 134.208 225.975 143.358 226.174C152.508 226.373 159.904 227.53 159.877 228.759Z" fill="#3181BD"/>
<path opacity="0.5" d="M158.936 228.738C158.91 229.929 151.696 230.738 142.823 230.546C133.95 230.353 126.779 229.231 126.805 228.039C126.831 226.848 134.044 226.039 142.917 226.232C151.79 226.425 158.961 227.547 158.936 228.738Z" fill="#2F80BC"/>
<path opacity="0.5" d="M157.999 228.718C157.974 229.872 150.985 230.656 142.39 230.469C133.795 230.282 126.847 229.195 126.872 228.041C126.897 226.887 133.885 226.103 142.481 226.29C151.076 226.477 158.024 227.564 157.999 228.718Z" fill="#2E7FBC"/>
<path opacity="0.5" d="M157.056 228.697C157.032 229.813 150.269 230.572 141.951 230.391C133.633 230.21 126.909 229.159 126.933 228.042C126.958 226.925 133.721 226.166 142.039 226.347C150.357 226.528 157.081 227.58 157.056 228.697Z" fill="#2C7EBB"/>
<path opacity="0.5" d="M156.116 228.676C156.092 229.756 149.555 230.489 141.514 230.314C133.473 230.14 126.973 229.123 126.997 228.043C127.02 226.964 133.558 226.23 141.599 226.405C149.64 226.58 156.139 227.597 156.116 228.676Z" fill="#2B7DBB"/>
<path opacity="0.5" d="M155.175 228.655C155.152 229.697 148.84 230.406 141.077 230.237C133.313 230.068 127.038 229.086 127.06 228.044C127.083 227.002 133.395 226.294 141.159 226.462C148.922 226.631 155.198 227.613 155.175 228.655Z" fill="#2A7CBA"/>
<path opacity="0.5" d="M154.235 228.635C154.214 229.64 148.127 230.323 140.641 230.16C133.154 229.997 127.103 229.05 127.125 228.045C127.147 227.04 133.233 226.357 140.72 226.52C148.206 226.683 154.257 227.629 154.235 228.635Z" fill="#287BBA"/>
<path opacity="0.5" d="M153.296 228.614C153.275 229.582 147.413 230.239 140.204 230.083C132.995 229.926 127.168 229.014 127.189 228.047C127.21 227.079 133.071 226.421 140.281 226.578C147.49 226.735 153.317 227.646 153.296 228.614Z" fill="#277BB9"/>
<path opacity="0.5" d="M152.353 228.593C152.333 229.524 146.697 230.156 139.765 230.005C132.833 229.855 127.23 228.978 127.251 228.048C127.271 227.117 132.907 226.485 139.838 226.635C146.77 226.786 152.373 227.663 152.353 228.593Z" fill="#257AB9"/>
<path opacity="0.5" d="M151.414 228.572C151.395 229.466 145.985 230.073 139.33 229.928C132.676 229.784 127.297 228.942 127.316 228.049C127.336 227.155 132.746 226.548 139.4 226.693C146.055 226.838 151.434 227.679 151.414 228.572Z" fill="#2479B8"/>
<path opacity="0.5" d="M150.474 228.552C150.455 229.408 145.27 229.99 138.893 229.851C132.516 229.713 127.361 228.906 127.38 228.05C127.398 227.194 132.583 226.612 138.96 226.751C145.338 226.889 150.492 227.696 150.474 228.552Z" fill="#2278B8"/>
<path opacity="0.5" d="M149.532 228.531C149.514 229.35 144.555 229.906 138.455 229.774C132.355 229.641 127.424 228.87 127.442 228.051C127.46 227.232 132.419 226.676 138.519 226.808C144.619 226.941 149.55 227.712 149.532 228.531Z" fill="#2177B7"/>
<path opacity="0.5" d="M148.592 228.511C148.575 229.292 143.84 229.823 138.018 229.697C132.195 229.57 127.489 228.834 127.505 228.052C127.522 227.271 132.257 226.739 138.079 226.866C143.902 226.993 148.609 227.729 148.592 228.511Z" fill="#1F76B7"/>
<path opacity="0.5" d="M147.651 228.49C147.635 229.234 143.126 229.74 137.581 229.619C132.035 229.499 127.553 228.798 127.569 228.053C127.585 227.309 132.094 226.803 137.639 226.923C143.185 227.044 147.667 227.745 147.651 228.49Z" fill="#1E75B6"/>
<path opacity="0.5" d="M146.711 228.469C146.696 229.176 142.413 229.657 137.144 229.542C131.876 229.428 127.618 228.762 127.633 228.054C127.649 227.347 131.932 226.867 137.2 226.981C142.468 227.096 146.726 227.762 146.711 228.469Z" fill="#1C74B6"/>
<path opacity="0.5" d="M145.771 228.448C145.756 229.118 141.698 229.574 136.707 229.465C131.716 229.357 127.682 228.726 127.697 228.056C127.711 227.386 131.769 226.93 136.76 227.039C141.751 227.147 145.785 227.778 145.771 228.448Z" fill="#1A73B6"/>
<path opacity="0.5" d="M144.83 228.428C144.816 229.061 140.984 229.491 136.27 229.388C131.556 229.286 127.746 228.69 127.76 228.057C127.774 227.424 131.606 226.994 136.32 227.096C141.034 227.199 144.844 227.795 144.83 228.428Z" fill="#1972B5"/>
<path opacity="0.5" d="M143.891 228.407C143.878 229.003 140.271 229.407 135.835 229.311C131.399 229.214 127.813 228.653 127.826 228.058C127.839 227.462 131.445 227.058 135.882 227.154C140.318 227.251 143.904 227.811 143.891 228.407Z" fill="#1771B5"/>
<path opacity="0.5" d="M142.951 228.386C142.939 228.945 139.558 229.324 135.399 229.234C131.24 229.143 127.878 228.617 127.89 228.059C127.902 227.501 131.284 227.121 135.443 227.212C139.602 227.302 142.964 227.828 142.951 228.386Z" fill="#1670B4"/>
<path opacity="0.5" d="M142.009 228.366C141.997 228.887 138.842 229.241 134.96 229.157C131.078 229.072 127.94 228.581 127.952 228.06C127.963 227.539 131.119 227.185 135.001 227.27C138.883 227.354 142.02 227.845 142.009 228.366Z" fill="#146FB4"/>
<path opacity="0.5" d="M141.07 228.345C141.06 228.829 138.129 229.158 134.525 229.08C130.92 229.001 128.007 228.545 128.017 228.061C128.028 227.577 130.958 227.249 134.563 227.327C138.167 227.405 141.081 227.861 141.07 228.345Z" fill="#136EB3"/>
<path opacity="0.5" d="M140.128 228.324C140.118 228.771 137.413 229.075 134.085 229.002C130.758 228.93 128.069 228.509 128.078 228.063C128.088 227.616 130.793 227.312 134.121 227.385C137.448 227.457 140.137 227.878 140.128 228.324Z" fill="#116EB3"/>
<path opacity="0.5" d="M139.188 228.304C139.179 228.713 136.699 228.991 133.649 228.925C130.599 228.859 128.134 228.473 128.143 228.064C128.152 227.654 130.631 227.376 133.682 227.442C136.732 227.509 139.197 227.894 139.188 228.304Z" fill="#106DB2"/>
<path opacity="0.5" d="M138.246 228.283C138.238 228.655 135.984 228.908 133.211 228.848C130.438 228.787 128.197 228.437 128.205 228.065C128.213 227.692 130.468 227.439 133.241 227.5C136.013 227.56 138.254 227.911 138.246 228.283Z" fill="#0E6CB2"/>
<path opacity="0.5" d="M137.308 228.262C137.3 228.597 135.271 228.825 132.776 228.771C130.281 228.716 128.263 228.401 128.271 228.066C128.278 227.731 130.307 227.503 132.802 227.557C135.298 227.612 137.315 227.927 137.308 228.262Z" fill="#0D6BB1"/>
<path opacity="0.5" d="M136.367 228.242C136.36 228.54 134.557 228.742 132.339 228.694C130.121 228.645 128.328 228.365 128.334 228.067C128.341 227.769 130.144 227.567 132.362 227.615C134.581 227.664 136.373 227.944 136.367 228.242Z" fill="#0B6AB1"/>
<path opacity="0.5" d="M135.427 228.221C135.422 228.481 133.844 228.658 131.903 228.616C129.962 228.574 128.393 228.329 128.399 228.068C128.404 227.807 129.982 227.63 131.923 227.673C133.864 227.715 135.433 227.96 135.427 228.221Z" fill="#0969B0"/>
<path opacity="0.5" d="M134.488 228.2C134.483 228.424 133.13 228.575 131.467 228.539C129.803 228.503 128.458 228.293 128.463 228.069C128.468 227.846 129.82 227.694 131.484 227.73C133.148 227.767 134.492 227.977 134.488 228.2Z" fill="#0868B0"/>
<path opacity="0.5" d="M133.547 228.179C133.543 228.366 132.416 228.492 131.029 228.462C129.643 228.432 128.522 228.257 128.527 228.07C128.531 227.884 129.658 227.758 131.044 227.788C132.43 227.818 133.551 227.993 133.547 228.179Z" fill="#0667AF"/>
<path opacity="0.5" d="M132.604 228.159C132.601 228.308 131.699 228.409 130.59 228.385C129.481 228.361 128.585 228.221 128.588 228.072C128.591 227.923 129.493 227.822 130.602 227.846C131.711 227.87 132.608 228.01 132.604 228.159Z" fill="#0566AF"/>
<path opacity="0.5" d="M131.664 228.138C131.661 228.25 130.985 228.326 130.153 228.308C129.321 228.29 128.649 228.184 128.651 228.073C128.654 227.961 129.33 227.885 130.162 227.903C130.994 227.921 131.666 228.027 131.664 228.138Z" fill="#0365AE"/>
<path opacity="0.5" d="M130.725 228.118C130.723 228.192 130.272 228.243 129.718 228.231C129.163 228.219 128.714 228.148 128.716 228.074C128.717 227.999 129.169 227.949 129.723 227.961C130.278 227.973 130.727 228.043 130.725 228.118Z" fill="#0264AE"/>
<path opacity="0.5" d="M129.783 228.097C129.782 228.134 129.557 228.159 129.28 228.153C129.003 228.147 128.779 228.112 128.779 228.075C128.78 228.038 129.006 228.013 129.283 228.019C129.56 228.025 129.784 228.06 129.783 228.097Z" fill="#0063AD"/>
</g>
</g>
<g opacity="0.5">
<path opacity="0.5" d="M6.94707 69.1063L6.94696 69.1063L6.94769 69.1052C6.99635 69.0202 7.04592 68.9356 7.09629 68.8514C7.13068 68.7902 7.16733 68.7313 7.2024 68.6707C7.24052 68.6089 7.27646 68.5461 7.31538 68.485C8.66253 66.2252 10.5217 64.4166 12.6249 63.5671L13.2198 63.327L13.22 63.3267L85.4889 34.14L157.758 4.95341L157.758 4.9533L158.353 4.71305C160.457 3.86355 162.413 4.13163 163.916 5.24029C163.959 5.26776 163.998 5.29899 164.04 5.32759C164.08 5.35895 164.121 5.38722 164.161 5.41984L172.268 11.7505L166.877 13.1921L171.346 109.255C171.461 111.733 170.685 114.336 169.334 116.593C169.298 116.657 169.26 116.719 169.223 116.783C169.186 116.842 169.152 116.901 169.115 116.96C167.768 119.22 165.908 121.03 163.804 121.88L19.6641 180.092L20.0648 186.136L12.3887 180.118C12.3489 180.087 12.3077 180.059 12.2686 180.027C10.761 178.925 9.77484 177.033 9.6595 174.554L5.08321 76.1921C4.9722 73.8058 5.68835 71.3037 6.94707 69.1063Z" fill="white"/>
<g opacity="0.5">
<path opacity="0.5" d="M26.0432 186.97L171.771 128.116C176.178 126.336 179.54 120.37 179.28 114.79L174.769 17.8306C174.51 12.2505 170.727 9.16964 166.32 10.9494L20.5919 69.8035C16.1852 71.5833 12.8232 77.5496 13.0828 83.1297L17.5939 180.089C17.8535 185.669 21.6364 188.75 26.0432 186.97Z" fill="url(#paint0_linear)"/>
<path opacity="0.5" d="M21.1845 69.5629L93.4534 40.3762L98.7564 154.357L26.6358 186.729C21.9004 188.642 17.8656 185.983 17.624 180.79L13.0476 82.4283C12.806 77.2355 16.449 71.4754 21.1845 69.5629Z" fill="url(#paint1_linear)"/>
<path opacity="0.5" d="M165.721 11.1896L93.4523 40.3762L98.722 153.641L171.172 128.356C175.908 126.444 179.551 120.684 179.309 115.491L174.733 17.1292C174.491 11.9363 170.456 9.27715 165.721 11.1896Z" fill="url(#paint2_linear)"/>
<path opacity="0.5" d="M177.446 122.577C175.966 125.161 173.732 127.322 171.173 128.356L26.6352 186.729C24.0758 187.763 21.7275 187.452 20.0657 186.137L95.4935 84.2358L177.446 122.577Z" fill="url(#paint3_linear)"/>
<path opacity="0.5" d="M14.9085 75.3429C16.3888 72.7585 18.6223 70.5969 21.1816 69.5633L165.719 11.1898C168.279 10.1562 170.627 10.4674 172.289 11.7828L96.8611 113.684L14.9085 75.3429Z" fill="url(#paint4_linear)"/>
</g>
</g>
<g opacity="0.5">
<path opacity="0.5" d="M46.9928 82.3601L46.9927 82.3601L46.9935 82.3589C47.0455 82.2668 47.0983 82.1752 47.1522 82.0841C47.1889 82.0178 47.228 81.954 47.2655 81.8884C47.3061 81.8215 47.3445 81.7534 47.3861 81.6872C48.825 79.2404 50.8193 77.2769 53.083 76.3468L53.7233 76.0837L53.7237 76.0835L131.51 44.1239L209.296 12.1643L209.296 12.1641L209.936 11.9011C212.2 10.9708 214.313 11.2474 215.942 12.4338C215.988 12.4632 216.031 12.4967 216.076 12.5273C216.119 12.5608 216.164 12.5911 216.207 12.626L224.995 19.404L219.188 20.9943L224.633 124.613C224.773 127.286 223.952 130.1 222.51 132.544C222.471 132.613 222.43 132.68 222.391 132.749C222.352 132.813 222.315 132.878 222.276 132.941C220.837 135.389 218.842 137.353 216.577 138.284L61.4333 202.027L61.9048 208.546L53.5836 202.102C53.5405 202.069 53.4957 202.039 53.4535 202.005C51.8196 200.825 50.7434 198.79 50.6028 196.116L45.0276 90.0174C44.8924 87.4435 45.6489 84.7392 46.9928 82.3601Z" fill="white"/>
<g opacity="0.5">
<path opacity="0.5" d="M68.3631 209.406L225.216 144.961C229.959 143.012 233.548 136.552 233.232 130.533L227.736 25.9477C227.42 19.9286 223.318 16.6291 218.575 18.578L61.722 83.0236C56.9788 84.9724 53.3901 91.4316 53.7063 97.4507L59.2021 202.036C59.5183 208.055 63.6199 211.355 68.3631 209.406Z" fill="url(#paint5_linear)"/>
<path opacity="0.5" d="M62.3593 82.7601L140.145 50.8005L146.606 173.746L69.0004 209.143C63.9035 211.237 59.5328 208.394 59.2385 202.793L53.6633 96.6941C53.369 91.0927 57.2624 84.8543 62.3593 82.7601Z" fill="url(#paint6_linear)"/>
<path opacity="0.5" d="M217.933 18.8411L140.148 50.8007L146.567 172.975L224.574 145.224C229.671 143.13 233.565 136.891 233.271 131.29L227.695 25.1913C227.401 19.59 223.03 16.747 217.933 18.8411Z" fill="url(#paint7_linear)"/>
<path opacity="0.5" d="M231.303 138.947C229.723 141.745 227.327 144.092 224.572 145.224L69.0002 209.143C66.2456 210.275 63.7098 209.954 61.9083 208.546L142.631 98.1102L231.303 138.947Z" fill="url(#paint8_linear)"/>
<path opacity="0.5" d="M55.628 89.0378C57.2085 86.2398 59.6042 83.8931 62.3589 82.7612L217.931 18.8419C220.686 17.7102 223.222 18.0306 225.023 19.4392L144.3 129.875L55.628 89.0378Z" fill="url(#paint9_linear)"/>
</g>
</g>
<path d="M103.994 90.8561L103.994 90.8561L103.995 90.8548C104.051 90.7569 104.108 90.6595 104.165 90.5625C104.205 90.4919 104.246 90.4239 104.286 90.354C104.33 90.2829 104.371 90.2105 104.416 90.1401C105.957 87.5357 108.089 85.4482 110.504 84.4632L111.188 84.1846L111.188 84.1844L194.205 50.3384L277.223 16.4924L277.223 16.4922L277.906 16.2136C280.323 15.2284 282.574 15.5295 284.308 16.7991C284.356 16.8305 284.402 16.8663 284.45 16.8991C284.496 16.9349 284.544 16.9672 284.59 17.0046L293.939 24.2558L287.743 25.9345L293.248 136.414C293.39 139.264 292.506 142.262 290.961 144.863C290.92 144.937 290.876 145.008 290.834 145.081C290.792 145.149 290.753 145.218 290.711 145.285C289.17 147.891 287.037 149.979 284.621 150.965L119.043 218.47L119.527 225.421L110.674 218.528C110.628 218.492 110.581 218.46 110.536 218.424C108.798 217.161 107.656 214.989 107.514 212.138L101.877 99.0137C101.741 96.2694 102.555 93.3886 103.994 90.8561Z" fill="white"/>
<path d="M126.403 226.357L293.804 158.107C298.867 156.044 302.711 149.168 302.391 142.75L296.835 31.2396C296.515 24.822 292.152 21.2927 287.09 23.3565L119.688 91.606C114.626 93.6698 110.782 100.545 111.101 106.963L116.658 218.474C116.978 224.891 121.34 228.421 126.403 226.357Z" fill="url(#paint10_linear)"/>
<path d="M120.372 91.3275L203.389 57.4814L209.921 188.568L127.086 226.079C121.646 228.296 116.995 225.253 116.698 219.281L111.061 106.157C110.764 100.185 114.932 93.5452 120.372 91.3275Z" fill="url(#paint11_linear)"/>
<path d="M286.406 23.6354L203.389 57.4815L209.879 187.745L293.12 158.386C298.56 156.169 302.729 149.529 302.431 143.557L296.794 30.4333C296.497 24.4611 291.846 21.4177 286.406 23.6354Z" fill="url(#paint12_linear)"/>
<path d="M300.315 151.715C298.622 154.693 296.061 157.188 293.121 158.386L127.087 226.079C124.147 227.277 121.445 226.928 119.528 225.421L205.903 107.923L300.315 151.715Z" fill="url(#paint13_linear)"/>
<path d="M113.177 98C114.869 95.0217 117.43 92.5269 120.37 91.3283L286.405 23.6362C289.345 22.4376 292.047 22.7865 293.963 24.2933L207.588 141.791L113.177 98Z" fill="url(#paint14_linear)"/>
<defs>
<linearGradient id="paint0_linear" x1="177.026" y1="66.3092" x2="12.6561" y2="73.9526" gradientUnits="userSpaceOnUse">
<stop stop-color="#7BDAFF"/>
<stop offset="1" stop-color="#59BDEF"/>
</linearGradient>
<linearGradient id="paint1_linear" x1="-17.3141" y1="255.571" x2="85.3558" y2="113.843" gradientUnits="userSpaceOnUse">
<stop offset="0.767705" stop-color="#59BDEF"/>
<stop offset="0.845232" stop-color="#55B8EB"/>
<stop offset="0.931782" stop-color="#49ABE1"/>
<stop offset="1" stop-color="#3A9BD5"/>
</linearGradient>
<linearGradient id="paint2_linear" x1="219.919" y1="159.597" x2="113.479" y2="95.542" gradientUnits="userSpaceOnUse">
<stop offset="0.767705" stop-color="#59BDEF"/>
<stop offset="0.845232" stop-color="#55B8EB"/>
<stop offset="0.931782" stop-color="#49ABE1"/>
<stop offset="1" stop-color="#3A9BD5"/>
</linearGradient>
<linearGradient id="paint3_linear" x1="104.313" y1="273.865" x2="43.2616" y2="122.698" gradientUnits="userSpaceOnUse">
<stop offset="0.767705" stop-color="#3A9BD5"/>
<stop offset="0.838634" stop-color="#3896D2"/>
<stop offset="0.917943" stop-color="#3189C9"/>
<stop offset="1" stop-color="#2573BA"/>
</linearGradient>
<linearGradient id="paint4_linear" x1="146.314" y1="-6.0867" x2="-19.9732" y2="86.9922" gradientUnits="userSpaceOnUse">
<stop stop-color="#7BDAFF"/>
<stop offset="1" stop-color="#59BDEF"/>
</linearGradient>
<linearGradient id="paint5_linear" x1="230.486" y1="78.2387" x2="53.1862" y2="87.5491" gradientUnits="userSpaceOnUse">
<stop stop-color="#7BDAFF"/>
<stop offset="1" stop-color="#59BDEF"/>
</linearGradient>
<linearGradient id="paint6_linear" x1="22.0278" y1="283.706" x2="131.89" y2="130.125" gradientUnits="userSpaceOnUse">
<stop offset="0.767705" stop-color="#59BDEF"/>
<stop offset="0.845232" stop-color="#55B8EB"/>
<stop offset="0.931782" stop-color="#49ABE1"/>
<stop offset="1" stop-color="#3A9BD5"/>
</linearGradient>
<linearGradient id="paint7_linear" x1="277.372" y1="178.618" x2="162.112" y2="110.197" gradientUnits="userSpaceOnUse">
<stop offset="0.767705" stop-color="#59BDEF"/>
<stop offset="0.845232" stop-color="#55B8EB"/>
<stop offset="0.931782" stop-color="#49ABE1"/>
<stop offset="1" stop-color="#3A9BD5"/>
</linearGradient>
<linearGradient id="paint8_linear" x1="153.375" y1="302.658" x2="86.5219" y2="139.95" gradientUnits="userSpaceOnUse">
<stop offset="0.767705" stop-color="#3A9BD5"/>
<stop offset="0.838634" stop-color="#3896D2"/>
<stop offset="0.917943" stop-color="#3189C9"/>
<stop offset="1" stop-color="#2573BA"/>
</linearGradient>
<linearGradient id="paint9_linear" x1="196.881" y1="0.324838" x2="18.064" y2="101.826" gradientUnits="userSpaceOnUse">
<stop stop-color="#7BDAFF"/>
<stop offset="1" stop-color="#59BDEF"/>
</linearGradient>
<linearGradient id="paint10_linear" x1="299.614" y1="86.9925" x2="110.574" y2="96.4157" gradientUnits="userSpaceOnUse">
<stop stop-color="#7BDAFF"/>
<stop offset="1" stop-color="#59BDEF"/>
</linearGradient>
<linearGradient id="paint11_linear" x1="76.8005" y1="305.436" x2="194.36" y2="142.022" gradientUnits="userSpaceOnUse">
<stop offset="0.767705" stop-color="#59BDEF"/>
<stop offset="0.845232" stop-color="#55B8EB"/>
<stop offset="0.931782" stop-color="#49ABE1"/>
<stop offset="1" stop-color="#3A9BD5"/>
</linearGradient>
<linearGradient id="paint12_linear" x1="349.311" y1="194.136" x2="226.633" y2="120.866" gradientUnits="userSpaceOnUse">
<stop offset="0.767705" stop-color="#59BDEF"/>
<stop offset="0.845232" stop-color="#55B8EB"/>
<stop offset="0.931782" stop-color="#49ABE1"/>
<stop offset="1" stop-color="#3A9BD5"/>
</linearGradient>
<linearGradient id="paint13_linear" x1="216.773" y1="326.014" x2="145.972" y2="152.363" gradientUnits="userSpaceOnUse">
<stop offset="0.767705" stop-color="#3A9BD5"/>
<stop offset="0.838634" stop-color="#3896D2"/>
<stop offset="0.917943" stop-color="#3189C9"/>
<stop offset="1" stop-color="#2573BA"/>
</linearGradient>
<linearGradient id="paint14_linear" x1="264.015" y1="3.83248" x2="73.0974" y2="111.531" gradientUnits="userSpaceOnUse">
<stop stop-color="#67E3E2"/>
<stop offset="1" stop-color="#3491F7"/>
</linearGradient>
</defs>
</svg>
