<?xml version="1.0" standalone="no"?>
<!DOCTYPE svg PUBLIC "-//W3C//DTD SVG 20010904//EN"
 "http://www.w3.org/TR/2001/REC-SVG-20010904/DTD/svg10.dtd">
<svg version="1.0" xmlns="http://www.w3.org/2000/svg"
 width="1024.000000pt" height="1024.000000pt" viewBox="0 0 1024.000000 1024.000000"
 preserveAspectRatio="xMidYMid meet">
<metadata>
Created by potrace 1.11, written by Peter Selinger 2001-2013
</metadata>
<g transform="translate(0.000000,1024.000000) scale(0.100000,-0.100000)"
fill="#000000" stroke="none">
<path d="M6657 8030 c-166 -29 -352 -128 -461 -244 -87 -94 -152 -217 -1012
-1940 l-893 -1789 -489 979 c-430 859 -497 988 -549 1049 -132 156 -306 257
-508 295 -52 9 -241 7 -285 -4 -54 -13 -85 -20 -90 -21 -36 -4 -180 -77 -245
-123 -68 -48 -161 -145 -207 -217 -31 -47 -1690 -3355 -1693 -3375 0 -3 -7
-16 -15 -30 -17 -31 -180 -355 -197 -392 l-12 -28 932 0 932 0 359 723 c197
397 366 733 374 746 15 24 26 4 387 -720 l372 -744 934 -2 934 -3 780 1566
c429 861 783 1567 787 1570 4 3 360 -702 790 -1566 l783 -1570 933 0 c513 0
931 3 929 8 -3 4 -617 1233 -1364 2732 -1388 2781 -1388 2781 -1487 2874 -128
118 -265 190 -424 220 -80 15 -225 18 -295 6z"/>
</g>
</svg>
