<svg width="6" height="10" viewBox="0 0 6 10" fill="none" xmlns="http://www.w3.org/2000/svg">
<path d="M5.35355 8.64645C5.54882 8.84171 5.54882 9.15829 5.35355 9.35355C5.15829 9.54882 4.84171 9.54882 4.64645 9.35355L5.35355 8.64645ZM1 5L0.646447 5.35355C0.451184 5.15829 0.451184 4.84171 0.646447 4.64645L1 5ZM4.64645 0.646446C4.84171 0.451184 5.15829 0.451184 5.35355 0.646446C5.54882 0.841709 5.54882 1.15829 5.35355 1.35355L4.64645 0.646446ZM4.64645 9.35355L0.646447 5.35355L1.35355 4.64645L5.35355 8.64645L4.64645 9.35355ZM0.646447 4.64645L4.64645 0.646446L5.35355 1.35355L1.35355 5.35355L0.646447 4.64645Z" fill="#566DA9" fill-opacity="0.8"/>
</svg>
