<svg width="82" height="74" viewBox="0 0 82 74" fill="none" xmlns="http://www.w3.org/2000/svg">
<path d="M75.2014 73.3935H6.46867C3.12132 73.3935 0.396484 70.6687 0.396484 67.3195V17.1431C0.396484 16.6397 0.803786 16.2324 1.30713 16.2324H80.3647C80.8681 16.2324 81.2754 16.6397 81.2754 17.1431V67.3195C81.2754 70.6687 78.5505 73.3935 75.2014 73.3935ZM2.21778 18.0537V67.3195C2.21778 69.6637 4.12446 71.5722 6.46867 71.5722H75.2014C77.5456 71.5722 79.4541 69.6637 79.4541 67.3195V18.0537H2.21778Z" fill="#002F6A"/>
<path d="M80.3638 5.28418H1.30664V17.1427H80.3638V5.28418Z" fill="#1ECDD8"/>
<path d="M80.3647 18.0533H1.30713C0.803786 18.0533 0.396484 17.646 0.396484 17.1427V5.28467C0.396484 4.78133 0.803786 4.37402 1.30713 4.37402H80.3647C80.8681 4.37402 81.2754 4.78133 81.2754 5.28467V17.1427C81.2754 17.646 80.8681 18.0533 80.3647 18.0533ZM2.21778 16.232H79.4541V6.19532H2.21778V16.232Z" fill="#002F6A"/>
<path d="M12.6231 9.23769H9.75547C9.45581 9.23769 9.21289 8.99476 9.21289 8.6951V1.87461C9.21289 1.57495 9.45581 1.33203 9.75547 1.33203H12.6231C12.9228 1.33203 13.1657 1.57495 13.1657 1.87461V8.6951C13.1657 8.99477 12.9228 9.23769 12.6231 9.23769Z" fill="white"/>
<path d="M11.1894 10.1473C9.59756 10.1473 8.30273 8.8525 8.30273 7.26064V3.30856C8.30273 1.71671 9.59756 0.421875 11.1894 0.421875C12.7813 0.421875 14.0761 1.71671 14.0761 3.30856V7.26064C14.0761 8.8525 12.7813 10.1473 11.1894 10.1473ZM11.1894 2.24317C10.6025 2.24317 10.124 2.72162 10.124 3.30856V7.26064C10.124 7.84758 10.6025 8.32603 11.1894 8.32603C11.7764 8.32603 12.2548 7.84758 12.2548 7.26064V3.30856C12.2548 2.72162 11.7764 2.24317 11.1894 2.24317Z" fill="#002F6A"/>
<path d="M71.9161 9.23769H69.0484C68.7488 9.23769 68.5059 8.99477 68.5059 8.6951V1.87461C68.5059 1.57495 68.7488 1.33203 69.0484 1.33203H71.9161C72.2158 1.33203 72.4587 1.57495 72.4587 1.87461V8.6951C72.4587 8.99477 72.2158 9.23769 71.9161 9.23769Z" fill="white"/>
<path d="M70.4832 10.1473C68.8913 10.1473 67.5947 8.8525 67.5947 7.26064V3.30856C67.5947 1.71671 68.8913 0.421875 70.4832 0.421875C72.0751 0.421875 73.3699 1.71671 73.3699 3.30856V7.26064C73.3699 8.8525 72.0751 10.1473 70.4832 10.1473ZM70.4832 2.24317C69.8945 2.24317 69.416 2.72162 69.416 3.30856V7.26064C69.416 7.84758 69.8945 8.32603 70.4832 8.32603C71.0701 8.32603 71.5486 7.84758 71.5486 7.26064V3.30856C71.5486 2.72162 71.0701 2.24317 70.4832 2.24317Z" fill="#002F6A"/>
<path d="M57.0929 9.23769H54.2252C53.9255 9.23769 53.6826 8.99477 53.6826 8.6951V1.87461C53.6826 1.57495 53.9255 1.33203 54.2252 1.33203H57.0929C57.3925 1.33203 57.6354 1.57495 57.6354 1.87461V8.6951C57.6354 8.99477 57.3925 9.23769 57.0929 9.23769Z" fill="white"/>
<path d="M55.6582 10.1473C54.0663 10.1473 52.7715 8.8525 52.7715 7.26064V3.30856C52.7715 1.71671 54.0663 0.421875 55.6582 0.421875C57.25 0.421875 58.5466 1.71671 58.5466 3.30856V7.26064C58.5466 8.8525 57.25 10.1473 55.6582 10.1473ZM55.6582 2.24317C55.0712 2.24317 54.5928 2.72162 54.5928 3.30856V7.26064C54.5928 7.84758 55.0712 8.32603 55.6582 8.32603C56.2469 8.32603 56.7253 7.84758 56.7253 7.26064V3.30856C56.7253 2.72162 56.2469 2.24317 55.6582 2.24317Z" fill="#002F6A"/>
<path d="M42.2696 9.23769H39.402C39.1023 9.23769 38.8594 8.99477 38.8594 8.6951V1.87461C38.8594 1.57495 39.1023 1.33203 39.402 1.33203H42.2696C42.5693 1.33203 42.8122 1.57495 42.8122 1.87461V8.6951C42.8122 8.99477 42.5693 9.23769 42.2696 9.23769Z" fill="white"/>
<path d="M40.8349 10.1473C39.2431 10.1473 37.9482 8.8525 37.9482 7.26064V3.30856C37.9482 1.71671 39.2431 0.421875 40.8349 0.421875C42.4268 0.421875 43.7234 1.71671 43.7234 3.30856V7.26064C43.7234 8.8525 42.4268 10.1473 40.8349 10.1473ZM40.8349 2.24317C40.248 2.24317 39.7695 2.72162 39.7695 3.30856V7.26064C39.7695 7.84758 40.248 8.32603 40.8349 8.32603C41.4237 8.32603 41.9021 7.84758 41.9021 7.26064V3.30856C41.9021 2.72162 41.4237 2.24317 40.8349 2.24317Z" fill="#002F6A"/>
<path d="M27.4464 9.23769H24.5787C24.2791 9.23769 24.0361 8.99477 24.0361 8.6951V1.87461C24.0361 1.57495 24.2791 1.33203 24.5787 1.33203H27.4464C27.746 1.33203 27.989 1.57495 27.989 1.87461V8.6951C27.989 8.99477 27.746 9.23769 27.4464 9.23769Z" fill="white"/>
<path d="M26.0117 10.1473C24.4198 10.1473 23.125 8.8525 23.125 7.26064V3.30856C23.125 1.71671 24.4198 0.421875 26.0117 0.421875C27.6035 0.421875 28.8984 1.71671 28.8984 3.30856V7.26064C28.8984 8.8525 27.6035 10.1473 26.0117 10.1473ZM26.0117 2.24317C25.4247 2.24317 24.9463 2.72162 24.9463 3.30856V7.26064C24.9463 7.84758 25.4247 8.32603 26.0117 8.32603C26.5986 8.32603 27.0771 7.84758 27.0771 7.26064V3.30856C27.0771 2.72162 26.5986 2.24317 26.0117 2.24317Z" fill="#002F6A"/>
<path d="M21.0715 35.3376H13.1655C12.6622 35.3376 12.2549 34.9303 12.2549 34.4269V26.521C12.2549 26.0177 12.6622 25.6104 13.1655 25.6104H21.0715C21.5748 25.6104 21.9821 26.0177 21.9821 26.521V34.4269C21.9821 34.9303 21.5748 35.3376 21.0715 35.3376ZM14.0762 33.5163H20.1608V27.4317H14.0762V33.5163Z" fill="#002F6A"/>
<path d="M21.0715 49.1717H13.1655C12.6622 49.1717 12.2549 48.7644 12.2549 48.2611V40.3569C12.2549 39.8536 12.6622 39.4463 13.1655 39.4463H21.0715C21.5748 39.4463 21.9821 39.8536 21.9821 40.3569V48.2611C21.9821 48.7644 21.5748 49.1717 21.0715 49.1717ZM14.0762 47.3504H20.1608V41.2676H14.0762V47.3504Z" fill="#002F6A"/>
<path d="M21.0715 63.0075H13.1655C12.6622 63.0075 12.2549 62.6002 12.2549 62.0969V54.1909C12.2549 53.6876 12.6622 53.2803 13.1655 53.2803H21.0715C21.5748 53.2803 21.9821 53.6876 21.9821 54.1909V62.0969C21.9821 62.6002 21.5748 63.0075 21.0715 63.0075ZM14.0762 61.1862H20.1608V55.1016H14.0762V61.1862Z" fill="#002F6A"/>
<path d="M68.5051 35.3376H60.5991C60.0958 35.3376 59.6885 34.9303 59.6885 34.4269V26.521C59.6885 26.0177 60.0958 25.6104 60.5991 25.6104H68.5051C69.0084 25.6104 69.4157 26.0177 69.4157 26.521V34.4269C69.4157 34.9303 69.0084 35.3376 68.5051 35.3376ZM61.5098 33.5163H67.5944V27.4317H61.5098V33.5163Z" fill="#002F6A"/>
<path d="M68.5052 49.1717H60.6011C60.0977 49.1717 59.6904 48.7644 59.6904 48.2611V40.3569C59.6904 39.8536 60.0977 39.4463 60.6011 39.4463H68.5052C69.0086 39.4463 69.4159 39.8536 69.4159 40.3569V48.2611C69.4159 48.7644 69.0086 49.1717 68.5052 49.1717ZM61.5117 47.3504H67.5946V41.2676H61.5117V47.3504Z" fill="#002F6A"/>
<path d="M68.5052 63.0075H60.6011C60.0977 63.0075 59.6904 62.6002 59.6904 62.0969V54.1909C59.6904 53.6876 60.0977 53.2803 60.6011 53.2803H68.5052C69.0086 53.2803 69.4159 53.6876 69.4159 54.1909V62.0969C69.4159 62.6002 69.0086 63.0075 68.5052 63.0075ZM61.5117 61.1862H67.5946V55.1016H61.5117V61.1862Z" fill="#002F6A"/>
<path d="M36.3021 40.4219H28.3965V48.3275H36.3021V40.4219Z" fill="#1ECDD8"/>
<path d="M52.6927 35.3376H44.7886C44.2852 35.3376 43.8779 34.9303 43.8779 34.4269V26.521C43.8779 26.0177 44.2852 25.6104 44.7886 25.6104H52.6927C53.1961 25.6104 53.6034 26.0177 53.6034 26.521V34.4269C53.6034 34.9303 53.1961 35.3376 52.6927 35.3376ZM45.6992 33.5163H51.7821V27.4317H45.6992V33.5163Z" fill="#002F6A"/>
<path d="M52.6945 49.1717H44.7886C44.2852 49.1717 43.8779 48.7644 43.8779 48.2611V40.3569C43.8779 39.8536 44.2852 39.4463 44.7886 39.4463H52.6945C53.1979 39.4463 53.6052 39.8536 53.6052 40.3569V48.2611C53.6052 48.7644 53.1979 49.1717 52.6945 49.1717ZM45.6992 47.3504H51.7839V41.2676H45.6992V47.3504Z" fill="#002F6A"/>
<path d="M52.6945 63.0075H44.7886C44.2852 63.0075 43.8779 62.6002 43.8779 62.0969V54.1909C43.8779 53.6876 44.2852 53.2803 44.7886 53.2803H52.6945C53.1979 53.2803 53.6052 53.6876 53.6052 54.1909V62.0969C53.6052 62.6002 53.1979 63.0075 52.6945 63.0075ZM45.6992 61.1862H51.7839V55.1016H45.6992V61.1862Z" fill="#002F6A"/>
<path d="M36.883 35.3376H28.9771C28.4737 35.3376 28.0664 34.9303 28.0664 34.4269V26.521C28.0664 26.0177 28.4737 25.6104 28.9771 25.6104H36.883C37.3863 25.6104 37.7936 26.0177 37.7936 26.521V34.4269C37.7936 34.9303 37.3863 35.3376 36.883 35.3376ZM29.8877 33.5163H35.9723V27.4317H29.8877V33.5163Z" fill="#002F6A"/>
<path d="M36.883 49.1717H28.9771C28.4737 49.1717 28.0664 48.7644 28.0664 48.2611V40.3569C28.0664 39.8536 28.4737 39.4463 28.9771 39.4463H36.883C37.3863 39.4463 37.7936 39.8536 37.7936 40.3569V48.2611C37.7936 48.7644 37.3863 49.1717 36.883 49.1717ZM29.8877 47.3504H35.9723V41.2676H29.8877V47.3504Z" fill="#002F6A"/>
<path d="M36.883 63.0075H28.9771C28.4737 63.0075 28.0664 62.6002 28.0664 62.0969V54.1909C28.0664 53.6876 28.4737 53.2803 28.9771 53.2803H36.883C37.3863 53.2803 37.7936 53.6876 37.7936 54.1909V62.0969C37.7936 62.6002 37.3863 63.0075 36.883 63.0075ZM29.8877 61.1862H35.9723V55.1016H29.8877V61.1862Z" fill="#002F6A"/>
</svg>
