<svg width="59" height="58" viewBox="0 0 59 58" fill="none" xmlns="http://www.w3.org/2000/svg">
<path d="M30.5313 16.9557C30.4127 17.3083 30.0089 17.6081 29.4649 17.597C27.4527 17.5558 25.4035 18.047 23.5354 19.1259C18.0808 22.2763 16.2093 29.2509 19.3568 34.7046C22.5044 40.1585 29.4786 42.0245 34.9334 38.874C39.357 36.319 41.4221 31.2509 40.3691 26.5189C40.2502 25.9845 40.4652 25.5279 40.787 25.342L53.9598 17.7338C54.3786 17.4919 54.8498 17.6747 55.0051 18.039C60.4778 30.8765 55.6198 46.0801 43.2235 53.2398C29.8306 60.9752 12.7111 56.3926 4.9852 43.006C-2.74079 29.6191 1.85208 12.4956 15.2452 4.76012C21.4253 1.19068 28.3966 0.244112 34.8749 1.5748C35.2616 1.65422 35.5354 2.07933 35.3803 2.54031L30.5313 16.9557Z" stroke="#002F6A" stroke-width="2"/>
<path d="M37.0379 20.3786C37.6846 21.0058 38.6407 21.2113 39.4011 20.7476L52.3553 12.8476C53.2403 12.3079 53.5187 11.0898 52.9051 10.2266C50.0846 6.25869 46.4614 3.20366 42.4184 1.16959C41.4961 0.705579 40.4216 1.23478 40.0958 2.25749L35.3269 17.227C35.0468 18.1063 35.427 19.0561 36.1377 19.6013C36.4499 19.8407 36.7505 20.1 37.0379 20.3786Z" fill="#147CEE"/>
<path d="M37.0379 20.3786C37.6846 21.0058 38.6407 21.2113 39.4011 20.7476L52.3553 12.8476C53.2403 12.3079 53.5187 11.0898 52.9051 10.2266C50.0846 6.25869 46.4614 3.20366 42.4184 1.16959C41.4961 0.705579 40.4216 1.23478 40.0958 2.25749L35.3269 17.227C35.0468 18.1063 35.427 19.0561 36.1377 19.6013C36.4499 19.8407 36.7505 20.1 37.0379 20.3786Z" fill="url(#paint0_linear)"/>
<defs>
<linearGradient id="paint0_linear" x1="44.2344" y1="1" x2="44.2344" y2="21" gradientUnits="userSpaceOnUse">
<stop offset="0.208333" stop-color="#51E2E1"/>
<stop offset="1" stop-color="white" stop-opacity="0"/>
<stop offset="1" stop-color="#51E2E1" stop-opacity="0"/>
</linearGradient>
</defs>
</svg>
