<svg width="59" height="72" viewBox="0 0 59 72" fill="none" xmlns="http://www.w3.org/2000/svg">
<path d="M32.5641 7.94727C18.9273 9.81971 7.84277 22.2201 7.84277 36.4719C7.84277 50.7236 18.9273 63.124 32.5641 64.9964C46.2008 63.124 57.2854 50.7236 57.2854 36.4719C57.2854 22.2201 46.2008 9.81971 32.5641 7.94727Z" fill="#147CEE"/>
<path d="M32.5641 7.94727C18.9273 9.81971 7.84277 22.2201 7.84277 36.4719C7.84277 50.7236 18.9273 63.124 32.5641 64.9964C46.2008 63.124 57.2854 50.7236 57.2854 36.4719C57.2854 22.2201 46.2008 9.81971 32.5641 7.94727Z" fill="url(#paint0_linear)"/>
<path d="M15.9742 36.4714C15.9742 26.2191 23.7941 17.0763 33.5149 15.03C32.1898 14.751 30.8299 14.6025 29.4492 14.6025C17.9392 14.6025 7.84277 24.8216 7.84277 36.4714C7.84277 48.1211 17.9392 58.3402 29.4492 58.3402C30.8299 58.3402 32.1898 58.1917 33.5149 57.9127C23.7941 55.8665 15.9742 46.7237 15.9742 36.4714Z" fill="white"/>
<path d="M50.6243 36.0001C50.6243 25.998 42.5704 17.0784 32.5587 15.082C22.5471 17.0784 14.4932 25.998 14.4932 36.0001C14.4932 46.0021 21.7188 56.032 31.7305 58.0283C41.7421 56.032 50.6243 46.0021 50.6243 36.0001Z" fill="white"/>
<path d="M29.2362 58.3402C17.4401 58.3402 7.84277 48.5296 7.84277 36.4714C7.84277 24.4132 17.4401 14.6025 29.2362 14.6025C41.0323 14.6025 50.6297 24.4132 50.6297 36.4714C50.6297 48.5296 41.0323 58.3402 29.2362 58.3402ZM29.2362 15.8268C18.0997 15.8268 9.04039 25.0874 9.04039 36.4714C9.04039 47.8553 18.0997 57.116 29.2362 57.116C40.3727 57.116 49.432 47.8553 49.432 36.4714C49.432 25.0874 40.3727 15.8268 29.2362 15.8268Z" fill="#002F6A" stroke="#002F6A" stroke-width="0.3"/>
<path d="M29.2363 64.9961C13.2461 64.9961 0.236328 51.9864 0.236328 35.9961C0.236328 20.0058 13.2461 6.99609 29.2363 6.99609C45.2266 6.99609 58.2363 20.0058 58.2363 35.9961C58.2363 51.9864 45.2266 64.9961 29.2363 64.9961ZM29.2363 8.61954C14.1402 8.61954 1.85977 20.9 1.85977 35.9961C1.85977 51.0922 14.1402 63.3727 29.2363 63.3727C44.3324 63.3727 56.6129 51.0922 56.6129 35.9961C56.6129 20.9 44.3324 8.61954 29.2363 8.61954Z" fill="#002F6A"/>
<path d="M33.7485 43.3928C29.6619 44.9676 25.0706 42.9271 23.4958 38.8349C23.4681 38.7572 23.4404 38.6851 23.4127 38.6075H31.6082C31.9132 38.6075 32.1627 38.358 32.1627 38.053C32.1627 37.748 31.9132 37.4985 31.6082 37.4985H23.1188C22.9524 36.6224 22.9358 35.7186 23.0633 34.8369H32.4954C32.8004 34.8369 33.0499 34.5874 33.0499 34.2824C33.0499 33.9774 32.8004 33.7279 32.4954 33.7279H23.3129C24.5716 29.5359 28.9965 27.1571 33.194 28.4158C33.377 28.4713 33.5656 28.5322 33.7541 28.6043C34.0369 28.7152 34.3585 28.5766 34.4749 28.2883C34.5858 28.0055 34.4472 27.6839 34.1589 27.5674H34.1533C29.4955 25.7764 24.2666 28.0997 22.47 32.7575C22.348 33.0736 22.2427 33.3952 22.1595 33.7224H19.9637C19.6587 33.7224 19.4092 33.9719 19.4092 34.2769C19.4092 34.5818 19.6587 34.8314 19.9637 34.8314H21.9432C21.8323 35.7186 21.849 36.6113 21.9931 37.493H19.9637C19.6587 37.493 19.4092 37.7425 19.4092 38.0475C19.4092 38.3524 19.6587 38.602 19.9637 38.602H22.2538C23.701 43.3818 28.747 46.0822 33.5212 44.6405C33.7319 44.5739 33.9426 44.5018 34.1478 44.4242C34.4306 44.3133 34.5748 43.9917 34.4639 43.7089C34.353 43.4261 34.0313 43.2819 33.7485 43.3928Z" fill="#002F6A" stroke="#002F6A" stroke-width="0.7"/>
<path d="M20.829 8.66061H28.5086C28.781 8.66061 29.0018 8.87893 29.0018 9.14829V11.5116C29.0018 11.8929 29.4249 12.1268 29.7535 11.9269L38.0013 6.91545C38.3147 6.72501 38.3147 6.2749 38.0013 6.08445L29.7535 1.07296C29.4249 0.8733 29.0018 1.10698 29.0018 1.48834V3.85161C29.0018 4.12097 28.781 4.33929 28.5086 4.33929H20.829C20.5018 4.33929 20.2363 4.60156 20.2363 4.92526V8.07487C20.2363 8.39834 20.5018 8.66061 20.829 8.66061Z" fill="white" stroke="#002F6A" stroke-width="1.2"/>
<path d="M37.6436 67.6606H29.9641C29.6916 67.6606 29.4708 67.8789 29.4708 68.1483V70.5116C29.4708 70.8929 29.0478 71.1268 28.7192 70.9269L20.4713 65.9154C20.158 65.725 20.158 65.2749 20.4713 65.0845L28.7192 60.073C29.0478 59.8733 29.4708 60.107 29.4708 60.4883V62.8516C29.4708 63.121 29.6916 63.3393 29.9641 63.3393H37.6436C37.9708 63.3393 38.2363 63.6016 38.2363 63.9253V67.0749C38.2363 67.3983 37.9708 67.6606 37.6436 67.6606Z" fill="white" stroke="#002F6A" stroke-width="1.2"/>
<defs>
<linearGradient id="paint0_linear" x1="32.5641" y1="7.94727" x2="32.5641" y2="64.9964" gradientUnits="userSpaceOnUse">
<stop offset="0.208333" stop-color="#51E2E1"/>
<stop offset="1" stop-color="white" stop-opacity="0"/>
<stop offset="1" stop-color="#51E2E1" stop-opacity="0"/>
</linearGradient>
</defs>
</svg>
