<svg width="59" height="59" viewBox="0 0 59 59" fill="none" xmlns="http://www.w3.org/2000/svg">
<path d="M29.2707 57.2562C44.8572 57.2562 57.4925 44.6209 57.4925 29.0344C57.4925 13.4479 44.8572 0.8125 29.2707 0.8125C13.6842 0.8125 1.04883 13.4479 1.04883 29.0344C1.04883 44.6209 13.6842 57.2562 29.2707 57.2562Z" fill="#147CEE"/>
<path d="M29.2707 57.2562C44.8572 57.2562 57.4925 44.6209 57.4925 29.0344C57.4925 13.4479 44.8572 0.8125 29.2707 0.8125C13.6842 0.8125 1.04883 13.4479 1.04883 29.0344C1.04883 44.6209 13.6842 57.2562 29.2707 57.2562Z" fill="url(#paint0_linear)"/>
<path d="M37.1205 5.30887C38.272 9.41493 35.92 9.07033 33.2791 9.07033C30.638 9.07033 30.9583 11.3911 30.3179 13.2318C29.6777 15.0727 27.1167 14.9926 27.917 16.3531C28.247 16.9139 29.6378 16.9852 31.3213 16.9649C32.1007 16.9555 32.9824 17.6017 33.8111 17.5925C35.5344 17.5735 37.1598 16.9652 38.081 17.4734C40.4018 18.754 40.4819 22.5954 37.5207 22.5954C32.1901 22.5954 30.0552 20.8344 26.6366 21.2823C25.0495 21.4902 24.9419 24.6299 23.0968 24.6299C21.3077 24.6299 19.834 26.1968 19.834 28.7578C19.834 33.8798 24.8758 34.44 26.3964 34.44C27.917 34.44 30.238 34.52 30.8782 36.5207C31.5184 38.5216 30.8782 38.0412 31.8385 40.6022C32.799 43.1632 30.398 43.9635 32.6389 47.5649C34.8796 51.1663 36.2704 47.7107 38.2713 46.1901C40.272 44.6696 41.6796 43.1658 41.8423 40.5223C42.0051 37.8788 43.5646 36.0251 45.8172 33.3729C48.0697 30.7208 44.43 31.4521 42.8295 29.9583C41.2288 28.4644 40.802 24.6228 42.8295 25.7006C44.8569 26.7782 47.6311 27.1838 46.8843 25.7006C46.1373 24.2172 45.4969 21.7437 47.4179 21.315C49.3389 20.8863 49.2318 24.8363 51.4727 23.129C53.5222 21.5674 55.2121 21.7104 56.7086 22.4231C54.4743 13.1135 47.6428 5.61672 38.7357 2.44727C37.9374 2.75491 36.6235 3.53628 37.1205 5.30887Z" fill="white"/>
<path d="M7.86037 15.765C9.30081 14.1111 11.5632 14.6019 13.6157 12.3506C15.3636 10.4334 14.1416 6.57575 13.7382 5.46484C8.81062 8.72266 4.98751 13.4888 2.87695 19.1004C5.88315 20.0592 6.47595 17.3545 7.86037 15.765Z" fill="white"/>
<path d="M10.8701 44.284C10.4698 41.5629 12.4706 39.5887 11.5904 37.2145C10.71 34.8403 6.54834 33.3197 6.62846 28.6779C6.70577 24.1891 5.05086 23.4051 1.6099 23.4161C1.24442 25.2293 1.04883 27.1039 1.04883 29.0247C1.04883 36.3743 3.88051 43.046 8.48238 48.0693C9.9174 48.1856 11.2199 46.6634 10.8701 44.284Z" fill="white"/>
<path d="M30.8246 53.9672C29.2831 52.2416 26.5525 50.6592 24.4222 50.6592C20.7389 50.6592 18.3638 53.9616 15.5986 53.7128C19.6537 55.9653 24.3152 57.258 29.2827 57.258C31.1138 57.258 32.899 57.0692 34.6328 56.7362C32.8002 56.4836 32.0198 55.305 30.8246 53.9672Z" fill="white"/>
<path d="M29.2707 58.0688C13.2615 58.0688 0.236328 45.0436 0.236328 29.0344C0.236328 13.0252 13.2615 0 29.2707 0C45.28 0 58.3051 13.0252 58.3051 29.0344C58.3051 45.0436 45.28 58.0688 29.2707 58.0688ZM29.2707 1.62537C14.1567 1.62537 1.86169 13.9204 1.86169 29.0344C1.86169 44.1484 14.1567 56.4434 29.2707 56.4434C44.3847 56.4434 56.6798 44.1484 56.6798 29.0344C56.6798 13.9204 44.3847 1.62537 29.2707 1.62537Z" fill="#002F6A"/>
<defs>
<linearGradient id="paint0_linear" x1="29.2707" y1="0.8125" x2="29.2707" y2="57.2562" gradientUnits="userSpaceOnUse">
<stop offset="0.208333" stop-color="#51E2E1"/>
<stop offset="1" stop-color="white" stop-opacity="0"/>
<stop offset="1" stop-color="#51E2E1" stop-opacity="0"/>
</linearGradient>
</defs>
</svg>
