<svg width="203" height="199" viewBox="0 0 203 199" fill="none" xmlns="http://www.w3.org/2000/svg">
<path d="M62.8416 99.5772C69.8507 96.1353 78.3229 99.027 81.7648 106.036L98.8496 140.827C102.292 147.836 99.3998 156.308 92.3908 159.75L57.6 176.835C50.5909 180.277 42.1187 177.385 38.6768 170.376L21.592 135.585C18.15 128.576 21.0418 120.104 28.0508 116.662L62.8416 99.5772ZM57.7836 89.2774L22.9928 106.362C10.3156 112.588 5.0667 127.966 11.2921 140.643L28.3769 175.434C34.6023 188.111 49.9808 193.36 62.658 187.135L97.4488 170.05C110.126 163.825 115.375 148.446 109.149 135.769L92.0647 100.978C85.8392 88.3009 70.4608 83.052 57.7836 89.2774Z" fill="#CDE1FE"/>
<path d="M187.386 21.5226C191.127 23.4329 192.611 28.0138 190.7 31.7543L181.218 50.3211C179.308 54.0616 174.727 55.5453 170.986 53.6349L152.419 44.1526C148.679 42.2423 147.195 37.6613 149.106 33.9208L158.588 15.3541C160.498 11.6136 165.079 10.1299 168.82 12.0403L187.386 21.5226ZM190.194 16.0259L171.627 6.54357C164.862 3.08837 156.546 5.78141 153.091 12.5468L143.609 31.1136C140.154 37.879 142.847 46.1941 149.612 49.6493L168.179 59.1316C174.944 62.5868 183.259 59.8938 186.715 53.1284L196.197 34.5616C199.652 27.7962 196.959 19.4811 190.194 16.0259Z" fill="#DADEFF"/>
</svg>
