<svg width="205" height="178" viewBox="0 0 205 178" fill="none" xmlns="http://www.w3.org/2000/svg">
<path d="M20.0217 18.0857L10.5399 21.9676C8.6297 22.7497 6.44718 21.8351 5.66512 19.9249L1.78323 10.4431C1.00117 8.53292 1.91573 6.35039 3.82595 5.56834L13.3077 1.68644C15.2179 0.904385 17.4005 1.81894 18.1825 3.72917L22.0644 13.2109C22.8465 15.1212 21.9319 17.3037 20.0217 18.0857Z" fill="#DADEFF"/>
<path d="M134.19 49.8638C143.703 45.936 154.598 50.4633 158.526 59.9759L178.023 107.193C181.951 116.706 177.423 127.601 167.911 131.529L120.693 151.026C111.181 154.954 100.285 150.426 96.3574 140.914L76.8608 93.6964C72.933 84.1839 77.4603 73.2883 86.9728 69.3604L134.19 49.8638ZM128.418 35.8851L81.2008 55.3816C63.9956 62.4859 55.7778 82.2631 62.882 99.4684L82.3786 146.686C89.4829 163.891 109.26 172.109 126.465 165.005L173.683 145.508C190.888 138.404 199.106 118.627 192.002 101.421L172.505 54.2039C165.401 36.9986 145.624 28.7808 128.418 35.8851Z" fill="#CDE1FE"/>
</svg>
