<svg width="203" height="199" viewBox="0 0 203 199" fill="none" xmlns="http://www.w3.org/2000/svg">
<path d="M62.8416 99.5765C69.8507 96.1346 78.3229 99.0263 81.7648 106.035L98.8496 140.826C102.292 147.835 99.3998 156.307 92.3908 159.749L57.6 176.834C50.5909 180.276 42.1187 177.384 38.6768 170.375L21.592 135.584C18.15 128.575 21.0418 120.103 28.0508 116.661L62.8416 99.5765ZM57.7836 89.2766L22.9928 106.361C10.3156 112.587 5.0667 127.965 11.2921 140.642L28.3769 175.433C34.6023 188.11 49.9808 193.359 62.658 187.134L97.4488 170.049C110.126 163.824 115.375 148.445 109.149 135.768L92.0647 100.977C85.8392 88.3001 70.4608 83.0512 57.7836 89.2766Z" fill="#CDE1FE"/>
<path d="M187.384 21.5238C191.125 23.4342 192.609 28.0151 190.698 31.7556L181.216 50.3223C179.306 54.0628 174.725 55.5465 170.984 53.6361L152.417 44.1538C148.677 42.2435 147.193 37.6626 149.104 33.9221L158.586 15.3553C160.496 11.6148 165.077 10.1312 168.818 12.0415L187.384 21.5238ZM190.192 16.0271L171.625 6.54479C164.86 3.08959 156.544 5.78264 153.089 12.5481L143.607 31.1148C140.152 37.8802 142.845 46.1953 149.61 49.6505L168.177 59.1329C174.942 62.5881 183.257 59.895 186.713 53.1296L196.195 34.5628C199.65 27.7974 196.957 19.4823 190.192 16.0271Z" fill="#DADEFF"/>
</svg>
