<svg width="205" height="178" viewBox="0 0 205 178" fill="none" xmlns="http://www.w3.org/2000/svg">
<path d="M20.0256 18.087L10.5438 21.9688C8.63361 22.7509 6.45108 21.8363 5.66903 19.9261L1.78713 10.4444C1.00508 8.53414 1.91963 6.35161 3.82986 5.56956L13.3116 1.68766C15.2218 0.905606 17.4044 1.82016 18.1864 3.73039L22.0683 13.2122C22.8504 15.1224 21.9358 17.3049 20.0256 18.087Z" fill="#DADEFF"/>
<path d="M134.194 49.8651C143.707 45.9372 154.602 50.4646 158.53 59.9771L178.027 107.195C181.955 116.707 177.427 127.603 167.915 131.53L120.697 151.027C111.185 154.955 100.289 150.428 96.3613 140.915L76.8647 93.6976C72.9369 84.1851 77.4642 73.2895 86.9767 69.3616L134.194 49.8651ZM128.422 35.8863L81.2048 55.3829C63.9995 62.4871 55.7817 82.2643 62.8859 99.4696L82.3825 146.687C89.4868 163.892 109.264 172.11 126.469 165.006L173.687 145.509C190.892 138.405 199.11 118.628 192.005 101.423L172.509 54.2051C165.405 36.9998 145.627 28.782 128.422 35.8863Z" fill="#CDE1FE"/>
</svg>
