<svg width="23" height="23" viewBox="0 0 23 23" fill="none" xmlns="http://www.w3.org/2000/svg">
<path fill-rule="evenodd" clip-rule="evenodd" d="M23 11.5699C23 5.18053 17.8508 0 11.5 0C5.14921 0 0 5.18052 0 11.5699C0 17.3443 4.20479 22.1311 9.7033 23V14.9152H6.78259V11.5699H9.7033V9.02032C9.7033 6.1209 11.4208 4.51826 14.0471 4.51826C15.3053 4.51826 16.6217 4.74441 16.6217 4.74441V7.59178H15.171C13.7431 7.59178 13.2967 8.48341 13.2967 9.39941V11.5698H16.4858L15.9764 14.9151H13.2966V22.9999C18.7951 22.1326 22.9999 17.3458 22.9999 11.5698L23 11.5699Z" fill="#55A5FD"/>
<path fill-rule="evenodd" clip-rule="evenodd" d="M23 11.5699C23 5.18053 17.8508 0 11.5 0C5.14921 0 0 5.18052 0 11.5699C0 17.3443 4.20479 22.1311 9.7033 23V14.9152H6.78259V11.5699H9.7033V9.02032C9.7033 6.1209 11.4208 4.51826 14.0471 4.51826C15.3053 4.51826 16.6217 4.74441 16.6217 4.74441V7.59178H15.171C13.7431 7.59178 13.2967 8.48341 13.2967 9.39941V11.5698H16.4858L15.9764 14.9151H13.2966V22.9999C18.7951 22.1326 22.9999 17.3458 22.9999 11.5698L23 11.5699Z" fill="url(#paint0_linear)"/>
<defs>
<linearGradient id="paint0_linear" x1="11.5" y1="0" x2="11.5" y2="23" gradientUnits="userSpaceOnUse">
<stop offset="0.109375" stop-color="#565EFF" stop-opacity="0"/>
<stop offset="1" stop-color="#2830DC"/>
</linearGradient>
</defs>
</svg>
