<svg width="141" height="29" viewBox="0 0 141 29" fill="none" xmlns="http://www.w3.org/2000/svg">
<path d="M84.8591 13.1245C80.6843 13.1245 77.2876 16.5212 77.2876 20.6964C77.2876 24.8713 80.6843 28.2679 84.8591 28.2679C89.034 28.2679 92.4307 24.8713 92.4307 20.6964C92.4307 16.5212 89.034 13.1245 84.8591 13.1245ZM84.8591 25.3629C82.286 25.3629 80.1926 23.2695 80.1926 20.6964C80.1926 18.1233 82.286 16.0295 84.8591 16.0295C87.4322 16.0295 89.5256 18.1233 89.5256 20.6964C89.5256 23.2695 87.4322 25.3629 84.8591 25.3629Z" fill="#3696FF"/>
<path d="M121.827 21.8519C121.827 23.7191 120.308 25.238 118.441 25.238C116.574 25.238 115.055 23.7187 115.055 21.8519V13.3257H112.15V21.8515C112.15 25.3204 114.972 28.1426 118.441 28.1426C121.91 28.1426 124.732 25.3204 124.732 21.8515V13.3257H121.827V21.8519Z" fill="#3696FF"/>
<path d="M69.5899 13.0957C67.9456 13.0957 66.4695 13.8125 65.4444 14.9451C64.4193 13.8125 62.9429 13.0957 61.2986 13.0957C58.2121 13.0957 55.7007 15.6071 55.7007 18.6936V27.8419H58.6057V18.6936C58.6057 17.2088 59.8138 16.0007 61.2986 16.0007C62.7838 16.0007 63.9919 17.2088 63.9919 18.6936V27.8419H66.8969V18.6936C66.8969 17.2088 68.105 16.0007 69.5899 16.0007C71.0747 16.0007 72.2828 17.2088 72.2828 18.6936V27.8419H75.1878V18.6936C75.1878 15.6071 72.6764 13.0957 69.5899 13.0957Z" fill="#3696FF"/>
<path d="M106.488 14.746C105.201 13.734 103.582 13.125 101.821 13.125C97.6462 13.125 94.2495 16.5217 94.2495 20.6969C94.2495 24.8718 97.6462 28.2684 101.821 28.2684C105.996 28.2684 109.393 24.8718 109.393 20.6969V8.18652H106.488V14.746ZM101.822 25.3631C99.2487 25.3631 97.1549 23.2697 97.1549 20.6966C97.1549 18.1234 99.2487 16.0297 101.822 16.0297C104.395 16.0297 106.488 18.1234 106.488 20.6966C106.488 23.2697 104.395 25.3631 101.822 25.3631Z" fill="#3696FF"/>
<path d="M135.739 18.9954H135.437H131.617H131.315C130.49 18.9954 129.821 18.3248 129.821 17.5008C129.821 16.6769 130.491 16.0066 131.315 16.0066H138.755V13.1016H131.315C128.889 13.1016 126.916 15.0751 126.916 17.5008C126.916 19.9265 128.889 21.9005 131.315 21.9005H131.617H135.437H135.739C136.563 21.9005 137.234 22.5708 137.234 23.3947C137.234 24.2186 136.563 24.8893 135.739 24.8893H127.088V27.7943H135.739C138.165 27.7943 140.139 25.8204 140.139 23.3947C140.139 20.969 138.165 18.9954 135.739 18.9954Z" fill="#3696FF"/>
<path d="M9.17929 27.831L12.747 20.7014L16.3136 27.831H25.1957L16.2991 10.0473C15.6262 8.70225 14.2511 7.85254 12.747 7.85254C11.2429 7.85254 9.86777 8.70225 9.1949 10.0473L0.297607 27.831H9.17929Z" fill="#67E3E2"/>
<path d="M25.1969 27.8308L32.6939 12.8493L40.1878 27.8308H49.0702L36.2457 2.19522C35.5728 0.850201 34.1977 0.000488281 32.6936 0.000488281C31.1895 0.000488281 29.8144 0.850201 29.1415 2.19522L16.3152 27.8308H25.1969Z" fill="#3491F7"/>
<path d="M20.7558 18.9551L25.1958 27.8306H16.3137L20.7558 18.9551Z" fill="#367AFF"/>
</svg>
