<svg width="10" height="6" viewBox="0 0 10 6" fill="none" xmlns="http://www.w3.org/2000/svg">
<path d="M1.75199 0.407677C1.55673 0.212415 1.24015 0.212415 1.04488 0.407677C0.849622 0.602939 0.849622 0.919522 1.04488 1.11478L1.75199 0.407677ZM5.39844 4.76123L5.04488 5.11478C5.24015 5.31005 5.55673 5.31005 5.75199 5.11478L5.39844 4.76123ZM9.75199 1.11478C9.94725 0.919522 9.94725 0.602939 9.75199 0.407677C9.55673 0.212415 9.24015 0.212415 9.04488 0.407677L9.75199 1.11478ZM1.04488 1.11478L5.04488 5.11478L5.75199 4.40768L1.75199 0.407677L1.04488 1.11478ZM5.75199 5.11478L9.75199 1.11478L9.04488 0.407677L5.04488 4.40768L5.75199 5.11478Z" fill="#3696FF"/>
</svg>
