<svg width="19" height="19" viewBox="0 0 19 19" fill="none" xmlns="http://www.w3.org/2000/svg">
<path d="M17.9354 16.9072L13.522 12.4939L12.4669 12.3676C13.5243 11.1481 14.1693 9.56229 14.1693 7.82547C14.1693 3.99451 11.0522 0.877441 7.22121 0.877441C3.39019 0.877441 0.273438 3.99431 0.273438 7.82527C0.273438 11.6562 3.39052 14.7733 7.22153 14.7733C8.95823 14.7733 10.5442 14.1284 11.7637 13.0708L11.8901 14.1263L16.3031 18.5394C16.7537 18.99 17.4846 18.9903 17.9354 18.5394C18.3863 18.0885 18.3859 17.3578 17.9354 16.9072ZM7.22153 13.4544C4.11733 13.4544 1.59214 10.9294 1.59214 7.82527C1.59247 6.27342 2.22364 4.8662 3.24286 3.84698C4.26209 2.82776 5.66935 2.19655 7.22121 2.19631C10.3252 2.19631 12.8504 4.72137 12.8504 7.82547C12.85 10.9291 10.3251 13.454 7.22153 13.4544Z" fill="#566DA9" fill-opacity="0.8"/>
</svg>
