<svg width="10" height="6" viewBox="0 0 10 6" fill="none" xmlns="http://www.w3.org/2000/svg">
<path d="M1.81505 1.03894C1.62139 0.842085 1.30482 0.839496 1.10797 1.03315C0.911115 1.22681 0.908526 1.54339 1.10219 1.74024L1.81505 1.03894ZM5.45862 5.45555L5.10219 5.8062C5.19618 5.90174 5.32459 5.95555 5.45862 5.95555C5.59264 5.95555 5.72106 5.90174 5.81505 5.8062L5.45862 5.45555ZM9.81505 1.74024C10.0087 1.54339 10.0061 1.22681 9.80927 1.03315C9.61242 0.839496 9.29584 0.842085 9.10219 1.03894L9.81505 1.74024ZM1.10219 1.74024L5.10219 5.8062L5.81505 5.1049L1.81505 1.03894L1.10219 1.74024ZM5.81505 5.8062L9.81505 1.74024L9.10219 1.03894L5.10219 5.1049L5.81505 5.8062Z" fill="#ADC4D8" fill-opacity="0.5"/>
</svg>
