<svg width="6" height="10" viewBox="0 0 6 10" fill="none" xmlns="http://www.w3.org/2000/svg">
<path d="M1.12789 8.54733C0.93263 8.74259 0.93263 9.05917 1.12789 9.25443C1.32315 9.44969 1.63974 9.44969 1.835 9.25443L1.12789 8.54733ZM5.48145 4.90088L5.835 5.25443C6.03026 5.05917 6.03026 4.74259 5.835 4.54733L5.48145 4.90088ZM1.835 0.547325C1.63974 0.352063 1.32315 0.352063 1.12789 0.547325C0.932629 0.742588 0.932629 1.05917 1.12789 1.25443L1.835 0.547325ZM1.835 9.25443L5.835 5.25443L5.12789 4.54733L1.12789 8.54733L1.835 9.25443ZM5.835 4.54733L1.835 0.547325L1.12789 1.25443L5.12789 5.25443L5.835 4.54733Z" fill="#3696FF"/>
</svg>
