<svg width="214" height="445" viewBox="0 0 214 445" fill="none" xmlns="http://www.w3.org/2000/svg">
<path d="M162.939 124.108C176.475 128.037 184.263 142.195 180.334 155.731L160.833 222.919C156.904 236.455 142.746 244.243 129.21 240.315L62.0215 220.813C48.4856 216.884 40.6974 202.726 44.6263 189.19L64.1279 122.002C68.0568 108.466 82.2149 100.678 95.7508 104.606L162.939 124.108ZM168.713 104.217L101.524 84.7152C77.042 77.6091 51.3428 91.7457 44.2367 116.228L24.735 183.417C17.6289 207.899 31.7657 233.598 56.248 240.704L123.436 260.206C147.919 267.312 173.618 253.175 180.724 228.693L200.226 161.504C207.332 137.022 193.195 111.323 168.713 104.217Z" fill="#ECF5FF"/>
<path d="M122.902 441.951L106.319 434.891C102.978 433.469 101.422 429.607 102.845 426.266L109.905 409.683C111.327 406.343 115.189 404.787 118.53 406.21L135.113 413.27C138.454 414.692 140.009 418.554 138.586 421.895L131.526 438.478C130.104 441.818 126.242 443.374 122.902 441.951Z" fill="#ECF5FF"/>
<path d="M21.3525 35.2177L6.32855 28.8213C3.30179 27.5326 1.89277 24.0343 3.18141 21.0076L9.57784 5.98361C10.8665 2.95685 14.3648 1.54782 17.3916 2.83647L32.4155 9.2329C35.4423 10.5215 36.8513 14.0199 35.5627 17.0466L29.1662 32.0706C27.8776 35.0973 24.3793 36.5064 21.3525 35.2177Z" fill="#ECF5FF"/>
</svg>
