<svg width="171" height="490" viewBox="0 0 171 490" fill="none" xmlns="http://www.w3.org/2000/svg">
<path d="M84.0801 44.5229V483.111" stroke="#EAEBEC"/>
<circle cx="84.0483" cy="336.708" r="2.27002" fill="#EAEBEC"/>
<circle cx="84.0796" cy="147.026" r="2.27002" fill="#EAEBEC"/>
<path d="M170.661 428.326V440.452C170.661 442.608 169.179 444.898 166.35 446.515V434.389C169.179 432.638 170.661 430.482 170.661 428.326Z" fill="#EDEDEE"/>
<path d="M6.28798 434.389V446.514C3.32389 444.763 1.97656 442.607 1.97656 440.317V428.191C1.97656 430.481 3.45862 432.637 6.28798 434.389Z" fill="#E8E9EA"/>
<path d="M166.348 434.389V446.514L97.0967 486.799V474.673L166.348 434.389Z" fill="#EDEDEE"/>
<path d="M76.0788 474.673V486.799L6.28809 446.514V434.389L76.0788 474.673Z" fill="#E8E9EA"/>
<path d="M166.349 422.128C172.143 425.497 172.143 431.021 166.349 434.254L97.0972 474.539C91.3038 477.907 81.8726 477.907 76.0792 474.539L6.28844 434.389C0.494999 431.021 0.494999 425.497 6.28844 422.263L75.5403 381.978C81.3337 378.61 90.7649 378.61 96.5583 381.978L166.349 422.128Z" fill="#F3F8FF"/>
<path d="M97.0972 474.673V486.799C91.3037 490.167 81.8725 490.167 76.0791 486.799V474.673C81.8725 477.907 91.3037 477.907 97.0972 474.673Z" fill="#EAEBEC"/>
<path d="M64.8977 411.888V422.667L50.751 414.313L50.8857 403.669L64.8977 411.888Z" fill="#4FB0B0"/>
<path d="M111.38 403.401C114.614 405.287 117.173 407.442 119.194 409.598L100.467 413.91C99.5237 413.101 98.4458 412.293 97.2332 411.619C88.341 406.499 74.0595 406.499 65.3019 411.619C65.1672 411.754 65.0325 411.754 64.763 411.889L50.751 403.535C50.8857 403.535 51.0205 403.401 51.0205 403.401C67.7271 393.835 94.6733 393.835 111.38 403.401Z" fill="#75F5F4"/>
<path d="M119.195 409.598V420.376L100.468 424.688V413.909L119.195 409.598Z" fill="#4FB0B0"/>
<path d="M100.467 413.909V424.688C99.5243 423.879 98.4465 423.071 97.2339 422.397C88.3416 417.277 74.0601 417.277 65.3026 422.397C65.1679 422.532 65.0331 422.532 64.7637 422.667V412.023C64.8984 411.888 65.0331 411.888 65.3026 411.753C74.0601 406.634 88.3416 406.634 97.2339 411.753C98.5812 412.292 99.659 413.101 100.467 413.909Z" fill="#61D4D4"/>
<path d="M114.345 422.668V433.311C114.345 430.886 113.267 428.461 110.842 426.305V415.662C113.267 417.817 114.345 420.242 114.345 422.668Z" fill="#D15CD1"/>
<path d="M134.419 422.667V433.311C134.419 439.644 130.243 445.841 122.024 450.692C121.62 450.961 121.35 451.096 120.946 451.365V440.721C121.35 440.452 121.62 440.317 122.024 440.048C130.243 435.197 134.419 429 134.419 422.667Z" fill="#E368E3"/>
<path d="M129.704 411.35C137.923 420.647 135.363 432.233 122.024 440.048C121.62 440.317 121.216 440.452 120.947 440.721L106.665 432.368C107.069 432.233 107.473 431.964 107.743 431.829C115.288 427.383 116.366 420.781 110.842 415.661L129.704 411.35Z" fill="#FF98FF"/>
<path d="M120.947 440.587V451.365L106.665 443.147V432.368L120.947 440.587Z" fill="#D15CD1"/>
<path d="M63.6861 412.562V423.206C60.0484 425.631 58.1621 428.73 58.1621 431.694V421.051C58.1621 418.086 60.0484 414.988 63.6861 412.562Z" fill="#61D4D4"/>
<path d="M63.6852 412.562C57.0834 416.873 56.4097 423.206 61.5295 428.056L44.5533 434.119C34.5832 424.822 36.2 412.562 49.4037 404.343L63.6852 412.562Z" fill="#75F5F4"/>
<path d="M61.6656 428.057L61.5309 438.835L44.6895 444.898V434.254L61.6656 428.057Z" fill="#4FB0B0"/>
<path d="M44.6878 434.254V444.898C40.3764 440.856 38.2207 436.275 38.2207 431.829V421.185C38.2207 425.631 40.3764 430.212 44.6878 434.254Z" fill="#61D4D4"/>
<path d="M111.246 440.047C94.5393 449.074 68.4015 448.805 52.099 439.374C49.6739 438.026 47.6529 436.544 46.0361 434.928L63.0123 428.865C63.9554 429.673 65.0332 430.482 66.2458 431.29C74.7339 436.14 88.207 436.41 97.0992 431.829L111.246 440.047Z" fill="#76B7FF"/>
<path d="M111.246 440.047V450.691C94.5393 459.718 68.4015 459.448 52.099 450.017C49.6739 448.67 47.6529 447.188 46.0361 445.571V434.927C47.7876 436.544 49.8086 438.026 52.099 439.373C68.4015 448.805 94.5393 449.074 111.246 440.047Z" fill="#3491F7"/>
<path d="M168.921 239.083V251.209C168.921 253.365 167.439 255.655 164.609 257.272V245.146C167.439 243.395 168.921 241.239 168.921 239.083Z" fill="#EDEDEE"/>
<path d="M4.54872 245.147V257.273C1.58463 255.521 0.237305 253.365 0.237305 251.075V238.949C0.237305 241.24 1.71936 243.395 4.54872 245.147Z" fill="#E8E9EA"/>
<path d="M164.61 245.147V257.273L95.3584 297.423V285.297L164.61 245.147Z" fill="#EDEDEE"/>
<path d="M74.3396 285.297V297.423L4.54883 257.273V245.147L74.3396 285.297Z" fill="#E8E9EA"/>
<path d="M164.61 232.886C170.404 236.254 170.404 241.778 164.745 245.012L95.4931 285.296C89.6997 288.665 80.2685 288.665 74.475 285.296L4.54957 245.147C-1.24387 241.778 -1.24387 236.254 4.41483 233.021L73.6666 192.736C79.4601 189.368 88.8913 189.368 94.6847 192.736L164.61 232.886Z" fill="#F3F8FF"/>
<path d="M95.3569 285.297V297.423C89.5635 300.791 80.1323 300.791 74.3389 297.423V285.297C80.1323 288.665 89.5635 288.665 95.3569 285.297Z" fill="#EAEBEC"/>
<path d="M52.3789 221.435V227.632L35.9416 237.198L25.4326 231L41.7351 221.569L52.3789 221.435Z" fill="#75F5F4"/>
<path d="M52.3796 227.632L52.2449 238.141L35.9424 247.707V237.198L52.3796 227.632Z" fill="#4FB0B0"/>
<path d="M35.9416 237.198V247.707L25.2979 241.644L25.4326 231L35.9416 237.198Z" fill="#61D4D4"/>
<path d="M89.8332 218.066L89.6985 224.129L51.7043 246.225L41.1953 240.162L79.1895 218.066H89.8332Z" fill="#FF98FF"/>
<path d="M89.6993 224.129V234.773L51.7051 256.869V246.225L89.6993 224.129Z" fill="#D15CD1"/>
<path d="M51.7043 246.225V256.868L41.1953 250.671V240.162L51.7043 246.225Z" fill="#E368E3"/>
<path d="M113.278 222.781L113.143 228.844L67.6037 255.386L56.96 249.323L102.634 222.781H113.278Z" fill="#76B7FF"/>
<path d="M113.143 228.845V239.354L67.4688 265.896L67.6034 255.387L113.143 228.845Z" fill="#1F69BA"/>
<path d="M67.6037 255.387L67.469 265.896L56.96 259.833V249.324L67.6037 255.387Z" fill="#3491F7"/>
<path d="M143.726 223.32V229.383L83.3664 264.548L72.8574 258.35L133.217 223.32H143.726Z" fill="#75F5F4"/>
<path d="M143.726 229.383V240.027L83.3662 275.057V264.548L143.726 229.383Z" fill="#4FB0B0"/>
<path d="M83.3674 264.548V275.057L72.7236 268.994L72.8584 258.351L83.3674 264.548Z" fill="#61D4D4"/>
<path d="M169.462 49.7075V61.8333C169.462 63.989 167.98 66.2795 165.15 67.8962V55.7704C167.98 54.1536 169.462 51.8632 169.462 49.7075Z" fill="#EDEDEE"/>
<path d="M5.08973 55.7704V67.8962C2.12565 66.1447 0.77832 63.989 0.77832 61.6986V49.5728C0.77832 51.8632 2.26038 54.0189 5.08973 55.7704Z" fill="#E8E9EA"/>
<path d="M165.149 55.7705V67.8963L95.8975 108.181V96.0551L165.149 55.7705Z" fill="#EDEDEE"/>
<path d="M74.8786 96.0551V108.181L5.08789 67.8963V55.7705L74.8786 96.0551Z" fill="#E8E9EA"/>
<path d="M165.149 43.6448C170.942 47.0131 170.942 52.5371 165.149 55.7706L95.897 96.0552C90.1036 99.4235 80.6724 99.4235 74.879 96.0552L5.08824 55.7706C-0.705196 52.4024 -0.705196 46.8784 5.08824 43.6448L74.3401 3.36019C80.1335 -0.00808549 89.5647 -0.00808549 95.3581 3.36019L165.149 43.6448Z" fill="#F3F8FF"/>
<path d="M95.898 96.0547V108.18C90.1045 111.549 80.6733 111.549 74.8799 108.18V96.0547C80.6733 99.423 90.1045 99.423 95.898 96.0547Z" fill="#EAEBEC"/>
<path d="M115.433 22.7612L115.298 33.5397L83.3672 52.1326V41.3541L115.433 22.7612Z" fill="#E368E3"/>
<path d="M115.433 22.7612L83.1442 41.3541H37.4238C37.4238 34.6176 41.9009 27.881 50.7194 22.7612C68.492 12.5217 97.3894 12.5217 115.433 22.7612Z" fill="#FF98FF"/>
<path d="M83.3663 41.3545V52.133H37.4238L37.5598 41.3545H83.3663Z" fill="#D15CD1"/>
<path d="M132.68 44.3184V55.0969C132.68 56.04 132.545 56.9831 132.275 57.7915V47.013C132.545 46.2046 132.68 45.2615 132.68 44.3184Z" fill="#3491F7"/>
<path d="M132.409 47.0132V57.7917C132.139 58.7348 131.87 59.6779 131.466 60.621V49.8425C131.87 48.8994 132.139 47.9563 132.409 47.0132Z" fill="#3491F7"/>
<path d="M131.466 49.8418V60.6203C131.062 61.6981 130.523 62.6413 129.85 63.7191V52.9406C130.523 51.9975 131.062 50.9196 131.466 49.8418Z" fill="#3491F7"/>
<path d="M129.85 52.9414V63.7199C129.005 64.9325 127.878 66.2798 126.751 67.4924V56.7139C127.878 55.5013 129.005 54.2887 129.85 52.9414Z" fill="#3491F7"/>
<path d="M126.751 56.7134V67.4919C124.865 69.5128 122.305 71.3991 119.476 73.0159C116.242 74.9021 112.604 76.5189 108.697 77.5967V66.8182C112.604 65.6056 116.242 64.1236 119.476 62.2374C122.44 60.4859 124.865 58.5996 126.751 56.7134Z" fill="#3491F7"/>
<path d="M108.696 66.8184V77.5969C106.54 78.2705 104.384 78.8094 102.229 79.2136V68.4351C104.519 68.0309 106.675 67.492 108.696 66.8184Z" fill="#3491F7"/>
<path d="M102.229 68.4355V79.214C100.478 79.6182 98.7261 79.8877 96.8398 80.0224V69.2439C98.7261 69.1092 100.478 68.8397 102.229 68.4355Z" fill="#3491F7"/>
<path d="M96.9743 69.3779V80.1564C95.3576 80.4259 93.7408 80.5606 91.9893 80.5606V69.7821C93.606 69.6474 95.2228 69.5127 96.9743 69.3779Z" fill="#3491F7"/>
<path d="M91.9902 69.7822V80.5607C91.8555 80.5607 91.8554 80.5607 91.7207 80.5607V69.7822C91.8554 69.7822 91.8555 69.7822 91.9902 69.7822Z" fill="#3491F7"/>
<path d="M119.206 24.9165C137.125 35.2908 137.125 51.8628 119.475 62.2371C111.661 66.6832 101.825 69.2431 91.7204 69.782L86.8701 43.5094H87.1396L119.206 24.9165Z" fill="#76B7FF"/>
<path d="M91.7204 69.7828V80.5613L86.8701 54.2887V43.5103L91.7204 69.7828Z" fill="#1F69BA"/>
<path d="M82.6805 44.4526L87.5439 71.3202C74.4397 72.0091 60.9303 69.5291 50.9333 63.6044C42.017 58.3687 37.5589 51.4796 37.4238 44.5904L82.6805 44.4526Z" fill="#75F5F4"/>
<path d="M87.4081 70.7251V81.5036C85.926 81.6383 84.444 81.6383 82.9619 81.6383V70.8598C84.444 70.8598 85.926 70.8598 87.4081 70.7251Z" fill="#61D4D4"/>
<path d="M82.9627 70.8598V81.6383C81.3459 81.6383 79.8638 81.6383 78.2471 81.5036V70.7251C79.8638 70.8598 81.4806 70.8598 82.9627 70.8598Z" fill="#61D4D4"/>
<path d="M78.3816 70.7255V81.504C76.7648 81.3692 75.148 81.2345 73.5312 81.0998V70.3213C75.148 70.456 76.7648 70.5907 78.3816 70.7255Z" fill="#61D4D4"/>
<path d="M73.5319 70.3211V81.0996C71.7804 80.8301 70.0289 80.5607 68.4121 80.2912V69.5127C70.0289 69.7822 71.7804 70.0516 73.5319 70.3211Z" fill="#61D4D4"/>
<path d="M68.4117 69.5128V80.2913C66.2375 79.8871 64.0634 79.3482 62.0342 78.8093V68.0308C63.9184 68.5697 66.0926 69.1086 68.4117 69.5128Z" fill="#61D4D4"/>
<path d="M62.3491 68.0306V78.8091C58.1724 77.5965 54.4 75.9798 50.8969 73.9588C42.0047 68.839 37.5586 62.1025 37.4238 55.3659V44.5874C37.4238 51.324 41.87 58.0605 50.8969 63.1803C54.4 65.2013 58.1724 66.818 62.3491 68.0306Z" fill="#61D4D4"/>
</svg>
