<svg width="220" height="884" viewBox="0 0 220 884" fill="none" xmlns="http://www.w3.org/2000/svg">
<g opacity="0.3">
<path d="M68.7574 775.597C76.428 771.84 85.6925 775.012 89.4502 782.682L108.102 820.757C111.86 828.427 108.688 837.692 101.018 841.45L62.9431 860.102C55.2725 863.86 46.008 860.688 42.2502 853.017L23.598 814.943C19.8403 807.272 23.0123 798.007 30.6829 794.25L68.7574 775.597ZM63.2354 764.325L25.1609 782.978C11.2871 789.774 5.52941 806.591 12.326 820.465L30.9782 858.539C37.7748 872.413 54.5914 878.17 68.4651 871.374L106.54 852.722C120.413 845.925 126.171 829.109 119.374 815.235L100.722 777.16C93.9256 763.287 77.1091 757.529 63.2354 764.325Z" fill="#147CEE"/>
<path d="M68.7574 775.597C76.428 771.84 85.6925 775.012 89.4502 782.682L108.102 820.757C111.86 828.427 108.688 837.692 101.018 841.45L62.9431 860.102C55.2725 863.86 46.008 860.688 42.2502 853.017L23.598 814.943C19.8403 807.272 23.0123 798.007 30.6829 794.25L68.7574 775.597ZM63.2354 764.325L25.1609 782.978C11.2871 789.774 5.52941 806.591 12.326 820.465L30.9782 858.539C37.7748 872.413 54.5914 878.17 68.4651 871.374L106.54 852.722C120.413 845.925 126.171 829.109 119.374 815.235L100.722 777.16C93.9256 763.287 77.1091 757.529 63.2354 764.325Z" fill="url(#paint0_linear)"/>
</g>
<g opacity="0.3">
<path d="M156.757 23.5975C164.428 19.8398 173.692 23.0118 177.45 30.6824L196.102 68.7569C199.86 76.4275 196.688 85.692 189.018 89.4497L150.943 108.102C143.272 111.86 134.008 108.688 130.25 101.017L111.598 62.9425C107.84 55.272 111.012 46.0075 118.683 42.2497L156.757 23.5975ZM151.235 12.3255L113.161 30.9777C99.2871 37.7743 93.5294 54.5908 100.326 68.4646L118.978 106.539C125.775 120.413 142.591 126.17 156.465 119.374L194.54 100.722C208.413 93.9251 214.171 77.1086 207.374 63.2349L188.722 25.1603C181.926 11.2866 165.109 5.52891 151.235 12.3255Z" fill="#147CEE"/>
<path d="M156.757 23.5975C164.428 19.8398 173.692 23.0118 177.45 30.6824L196.102 68.7569C199.86 76.4275 196.688 85.692 189.018 89.4497L150.943 108.102C143.272 111.86 134.008 108.688 130.25 101.017L111.598 62.9425C107.84 55.272 111.012 46.0075 118.683 42.2497L156.757 23.5975ZM151.235 12.3255L113.161 30.9777C99.2871 37.7743 93.5294 54.5908 100.326 68.4646L118.978 106.539C125.775 120.413 142.591 126.17 156.465 119.374L194.54 100.722C208.413 93.9251 214.171 77.1086 207.374 63.2349L188.722 25.1603C181.926 11.2866 165.109 5.52891 151.235 12.3255Z" fill="url(#paint1_linear)"/>
</g>
<g opacity="0.3">
<path d="M108.673 472.851L88.3962 464.219C84.3112 462.479 82.4096 457.758 84.1488 453.673L92.7816 433.396C94.5208 429.311 99.2422 427.409 103.327 429.149L123.604 437.781C127.689 439.521 129.591 444.242 127.851 448.327L119.219 468.604C117.479 472.689 112.758 474.591 108.673 472.851Z" fill="#147CEE"/>
<path d="M108.673 472.851L88.3962 464.219C84.3112 462.479 82.4096 457.758 84.1488 453.673L92.7816 433.396C94.5208 429.311 99.2422 427.409 103.327 429.149L123.604 437.781C127.689 439.521 129.591 444.242 127.851 448.327L119.219 468.604C117.479 472.689 112.758 474.591 108.673 472.851Z" fill="url(#paint2_linear)"/>
</g>
<defs>
<linearGradient id="paint0_linear" x1="44.1981" y1="773.652" x2="87.5023" y2="862.048" gradientUnits="userSpaceOnUse">
<stop offset="0.208333" stop-color="#51E2E1"/>
<stop offset="1" stop-color="white" stop-opacity="0"/>
<stop offset="1" stop-color="#51E2E1" stop-opacity="0"/>
</linearGradient>
<linearGradient id="paint1_linear" x1="132.198" y1="21.6516" x2="175.502" y2="110.048" gradientUnits="userSpaceOnUse">
<stop offset="0.208333" stop-color="#51E2E1"/>
<stop offset="1" stop-color="white" stop-opacity="0"/>
<stop offset="1" stop-color="#51E2E1" stop-opacity="0"/>
</linearGradient>
<linearGradient id="paint2_linear" x1="113.466" y1="433.465" x2="98.5346" y2="468.535" gradientUnits="userSpaceOnUse">
<stop offset="0.208333" stop-color="#51E2E1"/>
<stop offset="1" stop-color="white" stop-opacity="0"/>
<stop offset="1" stop-color="#51E2E1" stop-opacity="0"/>
</linearGradient>
</defs>
</svg>
