<svg width="343" height="608" viewBox="0 0 343 608" fill="none" xmlns="http://www.w3.org/2000/svg">
<path d="M328.493 561.616L315.676 556.159C313.093 555.06 311.891 552.075 312.991 549.493L318.448 536.675C319.547 534.093 322.532 532.891 325.114 533.99L337.932 539.447C340.514 540.547 341.716 543.531 340.617 546.114L335.16 558.931C334.06 561.513 331.076 562.716 328.493 561.616Z" fill="#ECF5FF"/>
<path d="M18.0653 30.5844L4.82859 24.9489C2.16189 23.8136 0.920485 20.7314 2.05583 18.0647L7.69135 4.828C8.82669 2.1613 11.9089 0.919891 14.5756 2.05524L27.8123 7.69075C30.479 8.8261 31.7204 11.9083 30.585 14.575L24.9495 27.8117C23.8142 30.4784 20.732 31.7198 18.0653 30.5844Z" fill="#ECF5FF"/>
<path d="M143.549 569.851L123.272 561.219C119.187 559.479 117.286 554.758 119.025 550.673L127.658 530.396C129.397 526.311 134.118 524.41 138.203 526.149L158.48 534.782C162.565 536.521 164.467 541.242 162.727 545.327L154.095 565.604C152.355 569.689 147.634 571.591 143.549 569.851Z" fill="#ECF5FF"/>
<path d="M58.1313 605.345L47.0444 600.624C44.8108 599.674 43.771 597.092 44.7219 594.858L49.4422 583.771C50.3932 581.538 52.9748 580.498 55.2084 581.449L66.2953 586.169C68.5289 587.12 69.5687 589.702 68.6178 591.935L63.8975 603.022C62.9465 605.256 60.3649 606.296 58.1313 605.345Z" fill="#DBECFF"/>
</svg>
