<svg width="150" height="120" viewBox="0 0 150 120" fill="none" xmlns="http://www.w3.org/2000/svg">
<path d="M144.111 76.9216C144.223 56.2403 115.681 39.3197 80.3599 39.1282C45.0393 38.9367 16.3153 55.5469 16.2031 76.2281C16.0909 96.9094 44.6331 113.83 79.9537 114.022C115.274 114.213 143.998 97.6028 144.111 76.9216Z" fill="url(#paint0_radial)"/>
<path d="M85.5441 18.3545V58.4882L72.231 66.2692L68.954 68.1121L55.8457 75.6884V35.3499L68.954 27.7736L72.231 25.9307L85.5441 18.3545Z" fill="#C99A6B"/>
<path d="M55.845 35.3493V75.6878L41.7127 67.4973L38.4356 65.6544L24.7129 57.6686V17.3301L38.4356 25.3159L41.7127 27.1587L55.845 35.3493Z" fill="#AE835B"/>
<path d="M54.0022 43.9504L48.0625 40.6742V33.917L54.0022 37.1932V43.9504ZM48.677 40.2647L53.7974 43.1313V37.398L48.677 34.5313V40.2647Z" fill="#87623F"/>
<path d="M51.7494 41.6988L50.5205 41.0845V37.6035L51.7494 38.4226V41.6988Z" fill="#87623F"/>
<path d="M52.9777 39.6503L49.291 37.6026L51.1343 36.374L52.9777 39.6503Z" fill="#87623F"/>
<path d="M55.846 35.3496L24.7139 17.3304L54.4123 0.334961L85.5445 18.3542L55.846 35.3496Z" fill="#E8B687"/>
<path d="M68.9535 27.7732L37.8213 9.95877L41.0984 7.91113L72.2305 25.9303L68.9535 27.7732Z" fill="#EBCBAB"/>
<path d="M41.7136 27.1593V67.4978L38.4365 65.6549V25.3164L41.7136 27.1593Z" fill="#9C754E"/>
<path d="M41.7136 27.1583L71.4121 10.1629L68.135 8.11523L38.4365 25.3154L41.7136 27.1583Z" fill="#54493E"/>
<path d="M24.7129 17.3301L55.845 35.3493L39.4597 26.3397L24.7129 17.3301Z" fill="#87623F"/>
<path d="M85.5441 18.3545L55.8457 35.3498L72.231 26.3403L85.5441 18.3545Z" fill="#87623F"/>
<path d="M39.2549 9.13935L39.4597 8.93457L54.6161 17.7394L69.5678 9.13935L69.7726 9.34409L54.821 17.9442L70.5919 26.9538H70.3871L54.6161 17.9442L40.279 26.3395L40.0742 26.1347L54.4113 17.9442L39.2549 9.13935Z" fill="#D1A986"/>
<path d="M72.2302 25.9326V66.2711L68.9531 68.114V27.7755L72.2302 25.9326Z" fill="#D9AF84"/>
<path opacity="0.3" d="M128.044 57.4668H116.818L108.815 62.0053V68.4547L116.818 72.9932H128.044L136.046 68.4547V62.0053L128.044 57.4668Z" fill="black"/>
<path d="M126.132 46.002H118.488V33.1032L122.43 32.0283L126.132 33.1032V46.002Z" fill="#B5AFA7"/>
<path d="M131.506 49.1076L126.132 46.0023V33.1035L129.595 33.9395L132.94 36.3282L131.506 49.1076Z" fill="#D8D1C7"/>
<path d="M113.114 49.1076L118.488 46.0023V33.1035L115.025 33.9395L111.8 36.806L113.114 49.1076Z" fill="#A39C95"/>
<path d="M117.174 45.7615V72.1564L109.889 67.8568L109.77 41.4619L114.547 43.7311L117.174 45.7615Z" fill="#D8D1C7"/>
<path d="M127.685 45.7629V72.1577H117.175V45.7629L121.833 45.2852L127.685 45.7629Z" fill="#B5AFA7"/>
<path d="M135.089 41.4619V67.8568L127.685 72.1564V45.7615L130.909 43.0145L135.089 41.4619Z" fill="#A39C95"/>
<path d="M127.686 31.0723H117.175L109.771 35.3719V41.463L117.175 45.7626H127.686L135.09 41.463V35.3719L127.686 31.0723ZM131.507 40.627L126.133 43.7322H118.489L113.115 40.627V36.2079L118.489 33.1027H126.133L131.507 36.2079V40.627Z" fill="#E6E1DD"/>
<path opacity="0.3" d="M132.822 62.7211L126.731 68.9316H118.132L112.041 62.7211L109.771 61.7656V65.9458L117.176 70.2454H127.687L135.091 65.9458V61.7656L132.822 62.7211Z" fill="black"/>
<path d="M117.056 64.5131V69.4099L109.293 64.8714V59.9746L114.309 62.3633L117.056 64.5131Z" fill="#D8D1C7"/>
<path d="M128.045 64.5129V69.4097H117.057V64.5129L121.834 64.0352L128.045 64.5129Z" fill="#B5AFA7"/>
<path d="M135.808 59.9746V64.8714L128.045 69.4099V64.5131L131.389 61.6467L135.808 59.9746Z" fill="#A39C95"/>
<path d="M135.092 53.2871V59.4977L127.687 63.7973H117.177L109.772 59.4977V53.2871L109.294 53.6454V59.9754L117.057 64.5139H128.045L135.808 59.9754V53.6454L135.092 53.2871Z" fill="#E6E1DD"/>
<path opacity="0.3" d="M132.822 55.557L126.731 61.6481H118.132L112.041 55.557L109.771 54.6016V58.6623L117.176 62.9619H127.687L135.091 58.6623V54.6016L132.822 55.557Z" fill="black"/>
<path d="M117.056 57.2269V62.1237L109.293 57.7047V52.6885L114.309 55.0772L117.056 57.2269Z" fill="#D8D1C7"/>
<path d="M128.045 57.2284V62.1252H117.057V57.2284L121.834 56.8701L128.045 57.2284Z" fill="#B5AFA7"/>
<path d="M135.808 52.6885V57.5853L128.045 62.1237V57.2269L131.389 54.3605L135.808 52.6885Z" fill="#A39C95"/>
<path d="M135.092 46.0029V52.2135L127.687 56.5131H117.177L109.772 52.2135V46.1224L109.294 46.3613V52.6912L117.057 57.2297H128.045L135.808 52.6912V46.3613L135.092 46.0029Z" fill="#E6E1DD"/>
<path opacity="0.3" d="M141.421 75.2617H130.194L122.192 79.8002V86.2496L130.194 90.7881H141.421L149.423 86.2496V79.8002L141.421 75.2617Z" fill="black"/>
<path d="M139.508 71.9188H131.864V59.0199L135.806 58.0645L139.508 59.0199V71.9188Z" fill="#B5AFA7"/>
<path d="M144.882 75.0237L139.508 71.9184V59.0195L142.971 59.8556L146.196 62.3637L144.882 75.0237Z" fill="#D8D1C7"/>
<path d="M126.49 75.0237L131.864 71.9184V59.0195L128.401 59.8556L125.057 62.8414L126.49 75.0237Z" fill="#A39C95"/>
<path d="M130.551 71.6785V89.9519L123.146 85.6523V67.3789L127.924 69.6482L130.551 71.6785Z" fill="#D8D1C7"/>
<path d="M141.062 71.6806V89.9539H130.552V71.6806L135.09 71.3223L141.062 71.6806Z" fill="#B5AFA7"/>
<path d="M148.466 67.3789V85.6523L141.062 89.9519V71.6785L144.286 68.9316L148.466 67.3789Z" fill="#A39C95"/>
<path d="M141.063 57.1084H130.552L123.147 61.408V67.4991L130.552 71.7987H141.063L148.467 67.4991V61.408L141.063 57.1084ZM144.884 66.5437L139.51 69.6489H131.866L126.492 66.5437V62.1246L131.866 59.0193H139.51L144.884 62.1246V66.5437Z" fill="#E6E1DD"/>
<path opacity="0.3" d="M146.199 80.5177L140.108 86.7282H131.509L125.418 80.5177L123.148 79.6816V83.7424L130.553 88.042H141.063L148.468 83.7424V79.6816L146.199 80.5177Z" fill="black"/>
<path d="M130.314 82.308L130.433 87.2048L122.67 82.6663L122.551 77.7695L127.567 80.1582L130.314 82.308Z" fill="#D8D1C7"/>
<path d="M141.302 82.3088L141.422 87.2056H130.434L130.314 82.3088L135.092 81.8311L141.302 82.3088Z" fill="#B5AFA7"/>
<path d="M149.066 77.7695V82.6663L141.422 87.2048L141.303 82.308L144.766 79.4416L149.066 77.7695Z" fill="#A39C95"/>
<path d="M148.468 71.082V77.2926L141.063 81.5922H130.553L123.148 77.2926V71.082L122.551 71.4404V77.7703L130.314 82.3088H141.302L149.065 77.7703V71.4404L148.468 71.082Z" fill="#E6E1DD"/>
<path d="M93.9928 47.5305C88.1545 50.8666 88.2935 56.288 93.9928 59.6241C99.8311 62.9603 109.145 62.9603 114.983 59.6241C120.821 56.288 120.682 50.8666 114.983 47.5305C109.145 44.1943 99.6921 44.1943 93.9928 47.5305Z" fill="#DEE5E9"/>
<path d="M90.6563 28.3477L89.4053 49.3378C89.5443 51.562 90.9344 53.6471 93.8535 55.3151C99.8308 58.7903 109.283 58.7903 115.261 55.3151C117.902 53.7861 119.431 51.7009 119.57 49.6158H119.709L118.458 28.9037L90.6563 28.3477Z" fill="#423D3E"/>
<path d="M118.412 29.0015C118.436 24.5488 112.232 20.9053 104.555 20.8636C96.8775 20.822 90.6343 24.3979 90.6102 28.8507C90.586 33.3034 96.79 36.9469 104.467 36.9885C112.144 37.0302 118.388 33.4543 118.412 29.0015Z" fill="#6B6164"/>
<path d="M117.735 28.7049C117.758 24.4824 111.864 21.0274 104.571 20.9878C97.2776 20.9483 91.3466 24.3392 91.3237 28.5616C91.3008 32.7841 97.1946 36.2391 104.488 36.2787C111.781 36.3182 117.712 32.9273 117.735 28.7049Z" fill="#85787C"/>
<path d="M96.4961 25.7041V28.4843C96.4961 29.5963 97.3301 30.7084 98.8592 31.6814C102.056 33.4885 107.061 33.4885 110.258 31.6814C111.648 30.8474 112.482 29.7353 112.482 28.6233V26.1211L96.4961 25.7041Z" fill="#493F41"/>
<path d="M97.8864 19.4486C94.2722 21.5337 94.2722 25.0089 97.8864 27.094C101.501 29.1791 107.478 29.1791 111.092 27.094C114.706 25.0089 114.706 21.5337 111.092 19.4486C107.478 17.3635 101.501 17.3635 97.8864 19.4486Z" fill="#DCDBE5"/>
<path d="M93.8535 18.1982V23.3415C93.9925 24.8706 94.9656 26.3997 96.9117 27.5117C101.082 29.8749 107.893 29.8749 112.064 27.5117C114.01 26.3997 114.983 25.0096 115.122 23.4805V18.6152L93.8535 18.1982Z" fill="#554D4E"/>
<path d="M96.9119 13.4716C92.7416 15.8347 92.7416 19.7269 96.9119 22.2291C101.082 24.7312 107.893 24.5922 112.064 22.2291C116.234 19.8659 116.234 15.9737 112.064 13.4716C107.754 11.1084 101.082 11.1084 96.9119 13.4716Z" fill="#6B6164"/>
<path d="M97.1887 13.6112C93.2965 15.8354 93.2965 19.5886 97.1887 21.8127C101.22 24.0368 107.614 24.1758 111.506 21.8127C115.399 19.5886 115.399 15.8354 111.506 13.6112C107.614 11.3871 101.081 11.2481 97.1887 13.6112Z" fill="#85787C"/>
<path d="M81.9769 57.4924C77.9864 59.7727 78.0814 63.4782 81.9769 65.7584C85.9673 68.0387 92.3331 68.0387 96.3236 65.7584C100.314 63.4782 100.219 59.7727 96.3236 57.4924C92.3331 55.2122 85.8723 55.2122 81.9769 57.4924Z" fill="#DEE5E9"/>
<path d="M79.6959 44.3809L78.8408 58.7276C78.9358 60.2478 79.8859 61.6729 81.8812 62.8131C85.9667 65.1883 92.4274 65.1883 96.5129 62.8131C98.3181 61.7679 99.3633 60.3428 99.4583 58.9176H99.5533L98.6982 44.7609L79.6959 44.3809Z" fill="#554D4E"/>
<path d="M98.6669 44.8288C98.6835 41.7853 94.443 39.2951 89.1957 39.2666C83.9484 39.2381 79.6812 41.6822 79.6647 44.7257C79.6482 47.7691 83.8886 50.2594 89.1359 50.2879C94.3832 50.3164 98.6504 47.8723 98.6669 44.8288Z" fill="#6B6164"/>
<path d="M98.2036 44.6262C98.2192 41.7402 94.1908 39.3787 89.2058 39.3516C84.2209 39.3246 80.1671 41.6422 80.1514 44.5283C80.1357 47.4143 84.1642 49.7758 89.1491 49.8029C94.1341 49.8299 98.1879 47.5122 98.2036 44.6262Z" fill="#85787C"/>
<path d="M83.6865 42.5752V44.4754C83.6865 45.2355 84.2566 45.9956 85.3017 46.6607C87.487 47.8958 90.9074 47.8958 93.0927 46.6607C94.0428 46.0906 94.6128 45.3305 94.6128 44.5704V42.8602L83.6865 42.5752Z" fill="#493F41"/>
<path d="M84.6369 38.2984C82.1666 39.7235 82.1666 42.0988 84.6369 43.524C87.1072 44.9492 91.1927 44.9492 93.663 43.524C96.1333 42.0988 96.1333 39.7235 93.663 38.2984C91.1927 36.8732 87.1072 36.8732 84.6369 38.2984Z" fill="#DCDBE5"/>
<path d="M81.8809 37.4434V40.9588C81.9759 42.0039 82.6409 43.049 83.9711 43.8091C86.8214 45.4243 91.477 45.4243 94.3273 43.8091C95.6575 43.049 96.3226 42.0989 96.4176 41.0538V37.7284L81.8809 37.4434Z" fill="#554D4E"/>
<path d="M83.9708 34.2133C81.1204 35.8285 81.1204 38.4889 83.9708 40.1991C86.8211 41.9093 91.4767 41.8143 94.327 40.1991C97.1773 38.5839 97.1773 35.9236 94.327 34.2133C91.3816 32.5982 86.8211 32.5982 83.9708 34.2133Z" fill="#6B6164"/>
<path d="M84.1613 34.3098C81.5009 35.83 81.5009 38.3953 84.1613 39.9155C86.9166 41.4357 91.2871 41.5307 93.9474 39.9155C96.6078 38.3953 96.6078 35.83 93.9474 34.3098C91.2871 32.7896 86.8216 32.6946 84.1613 34.3098Z" fill="#85787C"/>
<path d="M26.4033 97.3652L51.7489 82.726V64.5908L26.4033 79.23V97.3652Z" fill="#EBE7E3"/>
<path d="M26.4029 97.3652L0.838867 82.726V64.5908L26.4029 79.23V97.3652Z" fill="#DED8D1"/>
<path d="M0.838867 64.5908L26.4029 79.23L12.6376 71.8012L0.838867 64.5908Z" fill="#A0978F"/>
<path d="M26.4029 79.2296L0.838867 64.5904L26.4029 49.9512L51.7485 64.5904L26.4029 79.2296Z" fill="#FCFBFA"/>
<path d="M15.4776 84.474L11.3262 82.0705V70.4902L15.4776 72.8937V84.474Z" fill="#9C754E"/>
<path d="M15.4776 72.8943L40.8231 58.255L36.6717 55.8516L11.3262 70.4908L15.4776 72.8943Z" fill="#F1D6BC"/>
<path d="M121.67 68.8751L121.486 69.5211L112.073 66.5682L82.5449 49.4971L121.67 68.8751Z" fill="#AE835B"/>
<path d="M82.5452 49.4971L51.6326 67.3065L38.8984 68.1369L38.7139 67.491L82.5452 49.4971Z" fill="#AE835B"/>
<path d="M81.1611 109.846L112.074 92.0371V65.9229L81.1611 83.7322V109.846Z" fill="#C99A6B"/>
<path d="M112.074 65.9229L81.1611 83.7322L97.4941 74.8737L112.074 65.9229Z" fill="#87623F"/>
<path d="M81.1603 109.846L51.6318 92.7744V66.6602L81.1603 83.7313V109.846Z" fill="#AE835B"/>
<path d="M79.684 107.446L73.04 103.57V95.9111L79.684 99.7867V107.446ZM73.5014 103.293L79.2226 106.615V99.9713L73.5014 96.6493V103.293Z" fill="#87623F"/>
<path d="M77.0995 104.954L75.623 104.124V100.248L77.0995 101.171V104.954Z" fill="#87623F"/>
<path d="M78.4845 102.646L74.1475 100.155L76.3621 98.7705L78.4845 102.646Z" fill="#87623F"/>
<path d="M42.0352 80.7773L81.1604 83.7302V84.3762L71.7482 98.2176L42.2197 81.1465L42.0352 80.7773Z" fill="#D6B28E"/>
<path d="M124.808 82.0693L93.8953 99.8787L81.1611 84.3762V83.7303L124.993 81.7002L124.808 82.0693Z" fill="#D6B28E"/>
<path d="M51.6319 66.6602L81.1604 83.7313L71.5637 97.8496L42.0352 80.7785L51.6319 66.6602Z" fill="#EDBC8E"/>
<path d="M92.1417 51.8034L121.67 68.8746L112.073 65.9218L82.5449 48.8506L92.1417 51.8034Z" fill="#EDBC8E"/>
<path d="M82.5445 48.8506L112.073 65.9218L81.1603 83.7311L51.6318 66.66L82.5445 48.8506Z" fill="#E8B687"/>
<path d="M52.3691 66.6605L82.5436 49.3125L111.334 65.9223L81.1594 83.2703L52.3691 66.6605Z" fill="#C99A6B"/>
<path d="M124.993 81.7021L94.1721 99.5115L81.1611 83.7322L112.074 65.9229L124.993 81.7021Z" fill="#F7CCA3"/>
<path d="M82.5472 48.8506L51.6345 66.66L38.7158 67.4904L69.5362 49.6811L82.5472 48.8506Z" fill="#E8B687"/>
<path d="M97.4941 74.5024L97.2173 74.5947L97.125 74.5024L97.4018 74.4102L97.4941 74.5024Z" fill="#D1A986"/>
<path d="M75.4395 79.9479L81.1606 83.2698L88.2659 79.2097L82.5447 75.8877L75.4395 79.9479Z" fill="#AD8057"/>
<path d="M82.5449 75.8881V49.3125L111.335 65.9223L88.2661 79.2101L82.5449 75.8881Z" fill="#AE835B"/>
<path d="M103.4 70.4425L81.1612 83.2689L67.7811 75.5177L64.3669 73.5799L60.8604 71.5498L63.7209 70.9038L68.3348 67.0282L73.8714 65.275L77.4701 62.3221L82.5453 60.6611L85.4059 61.2148L88.2665 62.968L92.4189 64.2599L96.2946 65.9209L99.7088 68.7815L103.4 70.4425Z" fill="#EBEDFA"/>
<path d="M70.0885 70.2598H68.0585C67.3203 70.2598 66.7666 70.9057 66.7666 71.5516C66.7666 72.2898 67.4125 72.8435 68.0585 72.8435H70.0885C70.8268 72.8435 71.3804 72.1976 71.3804 71.5516C71.3804 70.8134 70.8268 70.2598 70.0885 70.2598Z" fill="#E1E7F7"/>
<path d="M78.5778 79.2104L80.4233 78.2877C81.0692 77.9186 81.3461 77.1804 80.9769 76.5344C80.6078 75.8885 79.8696 75.6116 79.2237 75.9808L77.3782 76.9035C76.7322 77.2726 76.4554 78.0108 76.8245 78.6568C77.1013 79.3027 77.9318 79.5795 78.5778 79.2104Z" fill="#E1E7F7"/>
<path d="M84.8523 68.4146L86.0519 70.0756C86.5133 70.6293 87.3438 70.8138 87.8975 70.3525C88.4511 69.8911 88.6357 69.0606 88.1743 68.5069L86.9747 66.846C86.5133 66.2923 85.6828 66.1077 85.1292 66.5691C84.5755 67.0305 84.4832 67.861 84.8523 68.4146Z" fill="#E1E7F7"/>
<path d="M93.1569 72.1968L95.0024 71.274C95.6483 70.9049 95.9252 70.1667 95.5561 69.5207C95.1869 68.8748 94.4487 68.598 93.8028 68.9671L91.9573 69.8898C91.3113 70.259 91.0345 70.9972 91.4036 71.6431C91.6804 72.289 92.5109 72.5659 93.1569 72.1968Z" fill="#E1E7F7"/>
<path d="M83.5608 78.1028L85.5909 78.4719C86.3291 78.5641 86.975 78.1028 87.1596 77.3646C87.2518 76.6263 86.7905 75.9804 86.0522 75.7958L84.0222 75.4267C83.2839 75.3345 82.638 75.7959 82.4535 76.5341C82.3612 77.2723 82.9148 78.0105 83.5608 78.1028Z" fill="#EDF5FC"/>
<path d="M79.7782 71.1821L78.2095 72.474C77.6558 72.9354 77.5635 73.7659 78.0249 74.3195C78.4863 74.8732 79.3168 74.9655 79.8704 74.5041L81.4391 73.2122C81.9928 72.7508 82.0851 71.9204 81.6237 71.3667C81.2546 70.813 80.3318 70.7207 79.7782 71.1821Z" fill="#EDF5FC"/>
<path d="M83.0076 60.9399L81.4389 62.2318C80.8853 62.6932 80.793 63.5237 81.2544 64.0774C81.7158 64.631 82.5463 64.7233 83.0999 64.2619L84.6686 62.97C85.2223 62.5087 85.3146 61.6782 84.8532 61.1245C84.3918 60.5708 83.5613 60.4786 83.0076 60.9399Z" fill="#EDF5FC"/>
<path d="M90.9427 71.3667L89.2817 70.2594C88.6358 69.8903 87.8053 70.0749 87.4362 70.6285C87.0671 71.2745 87.2516 72.1049 87.8053 72.474L89.4663 73.5814C90.1122 73.9505 90.9427 73.7659 91.3118 73.2123C91.7732 72.5663 91.5886 71.7359 90.9427 71.3667Z" fill="#F0F2FF"/>
<path d="M93.6189 71.7355L92.2347 73.2119C91.7733 73.7655 91.7733 74.596 92.327 75.0574C92.8806 75.5188 93.7111 75.5188 94.1725 74.9651L95.5567 73.4887C96.018 72.935 96.018 72.1046 95.4644 71.6432C95.003 71.1818 94.1725 71.2741 93.6189 71.7355Z" fill="#F0F2FF"/>
<path d="M88.1741 63.7085L86.5131 62.6012C85.8672 62.2321 85.0367 62.4167 84.6676 62.9703C84.2985 63.6162 84.4831 64.4467 85.0367 64.8158L86.6977 65.9232C87.3436 66.2923 88.1741 66.1077 88.5432 65.554C88.9123 64.9081 88.7278 64.0776 88.1741 63.7085Z" fill="#F0F2FF"/>
<path d="M72.8556 72.7505L70.8256 72.6582C70.0873 72.6582 69.4414 73.2119 69.4414 73.9501C69.4414 74.6883 69.9951 75.3342 70.7333 75.3342L72.7634 75.4265C73.5016 75.4265 74.1475 74.8728 74.1475 74.1346C74.1475 73.3964 73.5938 72.8428 72.8556 72.7505Z" fill="#F0F2FF"/>
<path d="M79.2228 62.6938L77.1927 62.6016C76.4545 62.6016 75.8086 63.1552 75.8086 63.8934C75.8086 64.6316 76.3623 65.2776 77.1005 65.2776L79.1306 65.3699C79.8688 65.3699 80.5147 64.8162 80.5147 64.078C80.5147 63.4321 79.9611 62.7861 79.2228 62.6938Z" fill="#F0F2FF"/>
<path d="M92.1412 65.0003L90.3879 66.0153C89.742 66.3844 89.4652 67.2149 89.8343 67.8608C90.2034 68.5068 91.0339 68.7836 91.6798 68.4145L93.4331 67.3995C94.079 67.0304 94.3558 66.1999 93.9867 65.5539C93.6176 64.908 92.7871 64.6312 92.1412 65.0003Z" fill="#F7F8FF"/>
<path d="M81.53 78.8408L79.4999 79.2099C78.7617 79.3022 78.3003 80.0404 78.3926 80.7786C78.4848 81.5168 79.223 81.9782 79.9613 81.8859L81.9914 81.5168C82.7296 81.4245 83.1909 80.6863 83.0987 79.9481C82.9141 79.2099 82.2682 78.7485 81.53 78.8408Z" fill="#F7F8FF"/>
<path d="M68.4283 74.1355C68.5206 74.6891 68.2438 75.3351 67.6901 75.5196L64.3682 73.5818C64.5527 73.4895 64.7373 73.3972 64.9218 73.305L66.9519 72.9358C67.6901 72.8436 68.3361 73.3972 68.4283 74.1355Z" fill="#F7F8FF"/>
<path d="M99.7097 68.5068L97.6796 68.8759C96.9414 68.9682 96.48 69.7064 96.5722 70.4446C96.6645 71.1828 97.4027 71.6442 98.141 71.5519L100.171 71.1828C100.909 71.0906 101.371 70.3524 101.278 69.6141C101.186 68.8759 100.448 68.4145 99.7097 68.5068Z" fill="#F7F8FF"/>
<path d="M79.777 65.4606L77.7469 65.8297C77.0087 65.922 76.5474 66.6601 76.6396 67.3984C76.7319 68.1366 77.4701 68.598 78.2083 68.5057L80.2384 68.1366C80.9766 68.0443 81.438 67.3061 81.3457 66.5679C81.1612 65.8297 80.423 65.276 79.777 65.4606Z" fill="#F7F8FF"/>
<path d="M73.5031 66.477L71.473 66.3848C70.7348 66.3848 70.0889 66.9384 70.0889 67.6766C70.0889 68.4148 70.6425 69.0608 71.3807 69.0608L73.4108 69.1531C74.149 69.1531 74.795 68.5994 74.795 67.8612C74.795 67.123 74.149 66.5693 73.5031 66.477Z" fill="#F7F8FF"/>
<path d="M76.8235 72.2896L75.1626 71.1823C74.5166 70.8132 73.6861 70.9977 73.317 71.5514C72.9479 72.1973 73.1325 73.0278 73.6861 73.3969L75.3471 74.5042C75.993 74.8733 76.8235 74.6888 77.1926 74.1351C77.654 73.4892 77.4695 72.6587 76.8235 72.2896Z" fill="#F2F4FF"/>
<path d="M80.9766 70.9979L82.9144 70.4443C83.6526 70.2597 84.0217 69.5215 83.8371 68.7833C83.6526 68.0451 82.9144 67.676 82.1762 67.8605L80.2384 68.4142C79.5001 68.5987 79.131 69.337 79.3156 70.0752C79.5001 70.7211 80.2384 71.1825 80.9766 70.9979Z" fill="#F2F4FF"/>
<path d="M84.9443 75.3338L86.8821 74.7802C87.6204 74.5956 87.9895 73.8574 87.8049 73.1192C87.6204 72.381 86.8822 72.0119 86.1439 72.1964L84.2061 72.7501C83.4679 72.9347 83.0988 73.6729 83.2834 74.4111C83.4679 75.1493 84.2061 75.5184 84.9443 75.3338Z" fill="#F2F4FF"/>
<path d="M85.0372 66.1996L86.0522 64.4464C86.4213 63.8005 86.1445 62.97 85.4985 62.6009C84.8526 62.2318 84.0221 62.5086 83.653 63.1545L82.638 64.9078C82.2689 65.5537 82.5457 66.3842 83.1916 66.7533C83.8376 67.0301 84.6681 66.7533 85.0372 66.1996Z" fill="#F2F4FF"/>
<path d="M65.3809 71.0893L66.8573 69.7051C67.411 69.1515 67.411 68.321 66.8573 67.8596C66.3037 67.3059 65.4732 67.3059 65.0118 67.8596L63.5354 69.2437C62.9817 69.7974 62.9817 70.6279 63.5354 71.0893C63.9967 71.5506 64.8272 71.5506 65.3809 71.0893Z" fill="#F2F4FF"/>
<path d="M90.0205 77.0887L91.9583 76.5351C92.6965 76.3505 93.0656 75.6123 92.8811 74.8741C92.6965 74.1359 91.9583 73.7668 91.2201 73.9513L89.2823 74.505C88.5441 74.6895 88.175 75.4277 88.3595 76.166C88.5441 76.9042 89.2823 77.2733 90.0205 77.0887Z" fill="#F2F4FF"/>
<path d="M114.105 104.217L116.135 103.848C116.873 103.664 117.334 103.018 117.15 102.279C116.965 101.541 116.319 101.08 115.581 101.264L113.551 101.633C112.813 101.818 112.351 102.464 112.536 103.202C112.72 103.94 113.366 104.402 114.105 104.217Z" fill="#DFE3FF"/>
<path d="M86.5143 118.243L88.3598 117.32C89.0057 116.951 89.2826 116.213 88.9135 115.567C88.5444 114.921 87.8061 114.644 87.1602 115.013L85.3147 115.936C84.6687 116.305 84.3919 117.043 84.761 117.689C85.0379 118.335 85.8683 118.519 86.5143 118.243Z" fill="#DFE3FF"/>
<path d="M71.7493 112.613L73.7793 112.983C74.5175 113.075 75.1635 112.614 75.348 111.875C75.4403 111.137 74.9789 110.491 74.2407 110.307L72.2106 109.937C71.4724 109.845 70.8265 110.307 70.6419 111.045C70.5497 111.783 71.1033 112.429 71.7493 112.613Z" fill="#D5E7F7"/>
<path d="M95.8329 108.185L94.2641 109.477C93.7105 109.938 93.6182 110.769 94.0796 111.322C94.541 111.876 95.3715 111.968 95.9251 111.507L97.4938 110.215C98.0475 109.754 98.1398 108.923 97.6784 108.37C97.3093 107.816 96.3865 107.724 95.8329 108.185Z" fill="#D5E7F7"/>
<path d="M83.469 116.768L81.8081 115.661C81.1621 115.292 80.3316 115.476 79.9625 116.03C79.5934 116.676 79.778 117.506 80.3317 117.875L81.9926 118.983C82.6386 119.352 83.4691 119.167 83.8382 118.614C84.2995 117.968 84.115 117.137 83.469 116.768Z" fill="#F0F2FF"/>
<path d="M61.5985 104.124L63.6286 104.493C64.3668 104.586 65.0127 104.124 65.1973 103.386C65.2896 102.648 64.8282 102.002 64.09 101.817L62.0599 101.448C61.3217 101.356 60.6757 101.817 60.4912 102.556C60.3989 103.294 60.8603 103.94 61.5985 104.124Z" fill="#DFE3FF"/>
<path d="M56.4315 100.342L54.8628 101.634C54.3091 102.096 54.2168 102.926 54.6782 103.48C55.1396 104.034 55.9701 104.126 56.5238 103.664L58.0925 102.373C58.6461 101.911 58.7384 101.081 58.277 100.527C57.9079 99.8811 57.0774 99.8811 56.4315 100.342Z" fill="#F0F2FF"/>
<path d="M79.9612 112.245L78.3003 111.137C77.6543 110.768 76.8238 110.953 76.4547 111.506C76.0856 112.152 76.2702 112.983 76.8238 113.352L78.4848 114.459C79.1307 114.828 79.9612 114.644 80.3303 114.09C80.7917 113.444 80.6072 112.614 79.9612 112.245Z" fill="#F0F2FF"/>
<path d="M107.368 106.155L109.213 106.985C109.859 107.262 110.69 106.985 110.967 106.339C111.243 105.693 110.967 104.863 110.321 104.586L108.475 103.755C107.829 103.479 106.999 103.755 106.722 104.401C106.353 105.047 106.722 105.878 107.368 106.155Z" fill="#F0F2FF"/>
<path d="M105.246 112.615L107.091 111.784C107.737 111.508 108.014 110.677 107.737 110.031C107.461 109.385 106.63 109.108 105.984 109.385L104.139 110.216C103.493 110.493 103.216 111.323 103.493 111.969C103.769 112.707 104.6 112.984 105.246 112.615Z" fill="#DFE3FF"/>
<path d="M44.8967 87.8853L42.8666 87.793C42.1284 87.793 41.4824 88.3466 41.4824 89.0848C41.4824 89.823 42.0361 90.469 42.7743 90.469L44.8044 90.5613C45.5426 90.5613 46.1885 90.0076 46.1885 89.2694C46.1885 88.5312 45.6349 87.8853 44.8967 87.8853Z" fill="#F0F2FF"/>
<path d="M113.366 109.016H115.396C116.134 109.016 116.688 108.37 116.688 107.632C116.688 106.893 116.042 106.34 115.303 106.34H113.273C112.535 106.34 111.981 106.986 111.981 107.724C112.074 108.462 112.627 109.016 113.366 109.016Z" fill="#D1D7FF"/>
<defs>
<radialGradient id="paint0_radial" cx="0" cy="0" r="1" gradientUnits="userSpaceOnUse" gradientTransform="translate(189.432 122.807) rotate(-148.606) scale(219.338 198.318)">
<stop stop-color="#C4E0FF"/>
<stop offset="0.383503" stop-color="#ECF5FF"/>
<stop offset="0.832592" stop-color="#F7FBFF"/>
</radialGradient>
</defs>
</svg>
