<svg width="207" height="162" viewBox="0 0 207 162" fill="none" xmlns="http://www.w3.org/2000/svg">
<g opacity="0.3">
<path d="M135.827 40.3676C144.398 36.1689 154.75 39.7132 158.949 48.284L179.79 90.8273C183.989 99.3981 180.445 109.75 171.874 113.949L129.331 134.79C120.76 138.989 110.408 135.445 106.209 126.874L85.3676 84.3305C81.1689 75.7597 84.7132 65.4078 93.2841 61.209L135.827 40.3676ZM129.657 27.7726L87.1139 48.614C71.6119 56.2083 65.1784 74.9986 72.7727 90.5006L93.6141 133.044C101.208 148.546 119.999 154.979 135.501 147.385L178.044 126.544C193.546 118.949 199.979 100.159 192.385 84.6572L171.544 42.1139C163.949 26.6118 145.159 20.1784 129.657 27.7726Z" fill="#147CEE"/>
<path d="M135.827 40.3676C144.398 36.1689 154.75 39.7132 158.949 48.284L179.79 90.8273C183.989 99.3981 180.445 109.75 171.874 113.949L129.331 134.79C120.76 138.989 110.408 135.445 106.209 126.874L85.3676 84.3305C81.1689 75.7597 84.7132 65.4078 93.2841 61.209L135.827 40.3676ZM129.657 27.7726L87.1139 48.614C71.6119 56.2083 65.1784 74.9986 72.7727 90.5006L93.6141 133.044C101.208 148.546 119.999 154.979 135.501 147.385L178.044 126.544C193.546 118.949 199.979 100.159 192.385 84.6572L171.544 42.1139C163.949 26.6118 145.159 20.1784 129.657 27.7726Z" fill="url(#paint0_linear)"/>
</g>
<g opacity="0.3">
<path d="M16.3208 27.6319L4.36207 22.5405C1.95284 21.5148 0.831295 18.7302 1.85702 16.321L6.94842 4.36229C7.97415 1.95306 10.7587 0.831516 13.168 1.85724L25.1266 6.94864C27.5359 7.97437 28.6574 10.7589 27.6317 13.1682L22.5403 25.1269C21.5146 27.5361 18.73 28.6576 16.3208 27.6319Z" fill="#147CEE"/>
<path d="M16.3208 27.6319L4.36207 22.5405C1.95284 21.5148 0.831295 18.7302 1.85702 16.321L6.94842 4.36229C7.97415 1.95306 10.7587 0.831516 13.168 1.85724L25.1266 6.94864C27.5359 7.97437 28.6574 10.7589 27.6317 13.1682L22.5403 25.1269C21.5146 27.5361 18.73 28.6576 16.3208 27.6319Z" fill="url(#paint1_linear)"/>
</g>
<defs>
<linearGradient id="paint0_linear" x1="108.386" y1="38.1934" x2="156.772" y2="136.964" gradientUnits="userSpaceOnUse">
<stop offset="0.208333" stop-color="#51E2E1"/>
<stop offset="1" stop-color="white" stop-opacity="0"/>
<stop offset="1" stop-color="#51E2E1" stop-opacity="0"/>
</linearGradient>
<linearGradient id="paint1_linear" x1="19.1473" y1="4.40294" x2="10.3414" y2="25.0862" gradientUnits="userSpaceOnUse">
<stop offset="0.208333" stop-color="#51E2E1"/>
<stop offset="1" stop-color="white" stop-opacity="0"/>
<stop offset="1" stop-color="#51E2E1" stop-opacity="0"/>
</linearGradient>
</defs>
</svg>
