<svg width="71" height="105" viewBox="0 0 71 105" fill="none" xmlns="http://www.w3.org/2000/svg">
<path d="M70.3526 71.9998C70.3526 82.1198 54.7917 90.3355 35.5855 90.3355C16.3792 90.3355 0.818359 82.1198 0.818359 71.9998C0.818359 61.8798 16.3792 53.6641 35.5855 53.6641C54.7917 53.7185 70.3526 61.9342 70.3526 71.9998Z" fill="#76B7FF"/>
<path d="M35.8575 89.7466C16.6513 90.0186 0.981585 82.0205 0.818359 71.9005L1.03599 86.4276C1.14481 96.5477 16.8689 104.546 36.0752 104.274C55.2814 104.002 70.7335 95.6227 70.6247 85.5027L70.407 70.9756C70.5703 81.0956 55.0638 89.4745 35.8575 89.7466Z" fill="#3491F7"/>
<path d="M70.3497 44.9295C70.3497 55.0495 54.7888 63.2652 35.5826 63.2652C16.3763 63.2652 0.81543 55.0495 0.81543 44.9295C0.81543 34.8095 16.3763 26.5938 35.5826 26.5938C54.7888 26.5937 70.3497 34.8095 70.3497 44.9295Z" fill="#FF98FF"/>
<path d="M35.8575 62.4907C16.6513 62.7628 0.981585 54.7647 0.818359 44.6447L1.03599 59.1718C1.14481 69.2918 16.8689 77.2899 36.0752 77.0178C55.2814 76.7458 70.7335 68.3668 70.6247 58.2468L70.407 43.7197C70.5703 53.8397 55.0638 62.2187 35.8575 62.4907Z" fill="#E368E3"/>
<path d="M70.3497 18.449C70.3497 28.569 54.7888 36.7847 35.5826 36.7847C16.3763 36.7847 0.81543 28.569 0.81543 18.449C0.81543 8.32899 16.3763 0.113281 35.5826 0.113281C54.7888 0.113281 70.3497 8.32899 70.3497 18.449Z" fill="#75F5F4"/>
<path d="M35.7179 35.4214C16.5116 35.6934 0.841937 27.6953 0.678711 17.5753L0.896346 32.1025C1.00516 42.2225 16.7293 50.2205 35.9355 49.9485C55.1418 49.6764 70.5938 41.2975 70.485 31.1775L70.2674 16.6504C70.4306 26.7704 54.9241 35.1493 35.7179 35.4214Z" fill="#61D4D4"/>
</svg>
