<svg width="127" height="137" viewBox="0 0 127 137" fill="none" xmlns="http://www.w3.org/2000/svg">
<path d="M119.421 135.621C117.844 135.621 116.277 134.93 115.214 133.602L73.9028 81.9675C72.0439 79.6458 72.4199 76.2593 74.7442 74.4003C77.0553 72.544 80.4524 72.9148 82.3113 75.2417L123.623 126.873C125.482 129.195 125.106 132.582 122.782 134.441C121.79 135.235 120.602 135.621 119.421 135.621Z" fill="white"/>
<path d="M119.419 136.966C117.361 136.966 115.444 136.046 114.161 134.442L72.8492 82.8075C71.7265 81.4034 71.2164 79.647 71.4136 77.8591C71.6134 76.0738 72.4968 74.4699 73.9009 73.3472C75.3023 72.2245 77.0613 71.7223 78.844 71.9116C80.6345 72.1114 82.2384 72.9949 83.3611 74.3989L124.673 126.031C125.796 127.435 126.306 129.191 126.108 130.979C125.909 132.764 125.025 134.368 123.621 135.491C122.433 136.443 120.942 136.966 119.419 136.966ZM78.0946 74.5646C77.1823 74.5646 76.3041 74.8696 75.5863 75.448C74.7396 76.1238 74.2111 77.0861 74.0902 78.1589C73.9719 79.229 74.2769 80.2833 74.9526 81.1247L116.264 132.759C117.613 134.442 120.248 134.744 121.938 133.387C122.782 132.714 123.311 131.752 123.432 130.679C123.55 129.609 123.245 128.555 122.569 127.713L81.2577 76.0817C80.5846 75.2377 79.6223 74.7066 78.5469 74.5883C78.397 74.5725 78.2445 74.5646 78.0946 74.5646Z" fill="#002F6A"/>
<path d="M72.1833 112.762C94.774 112.762 113.087 94.4488 113.087 71.8581C113.087 49.2675 94.774 30.9541 72.1833 30.9541C49.5926 30.9541 31.2793 49.2675 31.2793 71.8581C31.2793 94.4488 49.5926 112.762 72.1833 112.762Z" fill="#147CEE"/>
<path d="M72.1833 112.762C94.774 112.762 113.087 94.4488 113.087 71.8581C113.087 49.2675 94.774 30.9541 72.1833 30.9541C49.5926 30.9541 31.2793 49.2675 31.2793 71.8581C31.2793 94.4488 49.5926 112.762 72.1833 112.762Z" fill="url(#paint0_linear)"/>
<path d="M72.1839 114.107C48.8883 114.107 29.9336 95.1523 29.9336 71.8566C29.9336 48.5609 48.8883 29.6089 72.1839 29.6089C95.4796 29.6089 114.432 48.5609 114.432 71.8566C114.432 95.1523 95.4796 114.107 72.1839 114.107ZM72.1839 32.3013C50.3712 32.3013 32.626 50.0465 32.626 71.8566C32.626 93.6693 50.3712 111.415 72.1839 111.415C93.9941 111.415 111.739 93.6693 111.739 71.8566C111.739 50.0465 93.9941 32.3013 72.1839 32.3013Z" fill="#002F6A"/>
<path d="M72.178 105.693C90.8646 105.693 106.013 90.5446 106.013 71.8579C106.013 53.1712 90.8646 38.0227 72.178 38.0227C53.4913 38.0227 38.3428 53.1712 38.3428 71.8579C38.3428 90.5446 53.4913 105.693 72.178 105.693Z" fill="white"/>
<path d="M72.1762 107.04C52.7772 107.04 36.9961 91.2559 36.9961 71.8569C36.9961 52.4579 52.7772 36.6768 72.1762 36.6768C91.5753 36.6768 107.359 52.4579 107.359 71.8569C107.359 91.2559 91.5753 107.04 72.1762 107.04ZM72.1762 39.3692C54.2628 39.3692 39.6885 53.9434 39.6885 71.8569C39.6885 89.773 54.2628 104.347 72.1762 104.347C90.0923 104.347 104.667 89.773 104.667 71.8569C104.667 53.9434 90.0923 39.3692 72.1762 39.3692Z" fill="#002F6A"/>
<path d="M44.3469 72.4823V8.07677C44.3469 4.51985 41.4388 1.63623 37.8518 1.63623C34.2648 1.63623 31.3567 4.51985 31.3567 8.07677V72.4821C23.7762 75.136 18.3428 82.2996 18.3428 90.7244C18.3428 101.408 27.0772 110.069 37.8516 110.069C48.6262 110.069 57.3608 101.408 57.3608 90.7244C57.3608 82.2996 51.9272 75.1364 44.3469 72.4823Z" fill="white"/>
<path d="M44.3476 29.41V8.07677C44.3476 4.51985 41.4395 1.63623 37.8525 1.63623C34.2655 1.63623 31.3574 4.51985 31.3574 8.07677V29.41H44.3476Z" fill="#147CEE"/>
<path d="M44.3476 29.41V8.07677C44.3476 4.51985 41.4395 1.63623 37.8525 1.63623C34.2655 1.63623 31.3574 4.51985 31.3574 8.07677V29.41H44.3476Z" fill="url(#paint1_linear)"/>
<path d="M37.7013 101.253C31.8066 101.169 27.0785 96.3774 27.1612 90.5718C27.2245 86.1262 30.1387 82.1799 34.4125 80.7515C35.8206 80.2811 37.0511 79.4756 38.0266 78.4419C38.9719 79.5029 40.1789 80.3429 41.573 80.8534C45.8047 82.4031 48.605 86.4308 48.5417 90.8761C48.4591 96.6818 43.5962 101.337 37.7013 101.253Z" fill="#147CEE"/>
<path d="M37.7013 101.253C31.8066 101.169 27.0785 96.3774 27.1612 90.5718C27.2245 86.1262 30.1387 82.1799 34.4125 80.7515C35.8206 80.2811 37.0511 79.4756 38.0266 78.4419C38.9719 79.5029 40.1789 80.3429 41.573 80.8534C45.8047 82.4031 48.605 86.4308 48.5417 90.8761C48.4591 96.6818 43.5962 101.337 37.7013 101.253Z" fill="url(#paint2_linear)"/>
<g opacity="0.1">
<path opacity="0.1" d="M42.2814 98.9549C36.3868 98.8709 31.6589 94.0795 31.7414 88.2739C31.7876 85.0207 33.362 82.0365 35.8771 80.1089C35.4148 80.3642 34.9259 80.5812 34.4125 80.7527C30.1387 82.1811 27.2245 86.1275 27.1612 90.573C27.0785 96.3787 31.8066 101.17 37.7013 101.254C40.4269 101.293 42.9307 100.317 44.8446 98.6843C44.0216 98.8717 43.1635 98.9673 42.2814 98.9549Z" fill="black"/>
</g>
<path d="M45.9838 71.3558V21.8175C45.9838 20.9139 45.2511 20.1812 44.3475 20.1812C43.4438 20.1812 42.7111 20.9139 42.7111 21.8175V27.7737H32.9936V8.07685C32.9936 5.42777 35.1732 3.27263 37.8524 3.27263C40.5316 3.27263 42.7111 5.42777 42.7111 8.07685V14.1814C42.7111 15.0851 43.4438 15.8177 44.3475 15.8177C45.2511 15.8177 45.9838 15.0851 45.9838 14.1814V8.07685C45.9838 3.62324 42.3361 0 37.8524 0C33.3686 0 29.721 3.62324 29.721 8.07685V71.3558C21.8904 74.5928 16.707 82.2344 16.707 90.7247C16.707 102.294 26.1926 111.706 37.8522 111.706C49.5119 111.706 58.9977 102.294 58.9977 90.7247C58.9977 82.2347 53.8141 74.5933 45.9838 71.3558ZM37.8522 108.433C27.9972 108.433 19.9797 100.489 19.9797 90.7245C19.9797 83.2328 24.7693 76.5224 31.8979 74.0265C32.5542 73.7967 32.9936 73.1773 32.9936 72.482V57.1809H36.6086C37.5122 57.1809 38.2449 56.4483 38.2449 55.5446C38.2449 54.6409 37.5122 53.9083 36.6086 53.9083H32.9934V48.4111H36.6083C37.512 48.4111 38.2446 47.6785 38.2446 46.7748C38.2446 45.8712 37.512 45.1385 36.6083 45.1385H32.9934V39.6412H36.6083C37.512 39.6412 38.2446 38.9085 38.2446 38.0048C38.2446 37.1012 37.512 36.3685 36.6083 36.3685H32.9934V31.0464H42.7109V72.4824C42.7109 73.1778 43.1503 73.7969 43.8064 74.0269C50.935 76.5228 55.7249 83.2332 55.7249 90.7247C55.7251 100.489 47.7071 108.433 37.8522 108.433Z" fill="#002F6A"/>
<path d="M48.3755 88.2576C47.4749 88.3309 46.804 89.1207 46.8775 90.0215C46.9 90.2975 46.9093 90.5772 46.9054 90.8536C46.8716 93.2197 45.9001 95.4351 44.1693 97.0917C42.4317 98.7549 40.1431 99.6509 37.7242 99.6175C32.7319 99.5464 28.7273 95.4992 28.7969 90.596C28.8503 86.8449 31.3153 83.5127 34.9304 82.3044C36.0346 81.9355 37.0727 81.3802 37.9943 80.6707C38.8947 81.406 39.9164 81.9905 41.0097 82.3908C42.1023 82.791 43.0928 83.3866 43.9539 84.1613C44.6259 84.7659 45.6605 84.7111 46.2649 84.0391C46.8694 83.3674 46.8147 82.3328 46.1427 81.7282C44.9698 80.6729 43.6214 79.862 42.135 79.3176C41.1388 78.9528 40.2308 78.3635 39.4872 77.6069V69.9603C39.4872 69.0566 38.7546 68.324 37.8509 68.324C36.9472 68.324 36.2146 69.0566 36.2146 69.9603V77.9025C35.5293 78.4741 34.74 78.9173 33.8932 79.2002C28.9609 80.8488 25.5975 85.4095 25.5247 90.5491C25.4291 97.2569 30.8809 102.793 37.6775 102.889C37.7381 102.89 37.799 102.891 37.8594 102.891C41.0756 102.891 44.1136 101.675 46.4322 99.4556C48.8011 97.1879 50.1314 94.1496 50.1774 90.9003C50.1828 90.52 50.17 90.135 50.139 89.7553C50.0657 88.8547 49.2774 88.1836 48.3755 88.2576Z" fill="#002F6A"/>
<path d="M21.9135 48.8837C21.4616 48.1009 20.4609 47.833 19.6783 48.2848L13.1371 52.0614V44.5086C13.1371 43.6049 12.4045 42.8723 11.5008 42.8723C10.5972 42.8723 9.86452 43.6049 9.86452 44.5086V52.0612L3.32384 48.2848C2.54124 47.8327 1.54047 48.1009 1.08863 48.8837C0.636792 49.6663 0.904929 50.6671 1.68752 51.1189L8.22842 54.8953L1.68752 58.6719C0.904929 59.1238 0.636792 60.1245 1.08863 60.9071C1.39168 61.432 1.9417 61.7257 2.50721 61.7257C2.78472 61.7257 3.06617 61.655 3.32384 61.5062L9.86452 57.7298V65.2828C9.86452 66.1865 10.5972 66.9192 11.5008 66.9192C12.4045 66.9192 13.1371 66.1865 13.1371 65.2828V57.7296L19.6783 61.5062C19.9359 61.655 20.2174 61.7257 20.4949 61.7257C21.0604 61.7257 21.6104 61.4323 21.9135 60.9071C22.3653 60.1245 22.0972 59.1238 21.3146 58.6719L14.7737 54.8953L21.3146 51.1189C22.0972 50.6673 22.3653 49.6663 21.9135 48.8837Z" fill="#002F6A"/>
<defs>
<linearGradient id="paint0_linear" x1="72.1833" y1="30.9541" x2="72.1833" y2="112.762" gradientUnits="userSpaceOnUse">
<stop offset="0.208333" stop-color="#51E2E1"/>
<stop offset="1" stop-color="white" stop-opacity="0"/>
<stop offset="1" stop-color="#51E2E1" stop-opacity="0"/>
</linearGradient>
<linearGradient id="paint1_linear" x1="37.8525" y1="1.63623" x2="37.8525" y2="29.41" gradientUnits="userSpaceOnUse">
<stop offset="0.208333" stop-color="#51E2E1"/>
<stop offset="1" stop-color="white" stop-opacity="0"/>
<stop offset="1" stop-color="#51E2E1" stop-opacity="0"/>
</linearGradient>
<linearGradient id="paint2_linear" x1="37.8515" y1="78.4419" x2="37.8515" y2="101.254" gradientUnits="userSpaceOnUse">
<stop offset="0.208333" stop-color="#51E2E1"/>
<stop offset="1" stop-color="white" stop-opacity="0"/>
<stop offset="1" stop-color="#51E2E1" stop-opacity="0"/>
</linearGradient>
</defs>
</svg>
