<svg width="135" height="135" viewBox="0 0 135 135" fill="none" xmlns="http://www.w3.org/2000/svg">
<path d="M41.6271 107.904C41.4947 107.904 41.3593 107.886 41.2269 107.851C40.4236 107.627 39.9528 106.798 40.1735 105.997L47.403 79.8394C47.6266 79.0361 48.4593 78.5712 49.2567 78.786C50.06 79.0096 50.5308 79.8394 50.3072 80.6397L43.0806 106.798C42.8952 107.466 42.2891 107.904 41.6271 107.904Z" fill="#002F6A"/>
<path d="M93.9398 107.904C93.2778 107.904 92.6717 107.466 92.4892 106.798L85.2568 80.6397C85.0332 79.8393 85.504 79.0096 86.3072 78.7889C87.1105 78.5594 87.9403 79.0361 88.158 79.8393L95.3905 105.997C95.6141 106.798 95.1433 107.627 94.34 107.848C94.2076 107.886 94.0722 107.904 93.9398 107.904Z" fill="#002F6A"/>
<path d="M67.7819 91.3791C66.9492 91.3791 66.2754 90.7053 66.2754 89.8726V82.8373C66.2754 82.0046 66.9492 81.3308 67.7819 81.3308C68.6146 81.3308 69.2884 82.0046 69.2884 82.8373V89.8726C69.2884 90.7053 68.6146 91.3791 67.7819 91.3791Z" fill="#002F6A"/>
<path d="M132.557 42.7569C132.557 42.7569 103.557 72.3583 67.7836 72.3583C32.01 72.3583 3.00977 42.7569 3.00977 42.7569C3.00977 42.7569 32.01 13.1555 67.7836 13.1555C103.557 13.1555 132.557 42.7569 132.557 42.7569Z" fill="white"/>
<path d="M67.7804 73.8661C31.786 73.8661 3.1328 45.0364 1.92935 43.8094C1.35558 43.2239 1.35558 42.2882 1.92935 41.7027C3.1328 40.4757 31.7889 11.6489 67.7804 11.6489C103.772 11.6489 132.428 40.4757 133.632 41.7027C134.205 42.2882 134.205 43.2239 133.632 43.8094C132.428 45.0364 103.775 73.8661 67.7804 73.8661ZM5.17483 42.7561C10.7478 47.9847 36.8881 70.8531 67.7804 70.8531C98.6728 70.8531 124.813 47.9877 130.386 42.7561C124.813 37.5274 98.6728 14.662 67.7804 14.662C36.8587 14.662 10.7419 37.5274 5.17483 42.7561Z" fill="#002F6A"/>
<path d="M67.7833 67.1985C103.899 67.1985 133.176 55.479 133.176 41.0222C133.176 26.5655 103.899 14.8459 67.7833 14.8459C31.6679 14.8459 2.39062 26.5655 2.39062 41.0222C2.39062 55.479 31.6679 67.1985 67.7833 67.1985Z" fill="white"/>
<path d="M67.7814 68.7052C30.2686 68.7052 0.882812 56.5471 0.882812 41.023C0.882812 25.4989 30.2686 13.3408 67.7814 13.3408C105.294 13.3408 134.68 25.4989 134.68 41.023C134.68 56.5471 105.294 68.7052 67.7814 68.7052ZM67.7814 16.3538C33.1522 16.3538 3.89584 27.6498 3.89584 41.023C3.89584 54.3962 33.1522 65.6921 67.7814 65.6921C102.411 65.6921 131.667 54.3962 131.667 41.023C131.667 27.6498 102.411 16.3538 67.7814 16.3538Z" fill="#002F6A"/>
<path d="M99.3365 33.2076C99.3365 50.6341 36.2295 50.6341 36.2295 33.2076C36.2295 15.781 50.3565 1.65405 67.783 1.65405C85.2095 1.65405 99.3365 15.781 99.3365 33.2076Z" fill="#147CEE"/>
<path d="M99.3365 33.2076C99.3365 50.6341 36.2295 50.6341 36.2295 33.2076C36.2295 15.781 50.3565 1.65405 67.783 1.65405C85.2095 1.65405 99.3365 15.781 99.3365 33.2076Z" fill="url(#paint0_linear)"/>
<path d="M67.7835 47.7846C59.3418 47.7846 51.4532 46.5929 45.5684 44.4243C36.6058 41.1229 34.7227 36.5034 34.7227 33.2079C34.7227 14.9767 49.5524 0.146973 67.7806 0.146973C86.0118 0.146973 100.841 14.9767 100.841 33.2079C100.841 43.2768 84.2375 47.7846 67.7835 47.7846ZM67.7806 3.16C51.2149 3.16 37.7357 16.6392 37.7357 33.2079C37.7357 40.7198 53.2157 44.7715 67.7835 44.7715C82.3485 44.7715 97.8285 40.7198 97.8285 33.2079C97.8285 16.6392 84.3493 3.16 67.7806 3.16Z" fill="#002F6A"/>
<path d="M45.5902 33.4787C45.546 33.4787 45.5019 33.4757 45.4548 33.4728C44.628 33.3992 44.016 32.6695 44.0866 31.8427C44.1278 31.3513 45.2135 19.7406 52.8138 12.0932C53.4023 11.5018 54.3556 11.5018 54.9441 12.0873C55.5355 12.6729 55.5355 13.6262 54.95 14.2177C48.1324 21.0764 47.0967 31.9927 47.0879 32.1046C47.0202 32.8872 46.3611 33.4787 45.5902 33.4787Z" fill="#ECF5FF"/>
<path d="M69.127 122.527C61.108 121.252 61.0711 129.829 57.4179 129.249C54.1383 128.727 56.2843 115.719 56.2843 115.719C56.8624 112.082 61.2338 108.722 71.0726 110.286C80.9114 111.85 84.0253 116.4 83.4472 120.037C83.4472 120.037 81.4542 133.069 78.1745 132.548C74.5213 131.967 77.1458 123.801 69.1268 122.526L69.127 122.527Z" fill="white"/>
<path d="M78.3641 134.07C78.2082 134.07 78.064 134.058 77.9375 134.037C75.5394 133.655 74.8626 131.469 74.2683 129.544C73.4885 127.017 72.75 124.628 68.8896 124.016C65.035 123.395 63.5844 125.44 62.0602 127.602C60.898 129.25 59.5857 131.107 57.1788 130.736C56.658 130.651 55.9018 130.374 55.2868 129.521C53.1124 126.505 54.4982 117.289 54.7984 115.474C55.1927 112.973 56.8904 110.913 59.5768 109.683C62.531 108.327 66.4856 108.035 71.3053 108.797C76.1397 109.565 79.8 111.072 82.1863 113.276C84.3578 115.283 85.3317 117.766 84.9345 120.276C84.6579 122.085 83.1161 131.275 80.1119 133.47C79.4705 133.937 78.8526 134.07 78.3641 134.07ZM67.5596 120.891C68.1216 120.891 68.7218 120.938 69.3604 121.038C75.0745 121.947 76.3221 125.984 77.146 128.653C77.6344 130.23 77.9169 130.983 78.4112 131.06C79.3734 130.607 81.1241 125.24 81.9568 119.811C82.1951 118.319 81.5507 116.789 80.1443 115.491C78.2288 113.723 75.0068 112.437 70.8345 111.775C66.6592 111.11 63.2019 111.331 60.8333 112.42C59.0943 113.22 58.0056 114.473 57.7731 115.953C56.8787 121.382 56.8787 127.029 57.7731 127.808C58.138 127.82 58.6441 127.214 59.6004 125.863C61.0304 123.836 63.1136 120.891 67.5596 120.891Z" fill="#002F6A"/>
<path d="M64.496 112.322C65.1258 108.36 62.9416 104.72 59.6176 104.192C56.2935 103.663 53.0884 106.447 52.4586 110.409C51.8289 114.371 54.013 118.011 57.3371 118.539C60.6611 119.068 63.8663 116.284 64.496 112.322Z" fill="white"/>
<path d="M58.1399 120.111C57.7956 120.111 57.4484 120.082 57.1012 120.029C55.0445 119.699 53.279 118.461 52.1227 116.536C51.0193 114.697 50.6103 112.437 50.9722 110.172C51.5872 106.317 52.3316 101.503 59.8553 102.704C67.3614 103.899 66.5993 108.701 65.9873 112.558V112.561C65.287 116.93 61.8856 120.111 58.1399 120.111ZM57.6044 105.517C54.762 105.517 54.4913 107.232 53.9499 110.645C53.6998 112.214 53.9676 113.753 54.709 114.986C55.3946 116.133 56.4127 116.869 57.5749 117.051C60.0495 117.445 62.5064 115.218 63.0096 112.084C63.6481 108.065 63.9129 106.4 59.3845 105.682C58.699 105.573 58.1105 105.517 57.6044 105.517ZM64.4984 112.323H64.5367H64.4984Z" fill="#002F6A"/>
<path d="M87.7465 128.709C87.2816 128.709 86.8226 128.494 86.5284 128.088C85.0542 126.055 85.4691 123.916 85.8016 122.194C86.2724 119.781 86.4666 118.781 82.6179 117.819C81.8088 117.616 81.3203 116.798 81.5204 115.992C81.7264 115.183 82.5444 114.691 83.3476 114.894C89.968 116.554 89.2413 120.293 88.7617 122.768C88.4498 124.366 88.2938 125.393 88.9647 126.317C89.4531 126.99 89.306 127.932 88.6322 128.42C88.3644 128.615 88.0555 128.709 87.7465 128.709Z" fill="#002F6A"/>
<path d="M63.0237 106.665C62.6853 106.665 62.3499 106.553 62.0674 106.324C61.426 105.797 61.3318 104.847 61.8585 104.202L64.4832 101.001C65.0098 100.359 65.9573 100.268 66.6046 100.792C67.2461 101.319 67.3402 102.269 66.8135 102.913L64.1889 106.115C63.8917 106.477 63.4592 106.665 63.0237 106.665Z" fill="#002F6A"/>
<path d="M56.034 105.552C55.4308 105.552 54.863 105.188 54.6305 104.593L53.1269 100.736C52.8239 99.959 53.2093 99.088 53.9832 98.7849C54.7541 98.4877 55.6339 98.8673 55.934 99.6412L57.4376 103.499C57.7406 104.275 57.3552 105.146 56.5813 105.449C56.4018 105.52 56.2165 105.552 56.034 105.552Z" fill="#002F6A"/>
<defs>
<linearGradient id="paint0_linear" x1="67.783" y1="1.65405" x2="67.783" y2="46.2775" gradientUnits="userSpaceOnUse">
<stop offset="0.208333" stop-color="#51E2E1"/>
<stop offset="1" stop-color="white" stop-opacity="0"/>
<stop offset="1" stop-color="#51E2E1" stop-opacity="0"/>
</linearGradient>
</defs>
</svg>
